G04 #@! TF.GenerationSoftware,KiCad,Pcbnew,10.0.2*
G04 #@! TF.CreationDate,2026-05-12T12:24:36+10:00*
G04 #@! TF.ProjectId,bbb,6262622e-6b69-4636-9164-5f7063625858,rev?*
G04 #@! TF.SameCoordinates,Original*
G04 #@! TF.FileFunction,Copper,L2,Inr*
G04 #@! TF.FilePolarity,Positive*
%FSLAX46Y46*%
G04 Gerber Fmt 4.6, Leading zero omitted, Abs format (unit mm)*
G04 Created by KiCad (PCBNEW 10.0.2) date 2026-05-12 12:24:36*
%MOMM*%
%LPD*%
G01*
G04 APERTURE LIST*
G04 #@! TA.AperFunction,ComponentPad*
%ADD10R,1.700000X1.700000*%
G04 #@! TD*
G04 #@! TA.AperFunction,ComponentPad*
%ADD11O,1.700000X1.700000*%
G04 #@! TD*
G04 #@! TA.AperFunction,ComponentPad*
%ADD12C,2.006600*%
G04 #@! TD*
G04 #@! TA.AperFunction,ComponentPad*
%ADD13R,2.200000X2.200000*%
G04 #@! TD*
G04 #@! TA.AperFunction,ComponentPad*
%ADD14C,2.200000*%
G04 #@! TD*
G04 #@! TA.AperFunction,ComponentPad*
%ADD15C,2.000000*%
G04 #@! TD*
G04 #@! TA.AperFunction,ComponentPad*
%ADD16C,2.600000*%
G04 #@! TD*
G04 #@! TA.AperFunction,ComponentPad*
%ADD17C,1.041400*%
G04 #@! TD*
G04 #@! TA.AperFunction,ViaPad*
%ADD18C,1.727200*%
G04 #@! TD*
G04 #@! TA.AperFunction,ViaPad*
%ADD19C,4.000000*%
G04 #@! TD*
G04 #@! TA.AperFunction,ViaPad*
%ADD20C,1.000000*%
G04 #@! TD*
G04 #@! TA.AperFunction,ViaPad*
%ADD21C,0.508000*%
G04 #@! TD*
G04 #@! TA.AperFunction,ViaPad*
%ADD22C,0.762000*%
G04 #@! TD*
G04 #@! TA.AperFunction,ViaPad*
%ADD23C,0.457200*%
G04 #@! TD*
G04 #@! TA.AperFunction,Conductor*
%ADD24C,0.508000*%
G04 #@! TD*
G04 #@! TA.AperFunction,Conductor*
%ADD25C,1.000000*%
G04 #@! TD*
G04 #@! TA.AperFunction,Conductor*
%ADD26C,0.762000*%
G04 #@! TD*
G04 APERTURE END LIST*
D10*
X141630400Y-111048800D03*
D11*
X139090400Y-111048800D03*
X141630400Y-108508800D03*
X139090400Y-108508800D03*
X141630400Y-105968800D03*
X139090400Y-105968800D03*
X141630400Y-103428800D03*
X139090400Y-103428800D03*
X141630400Y-100888800D03*
X139090400Y-100888800D03*
X141630400Y-98348800D03*
X139090400Y-98348800D03*
X141630400Y-95808800D03*
X139090400Y-95808800D03*
X141630400Y-93268800D03*
X139090400Y-93268800D03*
X141630400Y-90728800D03*
X139090400Y-90728800D03*
X141630400Y-88188800D03*
X139090400Y-88188800D03*
X141630400Y-85648800D03*
X139090400Y-85648800D03*
X141630400Y-83108800D03*
X139090400Y-83108800D03*
X141630400Y-80568800D03*
X139090400Y-80568800D03*
X141630400Y-78028800D03*
X139090400Y-78028800D03*
D10*
X117487700Y-134950200D03*
D11*
X114947700Y-134950200D03*
X117487700Y-132410200D03*
X114947700Y-132410200D03*
X117487700Y-129870200D03*
X114947700Y-129870200D03*
X117487700Y-127330200D03*
X114947700Y-127330200D03*
X117487700Y-124790200D03*
X114947700Y-124790200D03*
X117487700Y-122250200D03*
X114947700Y-122250200D03*
X117487700Y-119710200D03*
X114947700Y-119710200D03*
X117487700Y-117170200D03*
X114947700Y-117170200D03*
X117487700Y-114630200D03*
X114947700Y-114630200D03*
X117487700Y-112090200D03*
X114947700Y-112090200D03*
X117487700Y-109550200D03*
X114947700Y-109550200D03*
X117487700Y-107010200D03*
X114947700Y-107010200D03*
X117487700Y-104470200D03*
X114947700Y-104470200D03*
X117487700Y-101930200D03*
X114947700Y-101930200D03*
X117487700Y-99390200D03*
X114947700Y-99390200D03*
X117487700Y-96850200D03*
X114947700Y-96850200D03*
X117487700Y-94310200D03*
X114947700Y-94310200D03*
X117487700Y-91770200D03*
X114947700Y-91770200D03*
X117487700Y-89230200D03*
X114947700Y-89230200D03*
X117487700Y-86690200D03*
X114947700Y-86690200D03*
D12*
X128629400Y-65415800D03*
X123629400Y-70415800D03*
X133629400Y-70415800D03*
D13*
X141630100Y-128582400D03*
D14*
X144170100Y-128582400D03*
D15*
X146270100Y-101782400D03*
X146170100Y-86766400D03*
X117132100Y-70256400D03*
D13*
X154170100Y-101352400D03*
D14*
X154170100Y-98812400D03*
D16*
X147770100Y-77782400D03*
X155390100Y-77782400D03*
D15*
X127770100Y-111882400D03*
X156170100Y-93882400D03*
X161370100Y-91082400D03*
D17*
X154569050Y-111013250D03*
X155839050Y-111013250D03*
X157109050Y-111013250D03*
D15*
X146170100Y-96482400D03*
D13*
X154170100Y-119752400D03*
D14*
X154170100Y-117212400D03*
D15*
X117132100Y-64922400D03*
X146170100Y-91782400D03*
D18*
X151790400Y-72440800D03*
X154330400Y-72440800D03*
X141630400Y-72440800D03*
X154330400Y-64820800D03*
X149250400Y-67360800D03*
X151790400Y-69900800D03*
X144170400Y-72440800D03*
X151790400Y-64820800D03*
X159410400Y-64820800D03*
X154330400Y-69900800D03*
X156870400Y-67360800D03*
X154330400Y-67360800D03*
X144170400Y-64820800D03*
X159410400Y-72440800D03*
X146710400Y-64820800D03*
X144170400Y-69900800D03*
X149250400Y-69900800D03*
X156870400Y-69900800D03*
X156870400Y-72440800D03*
X144170400Y-67360800D03*
X159410400Y-67360800D03*
X159410400Y-69900800D03*
X161950400Y-69900800D03*
X151790400Y-67360800D03*
X141630400Y-64820800D03*
X141630400Y-67360800D03*
X161950400Y-64820800D03*
X161950400Y-67360800D03*
X139090400Y-69900800D03*
X139090400Y-64820800D03*
X146710400Y-72440800D03*
X146710400Y-69900800D03*
X146710400Y-67360800D03*
X156870400Y-64820800D03*
X139090400Y-72440800D03*
X139090400Y-67360800D03*
X141630400Y-69900800D03*
X149250400Y-64820800D03*
X149250400Y-72440800D03*
X149250400Y-59867800D03*
X159410400Y-59867800D03*
X139090400Y-59867800D03*
X144170400Y-62407800D03*
X149250400Y-62407800D03*
X156870400Y-62407800D03*
X141630400Y-62407800D03*
X151790400Y-59867800D03*
X161950400Y-62407800D03*
X141630400Y-59867800D03*
X146710400Y-59867800D03*
X161950400Y-59867800D03*
X156870400Y-59867800D03*
X139090400Y-62407800D03*
X159410400Y-62407800D03*
X154330400Y-62407800D03*
X151790400Y-62407800D03*
X146710400Y-62407800D03*
X144170400Y-59867800D03*
X154330400Y-59867800D03*
D19*
X116315700Y-81756000D03*
X116315700Y-139756000D03*
X165315700Y-81756000D03*
X165315700Y-139756000D03*
D20*
X124018250Y-108730550D03*
X128570100Y-107282400D03*
D21*
X136192900Y-101382400D03*
X125939050Y-98473250D03*
D18*
X131759050Y-128383250D03*
D22*
X154049050Y-89323250D03*
X149136100Y-95082400D03*
D21*
X120040400Y-83743800D03*
X148259050Y-84863250D03*
X160845500Y-82562700D03*
D18*
X115349050Y-75593250D03*
D20*
X139509050Y-121183250D03*
D22*
X128610400Y-99938800D03*
D21*
X156070100Y-83882400D03*
X120675400Y-88188800D03*
D18*
X154520900Y-135826500D03*
D20*
X122949050Y-101573250D03*
D21*
X131851359Y-104601141D03*
D23*
X148339050Y-135513250D03*
D22*
X119670100Y-85648800D03*
X120675400Y-93268800D03*
D20*
X147570100Y-109852200D03*
D21*
X131405400Y-98283800D03*
D20*
X140457050Y-118323250D03*
X126710400Y-107179100D03*
D18*
X122719050Y-137633250D03*
D21*
X146470100Y-84382400D03*
D18*
X122789050Y-127923250D03*
D22*
X127660400Y-79933800D03*
X120675400Y-95808800D03*
D20*
X131929050Y-115233250D03*
X157319050Y-90333250D03*
D18*
X159664400Y-135648700D03*
D21*
X122970100Y-98382400D03*
D20*
X140483650Y-123845600D03*
X139689050Y-115063250D03*
X159870100Y-86382400D03*
D21*
X125120400Y-97078800D03*
D22*
X130570100Y-102182400D03*
D21*
X120675400Y-90728800D03*
D23*
X159339050Y-106013250D03*
D21*
X131470400Y-88188800D03*
X135370100Y-90282400D03*
D23*
X135328450Y-88140750D03*
D21*
X132370100Y-89882400D03*
X135280400Y-99618800D03*
X134270100Y-84021300D03*
D23*
X134270100Y-82482400D03*
X123850400Y-79298800D03*
X137339050Y-137013250D03*
X133990194Y-119664394D03*
X140614048Y-133788248D03*
X132839050Y-120013250D03*
D21*
X135570100Y-105382400D03*
D23*
X146839050Y-134013250D03*
X147339050Y-137513250D03*
D18*
X161950400Y-72440800D03*
D23*
X150334249Y-136018051D03*
X152339050Y-114013250D03*
D24*
X116204101Y-118453799D02*
X118515501Y-118453799D01*
D25*
X146373500Y-111048800D02*
X141630400Y-111048800D01*
D24*
X116204101Y-131126601D02*
X118947301Y-131126601D01*
D26*
X128629400Y-65415800D02*
X128870100Y-65656500D01*
X117487700Y-104470200D02*
X119087900Y-104470200D01*
D24*
X116204101Y-93053799D02*
X118783999Y-93053799D01*
X114947700Y-119710200D02*
X116204101Y-118453799D01*
D26*
X117487700Y-86690200D02*
X117487700Y-85204300D01*
X128870100Y-70082400D02*
X131170100Y-72382400D01*
D24*
X116204101Y-110833799D02*
X118452001Y-110833799D01*
D25*
X147570100Y-109852200D02*
X146373500Y-111048800D01*
D26*
X128870100Y-65656500D02*
X128870100Y-70082400D01*
D24*
X114947700Y-94310200D02*
X116204101Y-93053799D01*
X114947700Y-112090200D02*
X116204101Y-110833799D01*
X114947700Y-129870200D02*
X116204101Y-131126601D01*
D26*
X131170100Y-72382400D02*
X131170100Y-74782400D01*
G04 #@! TA.AperFunction,Conductor*
G36*
X116297842Y-130549480D02*
G01*
X116322797Y-130578275D01*
X116322896Y-130578204D01*
X116323725Y-130579345D01*
X116324836Y-130580627D01*
X116325803Y-130582206D01*
X116401218Y-130686006D01*
X116451494Y-130755204D01*
X116451496Y-130755206D01*
X116451498Y-130755209D01*
X116602690Y-130906401D01*
X116602693Y-130906403D01*
X116602696Y-130906406D01*
X116775691Y-131032094D01*
X116775696Y-131032096D01*
X116776788Y-131032766D01*
X116777118Y-131033131D01*
X116779696Y-131035004D01*
X116779302Y-131035545D01*
X116824421Y-131085413D01*
X116836028Y-131155455D01*
X116807926Y-131220653D01*
X116779570Y-131245223D01*
X116779696Y-131245396D01*
X116777682Y-131246858D01*
X116776788Y-131247634D01*
X116775687Y-131248308D01*
X116602693Y-131373996D01*
X116602690Y-131373998D01*
X116451498Y-131525190D01*
X116451496Y-131525193D01*
X116325808Y-131698187D01*
X116325134Y-131699288D01*
X116324768Y-131699618D01*
X116322896Y-131702196D01*
X116322354Y-131701802D01*
X116272487Y-131746921D01*
X116202445Y-131758528D01*
X116137247Y-131730426D01*
X116112676Y-131702070D01*
X116112504Y-131702196D01*
X116111041Y-131700182D01*
X116110266Y-131699288D01*
X116109596Y-131698196D01*
X116109594Y-131698191D01*
X115983906Y-131525196D01*
X115983903Y-131525193D01*
X115983901Y-131525190D01*
X115832709Y-131373998D01*
X115832706Y-131373996D01*
X115832704Y-131373994D01*
X115763506Y-131323718D01*
X115659706Y-131248303D01*
X115658127Y-131247336D01*
X115657652Y-131246811D01*
X115655704Y-131245396D01*
X115656001Y-131244986D01*
X115610497Y-131194688D01*
X115598891Y-131124646D01*
X115626996Y-131059449D01*
X115655544Y-131034716D01*
X115655442Y-131034576D01*
X115657082Y-131033384D01*
X115658148Y-131032461D01*
X115659454Y-131031660D01*
X115832379Y-130906022D01*
X115983522Y-130754879D01*
X116109160Y-130581954D01*
X116109961Y-130580648D01*
X116110395Y-130580254D01*
X116112076Y-130577942D01*
X116112561Y-130578294D01*
X116162600Y-130533007D01*
X116232640Y-130521388D01*
X116297842Y-130549480D01*
G37*
G04 #@! TD.AperFunction*
G04 #@! TA.AperFunction,Conductor*
G36*
X116298145Y-117849966D02*
G01*
X116322721Y-117878330D01*
X116322896Y-117878204D01*
X116324368Y-117880230D01*
X116325139Y-117881120D01*
X116325805Y-117882207D01*
X116325806Y-117882209D01*
X116451494Y-118055204D01*
X116451496Y-118055206D01*
X116451498Y-118055209D01*
X116602690Y-118206401D01*
X116602693Y-118206403D01*
X116602696Y-118206406D01*
X116775691Y-118332094D01*
X116775696Y-118332096D01*
X116776788Y-118332766D01*
X116777118Y-118333131D01*
X116779696Y-118335004D01*
X116779302Y-118335545D01*
X116824421Y-118385413D01*
X116836028Y-118455455D01*
X116807926Y-118520653D01*
X116779570Y-118545223D01*
X116779696Y-118545396D01*
X116777682Y-118546858D01*
X116776788Y-118547634D01*
X116775687Y-118548308D01*
X116602693Y-118673996D01*
X116602690Y-118673998D01*
X116451498Y-118825190D01*
X116451496Y-118825193D01*
X116325800Y-118998198D01*
X116324831Y-118999780D01*
X116324306Y-119000254D01*
X116322896Y-119002196D01*
X116322487Y-119001899D01*
X116272179Y-119047406D01*
X116202137Y-119059007D01*
X116136942Y-119030897D01*
X116112215Y-119002356D01*
X116112076Y-119002458D01*
X116110894Y-119000831D01*
X116109966Y-118999760D01*
X116109160Y-118998444D01*
X115983522Y-118825520D01*
X115832379Y-118674377D01*
X115659449Y-118548735D01*
X115658133Y-118547929D01*
X115657737Y-118547491D01*
X115655442Y-118545824D01*
X115655792Y-118545341D01*
X115610500Y-118495284D01*
X115598890Y-118425243D01*
X115626991Y-118360044D01*
X115655776Y-118335103D01*
X115655704Y-118335004D01*
X115656858Y-118334165D01*
X115658141Y-118333054D01*
X115659692Y-118332102D01*
X115659709Y-118332094D01*
X115832704Y-118206406D01*
X115983906Y-118055204D01*
X116109594Y-117882209D01*
X116109599Y-117882197D01*
X116110261Y-117881120D01*
X116110624Y-117880791D01*
X116112504Y-117878204D01*
X116113047Y-117878598D01*
X116162904Y-117833483D01*
X116232944Y-117821870D01*
X116298145Y-117849966D01*
G37*
G04 #@! TD.AperFunction*
G04 #@! TA.AperFunction,Conductor*
G36*
X116298145Y-110229966D02*
G01*
X116322721Y-110258330D01*
X116322896Y-110258204D01*
X116324368Y-110260230D01*
X116325139Y-110261120D01*
X116325805Y-110262207D01*
X116325806Y-110262209D01*
X116451494Y-110435204D01*
X116451496Y-110435206D01*
X116451498Y-110435209D01*
X116602690Y-110586401D01*
X116602693Y-110586403D01*
X116602696Y-110586406D01*
X116775691Y-110712094D01*
X116775696Y-110712096D01*
X116776788Y-110712766D01*
X116777118Y-110713131D01*
X116779696Y-110715004D01*
X116779302Y-110715545D01*
X116824421Y-110765413D01*
X116836028Y-110835455D01*
X116807926Y-110900653D01*
X116779570Y-110925223D01*
X116779696Y-110925396D01*
X116777682Y-110926858D01*
X116776788Y-110927634D01*
X116775687Y-110928308D01*
X116602693Y-111053996D01*
X116602690Y-111053998D01*
X116451498Y-111205190D01*
X116451496Y-111205193D01*
X116325800Y-111378198D01*
X116324831Y-111379780D01*
X116324306Y-111380254D01*
X116322896Y-111382196D01*
X116322487Y-111381899D01*
X116272179Y-111427406D01*
X116202137Y-111439007D01*
X116136942Y-111410897D01*
X116112215Y-111382356D01*
X116112076Y-111382458D01*
X116110894Y-111380831D01*
X116109966Y-111379760D01*
X116109160Y-111378444D01*
X115983522Y-111205520D01*
X115832379Y-111054377D01*
X115659449Y-110928735D01*
X115658133Y-110927929D01*
X115657737Y-110927491D01*
X115655442Y-110925824D01*
X115655792Y-110925341D01*
X115610500Y-110875284D01*
X115598890Y-110805243D01*
X115626991Y-110740044D01*
X115655776Y-110715103D01*
X115655704Y-110715004D01*
X115656858Y-110714165D01*
X115658141Y-110713054D01*
X115659692Y-110712102D01*
X115659709Y-110712094D01*
X115832704Y-110586406D01*
X115983906Y-110435204D01*
X116109594Y-110262209D01*
X116109599Y-110262197D01*
X116110261Y-110261120D01*
X116110624Y-110260791D01*
X116112504Y-110258204D01*
X116113047Y-110258598D01*
X116162904Y-110213483D01*
X116232944Y-110201870D01*
X116298145Y-110229966D01*
G37*
G04 #@! TD.AperFunction*
G04 #@! TA.AperFunction,Conductor*
G36*
X116298145Y-92449966D02*
G01*
X116322721Y-92478330D01*
X116322896Y-92478204D01*
X116324368Y-92480230D01*
X116325139Y-92481120D01*
X116325808Y-92482212D01*
X116356882Y-92524981D01*
X116451494Y-92655204D01*
X116451496Y-92655206D01*
X116451498Y-92655209D01*
X116602690Y-92806401D01*
X116602693Y-92806403D01*
X116602696Y-92806406D01*
X116775691Y-92932094D01*
X116775696Y-92932096D01*
X116776788Y-92932766D01*
X116777118Y-92933131D01*
X116779696Y-92935004D01*
X116779302Y-92935545D01*
X116824421Y-92985413D01*
X116836028Y-93055455D01*
X116807926Y-93120653D01*
X116779570Y-93145223D01*
X116779696Y-93145396D01*
X116777682Y-93146858D01*
X116776788Y-93147634D01*
X116775687Y-93148308D01*
X116602693Y-93273996D01*
X116602690Y-93273998D01*
X116451498Y-93425190D01*
X116451496Y-93425193D01*
X116325800Y-93598198D01*
X116324831Y-93599780D01*
X116324306Y-93600254D01*
X116322896Y-93602196D01*
X116322487Y-93601899D01*
X116272179Y-93647406D01*
X116202137Y-93659007D01*
X116136942Y-93630897D01*
X116112215Y-93602356D01*
X116112076Y-93602458D01*
X116110894Y-93600831D01*
X116109966Y-93599760D01*
X116109160Y-93598444D01*
X115983522Y-93425520D01*
X115832379Y-93274377D01*
X115659449Y-93148735D01*
X115658133Y-93147929D01*
X115657737Y-93147491D01*
X115655442Y-93145824D01*
X115655792Y-93145341D01*
X115610500Y-93095284D01*
X115598890Y-93025243D01*
X115626991Y-92960044D01*
X115655776Y-92935103D01*
X115655704Y-92935004D01*
X115656858Y-92934165D01*
X115658141Y-92933054D01*
X115659692Y-92932102D01*
X115659709Y-92932094D01*
X115832704Y-92806406D01*
X115983906Y-92655204D01*
X116109594Y-92482209D01*
X116109599Y-92482197D01*
X116110261Y-92481120D01*
X116110624Y-92480791D01*
X116112504Y-92478204D01*
X116113047Y-92478598D01*
X116162904Y-92433483D01*
X116232944Y-92421870D01*
X116298145Y-92449966D01*
G37*
G04 #@! TD.AperFunction*
G04 #@! TA.AperFunction,Conductor*
G36*
X168613637Y-74005473D02*
G01*
X168660196Y-74059072D01*
X168671647Y-74111707D01*
X168590790Y-140956445D01*
X168586708Y-140988104D01*
X168581135Y-141009463D01*
X168577118Y-141022097D01*
X168462640Y-141325777D01*
X168457319Y-141337916D01*
X168311575Y-141627889D01*
X168305008Y-141639403D01*
X168129605Y-141912464D01*
X168121865Y-141923224D01*
X167918745Y-142176353D01*
X167909917Y-142186240D01*
X167681333Y-142416627D01*
X167671515Y-142425532D01*
X167419997Y-142630629D01*
X167409298Y-142638453D01*
X167137626Y-142815993D01*
X167126166Y-142822650D01*
X166837340Y-142970674D01*
X166825242Y-142976091D01*
X166522474Y-143092949D01*
X166509875Y-143097065D01*
X166202759Y-143179789D01*
X166198151Y-143180937D01*
X166188322Y-143183191D01*
X166179968Y-143184812D01*
X165874107Y-143233502D01*
X165868477Y-143234269D01*
X165849007Y-143236474D01*
X165841456Y-143237100D01*
X165522430Y-143253904D01*
X165515802Y-143254078D01*
X116157491Y-143254228D01*
X116150897Y-143254055D01*
X115825277Y-143236990D01*
X115817765Y-143236371D01*
X115795867Y-143233904D01*
X115790262Y-143233145D01*
X115478946Y-143183838D01*
X115470619Y-143182230D01*
X115458518Y-143179468D01*
X115453945Y-143178334D01*
X115140746Y-143094413D01*
X115128203Y-143090337D01*
X114818044Y-142971279D01*
X114805995Y-142965915D01*
X114509967Y-142815080D01*
X114498546Y-142808486D01*
X114219911Y-142627539D01*
X114209240Y-142619786D01*
X113951040Y-142410699D01*
X113941240Y-142401874D01*
X113706325Y-142166959D01*
X113697500Y-142157159D01*
X113488413Y-141898959D01*
X113480660Y-141888288D01*
X113412050Y-141782637D01*
X113299709Y-141609647D01*
X113293119Y-141598232D01*
X113142280Y-141302195D01*
X113136924Y-141290164D01*
X113017861Y-140979995D01*
X113013786Y-140967453D01*
X112929851Y-140654202D01*
X112928735Y-140649702D01*
X112925966Y-140637569D01*
X112924364Y-140629274D01*
X112904148Y-140501637D01*
X112902601Y-140481358D01*
X112906746Y-139615124D01*
X113807200Y-139615124D01*
X113807200Y-139896875D01*
X113838745Y-140176855D01*
X113901441Y-140451542D01*
X113994489Y-140717456D01*
X113994500Y-140717483D01*
X114116743Y-140971324D01*
X114266642Y-141209885D01*
X114442304Y-141430160D01*
X114641539Y-141629395D01*
X114861814Y-141805057D01*
X115100375Y-141954956D01*
X115100378Y-141954957D01*
X115100379Y-141954958D01*
X115354226Y-142077204D01*
X115354242Y-142077209D01*
X115354243Y-142077210D01*
X115620157Y-142170258D01*
X115620160Y-142170258D01*
X115620164Y-142170260D01*
X115894844Y-142232954D01*
X115894845Y-142232954D01*
X115894848Y-142232955D01*
X116059971Y-142251559D01*
X116174824Y-142264500D01*
X116174826Y-142264500D01*
X116456576Y-142264500D01*
X116527677Y-142256488D01*
X116736552Y-142232955D01*
X117011236Y-142170260D01*
X117048677Y-142157159D01*
X117077720Y-142146996D01*
X117277174Y-142077204D01*
X117531021Y-141954958D01*
X117769584Y-141805058D01*
X117831312Y-141755832D01*
X117989860Y-141629395D01*
X118189095Y-141430160D01*
X118364757Y-141209885D01*
X118490692Y-141009463D01*
X118514658Y-140971321D01*
X118636904Y-140717474D01*
X118729960Y-140451536D01*
X118792655Y-140176852D01*
X118824200Y-139896874D01*
X118824200Y-139615126D01*
X118824200Y-139615124D01*
X162807200Y-139615124D01*
X162807200Y-139896875D01*
X162838745Y-140176855D01*
X162901441Y-140451542D01*
X162994489Y-140717456D01*
X162994500Y-140717483D01*
X163116743Y-140971324D01*
X163266642Y-141209885D01*
X163442304Y-141430160D01*
X163641539Y-141629395D01*
X163861814Y-141805057D01*
X164100375Y-141954956D01*
X164100378Y-141954957D01*
X164100379Y-141954958D01*
X164354226Y-142077204D01*
X164354242Y-142077209D01*
X164354243Y-142077210D01*
X164620157Y-142170258D01*
X164620160Y-142170258D01*
X164620164Y-142170260D01*
X164894844Y-142232954D01*
X164894845Y-142232954D01*
X164894848Y-142232955D01*
X165059971Y-142251559D01*
X165174824Y-142264500D01*
X165174826Y-142264500D01*
X165456576Y-142264500D01*
X165527677Y-142256488D01*
X165736552Y-142232955D01*
X166011236Y-142170260D01*
X166048677Y-142157159D01*
X166077720Y-142146996D01*
X166277174Y-142077204D01*
X166531021Y-141954958D01*
X166769584Y-141805058D01*
X166831312Y-141755832D01*
X166989860Y-141629395D01*
X167189095Y-141430160D01*
X167364757Y-141209885D01*
X167490692Y-141009463D01*
X167514658Y-140971321D01*
X167636904Y-140717474D01*
X167729960Y-140451536D01*
X167792655Y-140176852D01*
X167824200Y-139896874D01*
X167824200Y-139615126D01*
X167792655Y-139335148D01*
X167729960Y-139060464D01*
X167636904Y-138794526D01*
X167514658Y-138540679D01*
X167514657Y-138540678D01*
X167514656Y-138540675D01*
X167364757Y-138302114D01*
X167189095Y-138081839D01*
X166989860Y-137882604D01*
X166769585Y-137706942D01*
X166531024Y-137557043D01*
X166277183Y-137434800D01*
X166277178Y-137434798D01*
X166277174Y-137434796D01*
X166277168Y-137434793D01*
X166277156Y-137434789D01*
X166011242Y-137341741D01*
X165736554Y-137279045D01*
X165736557Y-137279045D01*
X165456576Y-137247500D01*
X165456574Y-137247500D01*
X165174826Y-137247500D01*
X165174824Y-137247500D01*
X164894844Y-137279045D01*
X164620157Y-137341741D01*
X164354243Y-137434789D01*
X164354216Y-137434800D01*
X164100375Y-137557043D01*
X163861814Y-137706942D01*
X163641539Y-137882604D01*
X163442304Y-138081839D01*
X163266642Y-138302114D01*
X163116743Y-138540675D01*
X162994500Y-138794516D01*
X162994489Y-138794543D01*
X162901441Y-139060457D01*
X162838745Y-139335144D01*
X162807200Y-139615124D01*
X118824200Y-139615124D01*
X118792655Y-139335148D01*
X118729960Y-139060464D01*
X118636904Y-138794526D01*
X118514658Y-138540679D01*
X118514657Y-138540678D01*
X118514656Y-138540675D01*
X118364757Y-138302114D01*
X118189095Y-138081839D01*
X117989860Y-137882604D01*
X117769585Y-137706942D01*
X117531024Y-137557043D01*
X117277183Y-137434800D01*
X117277178Y-137434798D01*
X117277174Y-137434796D01*
X117277168Y-137434793D01*
X117277156Y-137434789D01*
X117011242Y-137341741D01*
X116736554Y-137279045D01*
X116736557Y-137279045D01*
X116456576Y-137247500D01*
X116456574Y-137247500D01*
X116174826Y-137247500D01*
X116174824Y-137247500D01*
X115894844Y-137279045D01*
X115620157Y-137341741D01*
X115354243Y-137434789D01*
X115354216Y-137434800D01*
X115100375Y-137557043D01*
X114861814Y-137706942D01*
X114641539Y-137882604D01*
X114442304Y-138081839D01*
X114266642Y-138302114D01*
X114116743Y-138540675D01*
X113994500Y-138794516D01*
X113994489Y-138794543D01*
X113901441Y-139060457D01*
X113838745Y-139335144D01*
X113807200Y-139615124D01*
X112906746Y-139615124D01*
X112919545Y-136940649D01*
X136601950Y-136940649D01*
X136601950Y-137085850D01*
X136630276Y-137228254D01*
X136685840Y-137362398D01*
X136687218Y-137364460D01*
X136766506Y-137483123D01*
X136766511Y-137483129D01*
X136869170Y-137585788D01*
X136869176Y-137585793D01*
X136989902Y-137666460D01*
X137124046Y-137722024D01*
X137266452Y-137750350D01*
X137266453Y-137750350D01*
X137411647Y-137750350D01*
X137411648Y-137750350D01*
X137554054Y-137722024D01*
X137688198Y-137666460D01*
X137808924Y-137585793D01*
X137911593Y-137483124D01*
X137939974Y-137440649D01*
X146601950Y-137440649D01*
X146601950Y-137585850D01*
X146626037Y-137706942D01*
X146630276Y-137728254D01*
X146685840Y-137862398D01*
X146699345Y-137882609D01*
X146766506Y-137983123D01*
X146766511Y-137983129D01*
X146869170Y-138085788D01*
X146869176Y-138085793D01*
X146989902Y-138166460D01*
X147124046Y-138222024D01*
X147266452Y-138250350D01*
X147266453Y-138250350D01*
X147411647Y-138250350D01*
X147411648Y-138250350D01*
X147554054Y-138222024D01*
X147688198Y-138166460D01*
X147808924Y-138085793D01*
X147911593Y-137983124D01*
X147992260Y-137862398D01*
X148047824Y-137728254D01*
X148076150Y-137585848D01*
X148076150Y-137440652D01*
X148047824Y-137298246D01*
X147992260Y-137164102D01*
X147911593Y-137043376D01*
X147911588Y-137043370D01*
X147808929Y-136940711D01*
X147808923Y-136940706D01*
X147768864Y-136913939D01*
X147688198Y-136860040D01*
X147554054Y-136804476D01*
X147411650Y-136776150D01*
X147411648Y-136776150D01*
X147266452Y-136776150D01*
X147266449Y-136776150D01*
X147124045Y-136804476D01*
X147124040Y-136804478D01*
X146989902Y-136860040D01*
X146869176Y-136940706D01*
X146869170Y-136940711D01*
X146766511Y-137043370D01*
X146766506Y-137043376D01*
X146685840Y-137164102D01*
X146630278Y-137298240D01*
X146630276Y-137298245D01*
X146601950Y-137440649D01*
X137939974Y-137440649D01*
X137992260Y-137362398D01*
X138047824Y-137228254D01*
X138076150Y-137085848D01*
X138076150Y-136940652D01*
X138047824Y-136798246D01*
X137992260Y-136664102D01*
X137911593Y-136543376D01*
X137911588Y-136543370D01*
X137808929Y-136440711D01*
X137808923Y-136440706D01*
X137768864Y-136413939D01*
X137688198Y-136360040D01*
X137554054Y-136304476D01*
X137411650Y-136276150D01*
X137411648Y-136276150D01*
X137266452Y-136276150D01*
X137266449Y-136276150D01*
X137124045Y-136304476D01*
X137124040Y-136304478D01*
X136989902Y-136360040D01*
X136869176Y-136440706D01*
X136869170Y-136440711D01*
X136766511Y-136543370D01*
X136766506Y-136543376D01*
X136685840Y-136664102D01*
X136630278Y-136798240D01*
X136630276Y-136798245D01*
X136601950Y-136940649D01*
X112919545Y-136940649D01*
X113160537Y-86583284D01*
X113589200Y-86583284D01*
X113589200Y-86797116D01*
X113621216Y-86999253D01*
X113622652Y-87008321D01*
X113688664Y-87211486D01*
X113688728Y-87211683D01*
X113785806Y-87402209D01*
X113911494Y-87575204D01*
X113911496Y-87575206D01*
X113911498Y-87575209D01*
X114062690Y-87726401D01*
X114062693Y-87726403D01*
X114062696Y-87726406D01*
X114235691Y-87852094D01*
X114235696Y-87852096D01*
X114236788Y-87852766D01*
X114237118Y-87853131D01*
X114239696Y-87855004D01*
X114239302Y-87855545D01*
X114284421Y-87905413D01*
X114296028Y-87975455D01*
X114267926Y-88040653D01*
X114239570Y-88065223D01*
X114239696Y-88065396D01*
X114237682Y-88066858D01*
X114236788Y-88067634D01*
X114235687Y-88068308D01*
X114062693Y-88193996D01*
X114062690Y-88193998D01*
X113911498Y-88345190D01*
X113911496Y-88345193D01*
X113785808Y-88518187D01*
X113688729Y-88708715D01*
X113688726Y-88708721D01*
X113622652Y-88912078D01*
X113622651Y-88912083D01*
X113622651Y-88912084D01*
X113589200Y-89123284D01*
X113589200Y-89337116D01*
X113618359Y-89521219D01*
X113622652Y-89548321D01*
X113686422Y-89744586D01*
X113688728Y-89751683D01*
X113785806Y-89942209D01*
X113785808Y-89942212D01*
X113796918Y-89957503D01*
X113911494Y-90115204D01*
X113911496Y-90115206D01*
X113911498Y-90115209D01*
X114062690Y-90266401D01*
X114062693Y-90266403D01*
X114062696Y-90266406D01*
X114235691Y-90392094D01*
X114235696Y-90392096D01*
X114236788Y-90392766D01*
X114237118Y-90393131D01*
X114239696Y-90395004D01*
X114239302Y-90395545D01*
X114284421Y-90445413D01*
X114296028Y-90515455D01*
X114267926Y-90580653D01*
X114239570Y-90605223D01*
X114239696Y-90605396D01*
X114237682Y-90606858D01*
X114236788Y-90607634D01*
X114235687Y-90608308D01*
X114062693Y-90733996D01*
X114062690Y-90733998D01*
X113911498Y-90885190D01*
X113911496Y-90885193D01*
X113785808Y-91058187D01*
X113688729Y-91248715D01*
X113688726Y-91248721D01*
X113622652Y-91452078D01*
X113622651Y-91452083D01*
X113622651Y-91452084D01*
X113589200Y-91663284D01*
X113589200Y-91877116D01*
X113618978Y-92065124D01*
X113622652Y-92088321D01*
X113688726Y-92291678D01*
X113688728Y-92291683D01*
X113785806Y-92482209D01*
X113785808Y-92482212D01*
X113816882Y-92524981D01*
X113911494Y-92655204D01*
X113911496Y-92655206D01*
X113911498Y-92655209D01*
X114062690Y-92806401D01*
X114062693Y-92806403D01*
X114062696Y-92806406D01*
X114235691Y-92932094D01*
X114235701Y-92932099D01*
X114237267Y-92933059D01*
X114237742Y-92933584D01*
X114239696Y-92935004D01*
X114239397Y-92935414D01*
X114284900Y-92985705D01*
X114296508Y-93055746D01*
X114268407Y-93120945D01*
X114239857Y-93145685D01*
X114239958Y-93145824D01*
X114238344Y-93146996D01*
X114237274Y-93147924D01*
X114235955Y-93148732D01*
X114063020Y-93274377D01*
X113911877Y-93425520D01*
X113786236Y-93598449D01*
X113689193Y-93788907D01*
X113689190Y-93788913D01*
X113623140Y-93992195D01*
X113613002Y-94056200D01*
X114516997Y-94056200D01*
X114481775Y-94117207D01*
X114447700Y-94244374D01*
X114447700Y-94376026D01*
X114481775Y-94503193D01*
X114516997Y-94564200D01*
X113613002Y-94564200D01*
X113623140Y-94628204D01*
X113689190Y-94831486D01*
X113689193Y-94831492D01*
X113786236Y-95021950D01*
X113911877Y-95194879D01*
X114063020Y-95346022D01*
X114235944Y-95471660D01*
X114237260Y-95472466D01*
X114237655Y-95472903D01*
X114239958Y-95474576D01*
X114239606Y-95475059D01*
X114284896Y-95525110D01*
X114296509Y-95595150D01*
X114268412Y-95660350D01*
X114239625Y-95685298D01*
X114239696Y-95685396D01*
X114238562Y-95686219D01*
X114237280Y-95687331D01*
X114235698Y-95688300D01*
X114062693Y-95813996D01*
X114062690Y-95813998D01*
X113911498Y-95965190D01*
X113911496Y-95965193D01*
X113785808Y-96138187D01*
X113688729Y-96328715D01*
X113688726Y-96328721D01*
X113622652Y-96532078D01*
X113622651Y-96532083D01*
X113622651Y-96532084D01*
X113589200Y-96743284D01*
X113589200Y-96957116D01*
X113608473Y-97078800D01*
X113622652Y-97168321D01*
X113688726Y-97371678D01*
X113688728Y-97371683D01*
X113785806Y-97562209D01*
X113785808Y-97562212D01*
X113802733Y-97585507D01*
X113911494Y-97735204D01*
X113911496Y-97735206D01*
X113911498Y-97735209D01*
X114062690Y-97886401D01*
X114062693Y-97886403D01*
X114062696Y-97886406D01*
X114235691Y-98012094D01*
X114235696Y-98012096D01*
X114236788Y-98012766D01*
X114237118Y-98013131D01*
X114239696Y-98015004D01*
X114239302Y-98015545D01*
X114284421Y-98065413D01*
X114296028Y-98135455D01*
X114267926Y-98200653D01*
X114239570Y-98225223D01*
X114239696Y-98225396D01*
X114237682Y-98226858D01*
X114236788Y-98227634D01*
X114235687Y-98228308D01*
X114062693Y-98353996D01*
X114062690Y-98353998D01*
X113911498Y-98505190D01*
X113911496Y-98505193D01*
X113785808Y-98678187D01*
X113688729Y-98868715D01*
X113688726Y-98868721D01*
X113622652Y-99072078D01*
X113622651Y-99072083D01*
X113622651Y-99072084D01*
X113589200Y-99283284D01*
X113589200Y-99497116D01*
X113614277Y-99655443D01*
X113622652Y-99708321D01*
X113681403Y-99889139D01*
X113688728Y-99911683D01*
X113785806Y-100102209D01*
X113911494Y-100275204D01*
X113911496Y-100275206D01*
X113911498Y-100275209D01*
X114062690Y-100426401D01*
X114062693Y-100426403D01*
X114062696Y-100426406D01*
X114235691Y-100552094D01*
X114235696Y-100552096D01*
X114236788Y-100552766D01*
X114237118Y-100553131D01*
X114239696Y-100555004D01*
X114239302Y-100555545D01*
X114284421Y-100605413D01*
X114296028Y-100675455D01*
X114267926Y-100740653D01*
X114239570Y-100765223D01*
X114239696Y-100765396D01*
X114237682Y-100766858D01*
X114236788Y-100767634D01*
X114235687Y-100768308D01*
X114062693Y-100893996D01*
X114062690Y-100893998D01*
X113911498Y-101045190D01*
X113911496Y-101045193D01*
X113785808Y-101218187D01*
X113688729Y-101408715D01*
X113688726Y-101408721D01*
X113622652Y-101612078D01*
X113622651Y-101612083D01*
X113622651Y-101612084D01*
X113589200Y-101823284D01*
X113589200Y-102037116D01*
X113608473Y-102158800D01*
X113622652Y-102248321D01*
X113688726Y-102451678D01*
X113688728Y-102451683D01*
X113785806Y-102642209D01*
X113911494Y-102815204D01*
X113911496Y-102815206D01*
X113911498Y-102815209D01*
X114062690Y-102966401D01*
X114062693Y-102966403D01*
X114062696Y-102966406D01*
X114235691Y-103092094D01*
X114235696Y-103092096D01*
X114236788Y-103092766D01*
X114237118Y-103093131D01*
X114239696Y-103095004D01*
X114239302Y-103095545D01*
X114284421Y-103145413D01*
X114296028Y-103215455D01*
X114267926Y-103280653D01*
X114239570Y-103305223D01*
X114239696Y-103305396D01*
X114237682Y-103306858D01*
X114236788Y-103307634D01*
X114235687Y-103308308D01*
X114062693Y-103433996D01*
X114062690Y-103433998D01*
X113911498Y-103585190D01*
X113911496Y-103585193D01*
X113785808Y-103758187D01*
X113688729Y-103948715D01*
X113688726Y-103948721D01*
X113622652Y-104152078D01*
X113622651Y-104152083D01*
X113622651Y-104152084D01*
X113589200Y-104363284D01*
X113589200Y-104577116D01*
X113621216Y-104779253D01*
X113622652Y-104788321D01*
X113688664Y-104991486D01*
X113688728Y-104991683D01*
X113785806Y-105182209D01*
X113911494Y-105355204D01*
X113911496Y-105355206D01*
X113911498Y-105355209D01*
X114062690Y-105506401D01*
X114062693Y-105506403D01*
X114062696Y-105506406D01*
X114235691Y-105632094D01*
X114235696Y-105632096D01*
X114236788Y-105632766D01*
X114237118Y-105633131D01*
X114239696Y-105635004D01*
X114239302Y-105635545D01*
X114284421Y-105685413D01*
X114296028Y-105755455D01*
X114267926Y-105820653D01*
X114239570Y-105845223D01*
X114239696Y-105845396D01*
X114237682Y-105846858D01*
X114236788Y-105847634D01*
X114235687Y-105848308D01*
X114062693Y-105973996D01*
X114062690Y-105973998D01*
X113911498Y-106125190D01*
X113911496Y-106125193D01*
X113785808Y-106298187D01*
X113688729Y-106488715D01*
X113688726Y-106488721D01*
X113622652Y-106692078D01*
X113622651Y-106692083D01*
X113622651Y-106692084D01*
X113589200Y-106903284D01*
X113589200Y-107117116D01*
X113608473Y-107238800D01*
X113622652Y-107328321D01*
X113688726Y-107531678D01*
X113688728Y-107531683D01*
X113785806Y-107722209D01*
X113911494Y-107895204D01*
X113911496Y-107895206D01*
X113911498Y-107895209D01*
X114062690Y-108046401D01*
X114062693Y-108046403D01*
X114062696Y-108046406D01*
X114235691Y-108172094D01*
X114235696Y-108172096D01*
X114236788Y-108172766D01*
X114237118Y-108173131D01*
X114239696Y-108175004D01*
X114239302Y-108175545D01*
X114284421Y-108225413D01*
X114296028Y-108295455D01*
X114267926Y-108360653D01*
X114239570Y-108385223D01*
X114239696Y-108385396D01*
X114237682Y-108386858D01*
X114236788Y-108387634D01*
X114235687Y-108388308D01*
X114062693Y-108513996D01*
X114062690Y-108513998D01*
X113911498Y-108665190D01*
X113911496Y-108665193D01*
X113785808Y-108838187D01*
X113688729Y-109028715D01*
X113688726Y-109028721D01*
X113622652Y-109232078D01*
X113622651Y-109232083D01*
X113622651Y-109232084D01*
X113589200Y-109443284D01*
X113589200Y-109657116D01*
X113608473Y-109778800D01*
X113622652Y-109868321D01*
X113688726Y-110071678D01*
X113688728Y-110071683D01*
X113785806Y-110262209D01*
X113911494Y-110435204D01*
X113911496Y-110435206D01*
X113911498Y-110435209D01*
X114062690Y-110586401D01*
X114062693Y-110586403D01*
X114062696Y-110586406D01*
X114235691Y-110712094D01*
X114235701Y-110712099D01*
X114237267Y-110713059D01*
X114237742Y-110713584D01*
X114239696Y-110715004D01*
X114239397Y-110715414D01*
X114284900Y-110765705D01*
X114296508Y-110835746D01*
X114268407Y-110900945D01*
X114239857Y-110925685D01*
X114239958Y-110925824D01*
X114238344Y-110926996D01*
X114237274Y-110927924D01*
X114235955Y-110928732D01*
X114063020Y-111054377D01*
X113911877Y-111205520D01*
X113786236Y-111378449D01*
X113689193Y-111568907D01*
X113689190Y-111568913D01*
X113623140Y-111772195D01*
X113613002Y-111836200D01*
X114516997Y-111836200D01*
X114481775Y-111897207D01*
X114447700Y-112024374D01*
X114447700Y-112156026D01*
X114481775Y-112283193D01*
X114516997Y-112344200D01*
X113613002Y-112344200D01*
X113623140Y-112408204D01*
X113689190Y-112611486D01*
X113689193Y-112611492D01*
X113786236Y-112801950D01*
X113911877Y-112974879D01*
X114063020Y-113126022D01*
X114235944Y-113251660D01*
X114237260Y-113252466D01*
X114237655Y-113252903D01*
X114239958Y-113254576D01*
X114239606Y-113255059D01*
X114284896Y-113305110D01*
X114296509Y-113375150D01*
X114268412Y-113440350D01*
X114239625Y-113465298D01*
X114239696Y-113465396D01*
X114238562Y-113466219D01*
X114237280Y-113467331D01*
X114235698Y-113468300D01*
X114062693Y-113593996D01*
X114062690Y-113593998D01*
X113911498Y-113745190D01*
X113911496Y-113745193D01*
X113785808Y-113918187D01*
X113688729Y-114108715D01*
X113688726Y-114108721D01*
X113622652Y-114312078D01*
X113622651Y-114312083D01*
X113622651Y-114312084D01*
X113589200Y-114523284D01*
X113589200Y-114737116D01*
X113622651Y-114948316D01*
X113622652Y-114948321D01*
X113688726Y-115151678D01*
X113688728Y-115151683D01*
X113785806Y-115342209D01*
X113911494Y-115515204D01*
X113911496Y-115515206D01*
X113911498Y-115515209D01*
X114062690Y-115666401D01*
X114062693Y-115666403D01*
X114062696Y-115666406D01*
X114235691Y-115792094D01*
X114235696Y-115792096D01*
X114236788Y-115792766D01*
X114237118Y-115793131D01*
X114239696Y-115795004D01*
X114239302Y-115795545D01*
X114284421Y-115845413D01*
X114296028Y-115915455D01*
X114267926Y-115980653D01*
X114239570Y-116005223D01*
X114239696Y-116005396D01*
X114237682Y-116006858D01*
X114236788Y-116007634D01*
X114235687Y-116008308D01*
X114062693Y-116133996D01*
X114062690Y-116133998D01*
X113911498Y-116285190D01*
X113911496Y-116285193D01*
X113785808Y-116458187D01*
X113688729Y-116648715D01*
X113688726Y-116648721D01*
X113622652Y-116852078D01*
X113622651Y-116852083D01*
X113622651Y-116852084D01*
X113589200Y-117063284D01*
X113589200Y-117277116D01*
X113620289Y-117473403D01*
X113622652Y-117488321D01*
X113688726Y-117691678D01*
X113688728Y-117691683D01*
X113785806Y-117882209D01*
X113911494Y-118055204D01*
X113911496Y-118055206D01*
X113911498Y-118055209D01*
X114062690Y-118206401D01*
X114062693Y-118206403D01*
X114062696Y-118206406D01*
X114235691Y-118332094D01*
X114235701Y-118332099D01*
X114237267Y-118333059D01*
X114237742Y-118333584D01*
X114239696Y-118335004D01*
X114239397Y-118335414D01*
X114284900Y-118385705D01*
X114296508Y-118455746D01*
X114268407Y-118520945D01*
X114239857Y-118545685D01*
X114239958Y-118545824D01*
X114238344Y-118546996D01*
X114237274Y-118547924D01*
X114235955Y-118548732D01*
X114063020Y-118674377D01*
X113911877Y-118825520D01*
X113786236Y-118998449D01*
X113689193Y-119188907D01*
X113689190Y-119188913D01*
X113623140Y-119392195D01*
X113613002Y-119456200D01*
X114516997Y-119456200D01*
X114481775Y-119517207D01*
X114447700Y-119644374D01*
X114447700Y-119776026D01*
X114481775Y-119903193D01*
X114516997Y-119964200D01*
X113613002Y-119964200D01*
X113623140Y-120028204D01*
X113689190Y-120231486D01*
X113689193Y-120231492D01*
X113786236Y-120421950D01*
X113911877Y-120594879D01*
X114063020Y-120746022D01*
X114235944Y-120871660D01*
X114237260Y-120872466D01*
X114237655Y-120872903D01*
X114239958Y-120874576D01*
X114239606Y-120875059D01*
X114284896Y-120925110D01*
X114296509Y-120995150D01*
X114268412Y-121060350D01*
X114239625Y-121085298D01*
X114239696Y-121085396D01*
X114238562Y-121086219D01*
X114237280Y-121087331D01*
X114235698Y-121088300D01*
X114062693Y-121213996D01*
X114062690Y-121213998D01*
X113911498Y-121365190D01*
X113911496Y-121365193D01*
X113785808Y-121538187D01*
X113688729Y-121728715D01*
X113688726Y-121728721D01*
X113622652Y-121932078D01*
X113622651Y-121932083D01*
X113622651Y-121932084D01*
X113589200Y-122143284D01*
X113589200Y-122357116D01*
X113622651Y-122568316D01*
X113622652Y-122568321D01*
X113688726Y-122771678D01*
X113688728Y-122771683D01*
X113785806Y-122962209D01*
X113911494Y-123135204D01*
X113911496Y-123135206D01*
X113911498Y-123135209D01*
X114062690Y-123286401D01*
X114062693Y-123286403D01*
X114062696Y-123286406D01*
X114235691Y-123412094D01*
X114235696Y-123412096D01*
X114236788Y-123412766D01*
X114237118Y-123413131D01*
X114239696Y-123415004D01*
X114239302Y-123415545D01*
X114284421Y-123465413D01*
X114296028Y-123535455D01*
X114267926Y-123600653D01*
X114239570Y-123625223D01*
X114239696Y-123625396D01*
X114237682Y-123626858D01*
X114236788Y-123627634D01*
X114235687Y-123628308D01*
X114062693Y-123753996D01*
X114062690Y-123753998D01*
X113911498Y-123905190D01*
X113911496Y-123905193D01*
X113785808Y-124078187D01*
X113688729Y-124268715D01*
X113688726Y-124268721D01*
X113622652Y-124472078D01*
X113622651Y-124472083D01*
X113622651Y-124472084D01*
X113589200Y-124683284D01*
X113589200Y-124897116D01*
X113622633Y-125108204D01*
X113622652Y-125108321D01*
X113688664Y-125311486D01*
X113688728Y-125311683D01*
X113785806Y-125502209D01*
X113911494Y-125675204D01*
X113911496Y-125675206D01*
X113911498Y-125675209D01*
X114062690Y-125826401D01*
X114062693Y-125826403D01*
X114062696Y-125826406D01*
X114235691Y-125952094D01*
X114235696Y-125952096D01*
X114236788Y-125952766D01*
X114237118Y-125953131D01*
X114239696Y-125955004D01*
X114239302Y-125955545D01*
X114284421Y-126005413D01*
X114296028Y-126075455D01*
X114267926Y-126140653D01*
X114239570Y-126165223D01*
X114239696Y-126165396D01*
X114237682Y-126166858D01*
X114236788Y-126167634D01*
X114235687Y-126168308D01*
X114062693Y-126293996D01*
X114062690Y-126293998D01*
X113911498Y-126445190D01*
X113911496Y-126445193D01*
X113785808Y-126618187D01*
X113688729Y-126808715D01*
X113688726Y-126808721D01*
X113622652Y-127012078D01*
X113622651Y-127012083D01*
X113622651Y-127012084D01*
X113589200Y-127223284D01*
X113589200Y-127437116D01*
X113622651Y-127648316D01*
X113622652Y-127648321D01*
X113688726Y-127851678D01*
X113688728Y-127851683D01*
X113785806Y-128042209D01*
X113911494Y-128215204D01*
X113911496Y-128215206D01*
X113911498Y-128215209D01*
X114062690Y-128366401D01*
X114062693Y-128366403D01*
X114062696Y-128366406D01*
X114235691Y-128492094D01*
X114235701Y-128492099D01*
X114237267Y-128493059D01*
X114237742Y-128493584D01*
X114239696Y-128495004D01*
X114239397Y-128495414D01*
X114284900Y-128545705D01*
X114296508Y-128615746D01*
X114268407Y-128680945D01*
X114239857Y-128705685D01*
X114239958Y-128705824D01*
X114238344Y-128706996D01*
X114237274Y-128707924D01*
X114235955Y-128708732D01*
X114063020Y-128834377D01*
X113911877Y-128985520D01*
X113786236Y-129158449D01*
X113689193Y-129348907D01*
X113689190Y-129348913D01*
X113623140Y-129552195D01*
X113613002Y-129616200D01*
X114516997Y-129616200D01*
X114481775Y-129677207D01*
X114447700Y-129804374D01*
X114447700Y-129936026D01*
X114481775Y-130063193D01*
X114516997Y-130124200D01*
X113613002Y-130124200D01*
X113623140Y-130188204D01*
X113689190Y-130391486D01*
X113689193Y-130391492D01*
X113786236Y-130581950D01*
X113911877Y-130754879D01*
X114063020Y-130906022D01*
X114235944Y-131031660D01*
X114237260Y-131032466D01*
X114237655Y-131032903D01*
X114239958Y-131034576D01*
X114239606Y-131035059D01*
X114284896Y-131085110D01*
X114296509Y-131155150D01*
X114268412Y-131220350D01*
X114239625Y-131245298D01*
X114239696Y-131245396D01*
X114238562Y-131246219D01*
X114237280Y-131247331D01*
X114235698Y-131248300D01*
X114062693Y-131373996D01*
X114062690Y-131373998D01*
X113911498Y-131525190D01*
X113911496Y-131525193D01*
X113785808Y-131698187D01*
X113688729Y-131888715D01*
X113688726Y-131888721D01*
X113622652Y-132092078D01*
X113622651Y-132092083D01*
X113622651Y-132092084D01*
X113589200Y-132303284D01*
X113589200Y-132517116D01*
X113622651Y-132728316D01*
X113622652Y-132728321D01*
X113688726Y-132931678D01*
X113688728Y-132931683D01*
X113785806Y-133122209D01*
X113911494Y-133295204D01*
X113911496Y-133295206D01*
X113911498Y-133295209D01*
X114062690Y-133446401D01*
X114062693Y-133446403D01*
X114062696Y-133446406D01*
X114235691Y-133572094D01*
X114235696Y-133572096D01*
X114236788Y-133572766D01*
X114237118Y-133573131D01*
X114239696Y-133575004D01*
X114239302Y-133575545D01*
X114284421Y-133625413D01*
X114296028Y-133695455D01*
X114267926Y-133760653D01*
X114239570Y-133785223D01*
X114239696Y-133785396D01*
X114237682Y-133786858D01*
X114236788Y-133787634D01*
X114235687Y-133788308D01*
X114062693Y-133913996D01*
X114062690Y-133913998D01*
X113911498Y-134065190D01*
X113911496Y-134065193D01*
X113785808Y-134238187D01*
X113688729Y-134428715D01*
X113688726Y-134428721D01*
X113622652Y-134632078D01*
X113622651Y-134632083D01*
X113622651Y-134632084D01*
X113589200Y-134843284D01*
X113589200Y-135057116D01*
X113622651Y-135268316D01*
X113622652Y-135268321D01*
X113688726Y-135471678D01*
X113688728Y-135471683D01*
X113785806Y-135662209D01*
X113911494Y-135835204D01*
X113911496Y-135835206D01*
X113911498Y-135835209D01*
X114062690Y-135986401D01*
X114062693Y-135986403D01*
X114062696Y-135986406D01*
X114235691Y-136112094D01*
X114426217Y-136209172D01*
X114629578Y-136275247D01*
X114629579Y-136275247D01*
X114629584Y-136275249D01*
X114840784Y-136308700D01*
X114840787Y-136308700D01*
X115054613Y-136308700D01*
X115054616Y-136308700D01*
X115265816Y-136275249D01*
X115469183Y-136209172D01*
X115659709Y-136112094D01*
X115832704Y-135986406D01*
X115935682Y-135883427D01*
X115997992Y-135849404D01*
X116068808Y-135854468D01*
X116125644Y-135897015D01*
X116142831Y-135928491D01*
X116186810Y-136046403D01*
X116186812Y-136046407D01*
X116274438Y-136163461D01*
X116391492Y-136251087D01*
X116391494Y-136251088D01*
X116391496Y-136251089D01*
X116450575Y-136273124D01*
X116528495Y-136302188D01*
X116528503Y-136302190D01*
X116589050Y-136308699D01*
X116589055Y-136308699D01*
X116589062Y-136308700D01*
X116589068Y-136308700D01*
X118386332Y-136308700D01*
X118386338Y-136308700D01*
X118386345Y-136308699D01*
X118386349Y-136308699D01*
X118446896Y-136302190D01*
X118446899Y-136302189D01*
X118446901Y-136302189D01*
X118583904Y-136251089D01*
X118639899Y-136209172D01*
X118700961Y-136163461D01*
X118788587Y-136046407D01*
X118788587Y-136046406D01*
X118788589Y-136046404D01*
X118826243Y-135945450D01*
X149597149Y-135945450D01*
X149597149Y-136090651D01*
X149611632Y-136163461D01*
X149625475Y-136233055D01*
X149681039Y-136367199D01*
X149730155Y-136440706D01*
X149761705Y-136487924D01*
X149761710Y-136487930D01*
X149864369Y-136590589D01*
X149864375Y-136590594D01*
X149985101Y-136671261D01*
X150119245Y-136726825D01*
X150261651Y-136755151D01*
X150261652Y-136755151D01*
X150406846Y-136755151D01*
X150406847Y-136755151D01*
X150549253Y-136726825D01*
X150683397Y-136671261D01*
X150804123Y-136590594D01*
X150906792Y-136487925D01*
X150987459Y-136367199D01*
X151043023Y-136233055D01*
X151071349Y-136090649D01*
X151071349Y-135945453D01*
X151043023Y-135803047D01*
X150987459Y-135668903D01*
X150906792Y-135548177D01*
X150906787Y-135548171D01*
X150804128Y-135445512D01*
X150804122Y-135445507D01*
X150764063Y-135418740D01*
X150683397Y-135364841D01*
X150549253Y-135309277D01*
X150406849Y-135280951D01*
X150406847Y-135280951D01*
X150261651Y-135280951D01*
X150261648Y-135280951D01*
X150119244Y-135309277D01*
X150119239Y-135309279D01*
X149985101Y-135364841D01*
X149864375Y-135445507D01*
X149864369Y-135445512D01*
X149761710Y-135548171D01*
X149761705Y-135548177D01*
X149681039Y-135668903D01*
X149625477Y-135803041D01*
X149625475Y-135803046D01*
X149597149Y-135945450D01*
X118826243Y-135945450D01*
X118839689Y-135909401D01*
X118846200Y-135848838D01*
X118846200Y-134051562D01*
X118843747Y-134028744D01*
X118839690Y-133991003D01*
X118839688Y-133990995D01*
X118809432Y-133909879D01*
X118788589Y-133853996D01*
X118718713Y-133760653D01*
X118700961Y-133736938D01*
X118672520Y-133715647D01*
X139876948Y-133715647D01*
X139876948Y-133860848D01*
X139892822Y-133940652D01*
X139905274Y-134003252D01*
X139960838Y-134137396D01*
X140014737Y-134218062D01*
X140041504Y-134258121D01*
X140041509Y-134258127D01*
X140144168Y-134360786D01*
X140144174Y-134360791D01*
X140264900Y-134441458D01*
X140399044Y-134497022D01*
X140541450Y-134525348D01*
X140541451Y-134525348D01*
X140686645Y-134525348D01*
X140686646Y-134525348D01*
X140829052Y-134497022D01*
X140963196Y-134441458D01*
X141083922Y-134360791D01*
X141186591Y-134258122D01*
X141267258Y-134137396D01*
X141322822Y-134003252D01*
X141335274Y-133940649D01*
X146101950Y-133940649D01*
X146101950Y-133940652D01*
X146101950Y-134085848D01*
X146130276Y-134228254D01*
X146185840Y-134362398D01*
X146230152Y-134428715D01*
X146266506Y-134483123D01*
X146266511Y-134483129D01*
X146369170Y-134585788D01*
X146369176Y-134585793D01*
X146489902Y-134666460D01*
X146624046Y-134722024D01*
X146766452Y-134750350D01*
X146766453Y-134750350D01*
X146911647Y-134750350D01*
X146911648Y-134750350D01*
X147054054Y-134722024D01*
X147188198Y-134666460D01*
X147308924Y-134585793D01*
X147411593Y-134483124D01*
X147492260Y-134362398D01*
X147547824Y-134228254D01*
X147576150Y-134085848D01*
X147576150Y-133940652D01*
X147547824Y-133798246D01*
X147492260Y-133664102D01*
X147411593Y-133543376D01*
X147411588Y-133543370D01*
X147308929Y-133440711D01*
X147308923Y-133440706D01*
X147268864Y-133413939D01*
X147188198Y-133360040D01*
X147054054Y-133304476D01*
X146911650Y-133276150D01*
X146911648Y-133276150D01*
X146766452Y-133276150D01*
X146766449Y-133276150D01*
X146624045Y-133304476D01*
X146624040Y-133304478D01*
X146489902Y-133360040D01*
X146369176Y-133440706D01*
X146369170Y-133440711D01*
X146266511Y-133543370D01*
X146266506Y-133543376D01*
X146185840Y-133664102D01*
X146130278Y-133798240D01*
X146130276Y-133798245D01*
X146101950Y-133940649D01*
X141335274Y-133940649D01*
X141340576Y-133913996D01*
X141341395Y-133909880D01*
X141341395Y-133909879D01*
X141351147Y-133860851D01*
X141351146Y-133860851D01*
X141351148Y-133860846D01*
X141351148Y-133715650D01*
X141322822Y-133573244D01*
X141267258Y-133439100D01*
X141186591Y-133318374D01*
X141186586Y-133318368D01*
X141083927Y-133215709D01*
X141083921Y-133215704D01*
X141043862Y-133188937D01*
X140963196Y-133135038D01*
X140829052Y-133079474D01*
X140798933Y-133073483D01*
X140686648Y-133051148D01*
X140686646Y-133051148D01*
X140541450Y-133051148D01*
X140541447Y-133051148D01*
X140399043Y-133079474D01*
X140399038Y-133079476D01*
X140264900Y-133135038D01*
X140144174Y-133215704D01*
X140144168Y-133215709D01*
X140041509Y-133318368D01*
X140041504Y-133318374D01*
X139960838Y-133439100D01*
X139905276Y-133573238D01*
X139905274Y-133573243D01*
X139876948Y-133715647D01*
X118672520Y-133715647D01*
X118583907Y-133649312D01*
X118583903Y-133649310D01*
X118465991Y-133605331D01*
X118409155Y-133562785D01*
X118384345Y-133496264D01*
X118399437Y-133426890D01*
X118420926Y-133398183D01*
X118523906Y-133295204D01*
X118649594Y-133122209D01*
X118746672Y-132931683D01*
X118812749Y-132728316D01*
X118846200Y-132517116D01*
X118846200Y-132303284D01*
X118812749Y-132092084D01*
X118746672Y-131888717D01*
X118649594Y-131698191D01*
X118523906Y-131525196D01*
X118523903Y-131525193D01*
X118523901Y-131525190D01*
X118372709Y-131373998D01*
X118372706Y-131373996D01*
X118372704Y-131373994D01*
X118199709Y-131248306D01*
X118199707Y-131248305D01*
X118198620Y-131247639D01*
X118198291Y-131247275D01*
X118195704Y-131245396D01*
X118196098Y-131244852D01*
X118150983Y-131194996D01*
X118139370Y-131124956D01*
X118167466Y-131059755D01*
X118195830Y-131035178D01*
X118195704Y-131035004D01*
X118197730Y-131033531D01*
X118198620Y-131032761D01*
X118199697Y-131032099D01*
X118199709Y-131032094D01*
X118372704Y-130906406D01*
X118523906Y-130755204D01*
X118649594Y-130582209D01*
X118746672Y-130391683D01*
X118812749Y-130188316D01*
X118846200Y-129977116D01*
X118846200Y-129763284D01*
X118812749Y-129552084D01*
X118746672Y-129348717D01*
X118649594Y-129158191D01*
X118523906Y-128985196D01*
X118523903Y-128985193D01*
X118523901Y-128985190D01*
X118372709Y-128833998D01*
X118372706Y-128833996D01*
X118372704Y-128833994D01*
X118200648Y-128708988D01*
X118199712Y-128708308D01*
X118198620Y-128707639D01*
X118198291Y-128707275D01*
X118195704Y-128705396D01*
X118196098Y-128704852D01*
X118150983Y-128654996D01*
X118139370Y-128584956D01*
X118167466Y-128519755D01*
X118195830Y-128495178D01*
X118195704Y-128495004D01*
X118197730Y-128493531D01*
X118198620Y-128492761D01*
X118199697Y-128492099D01*
X118199709Y-128492094D01*
X118372704Y-128366406D01*
X118463847Y-128275263D01*
X130386950Y-128275263D01*
X130386950Y-128491237D01*
X130395577Y-128545705D01*
X130420735Y-128704553D01*
X130462795Y-128833998D01*
X130487475Y-128909954D01*
X130585525Y-129102387D01*
X130712471Y-129277113D01*
X130712473Y-129277115D01*
X130712475Y-129277118D01*
X130865181Y-129429824D01*
X130865184Y-129429826D01*
X130865187Y-129429829D01*
X131039913Y-129556775D01*
X131232346Y-129654825D01*
X131437749Y-129721565D01*
X131651063Y-129755350D01*
X131651065Y-129755350D01*
X131867035Y-129755350D01*
X131867037Y-129755350D01*
X132080351Y-129721565D01*
X132285754Y-129654825D01*
X132478187Y-129556775D01*
X132652913Y-129429829D01*
X132805629Y-129277113D01*
X132932575Y-129102387D01*
X133030625Y-128909954D01*
X133097365Y-128704551D01*
X133131150Y-128491237D01*
X133131150Y-128275263D01*
X133097365Y-128061949D01*
X133030625Y-127856546D01*
X132932575Y-127664113D01*
X132805629Y-127489387D01*
X132805626Y-127489384D01*
X132805624Y-127489381D01*
X132749993Y-127433750D01*
X140021600Y-127433750D01*
X140021600Y-129731049D01*
X140028109Y-129791596D01*
X140028111Y-129791604D01*
X140079210Y-129928602D01*
X140079212Y-129928607D01*
X140166838Y-130045661D01*
X140283892Y-130133287D01*
X140283894Y-130133288D01*
X140283896Y-130133289D01*
X140332169Y-130151294D01*
X140420895Y-130184388D01*
X140420903Y-130184390D01*
X140481450Y-130190899D01*
X140481455Y-130190899D01*
X140481462Y-130190900D01*
X140481468Y-130190900D01*
X141167960Y-130190900D01*
X141236081Y-130210902D01*
X141282574Y-130264558D01*
X141292678Y-130334832D01*
X141263184Y-130399412D01*
X141237962Y-130421665D01*
X141119815Y-130500608D01*
X141119808Y-130500613D01*
X141008313Y-130612108D01*
X141008308Y-130612115D01*
X140920706Y-130743220D01*
X140860365Y-130888897D01*
X140860363Y-130888902D01*
X140829600Y-131043555D01*
X140829600Y-131201244D01*
X140838962Y-131248308D01*
X140860363Y-131355897D01*
X140920706Y-131501579D01*
X141008311Y-131632689D01*
X141119811Y-131744189D01*
X141250921Y-131831794D01*
X141396603Y-131892137D01*
X141551258Y-131922900D01*
X141551259Y-131922900D01*
X141708941Y-131922900D01*
X141708942Y-131922900D01*
X141863597Y-131892137D01*
X142009279Y-131831794D01*
X142140389Y-131744189D01*
X142251889Y-131632689D01*
X142339494Y-131501579D01*
X142399837Y-131355897D01*
X142430600Y-131201242D01*
X142430600Y-131043558D01*
X142399837Y-130888903D01*
X142339494Y-130743221D01*
X142251889Y-130612111D01*
X142140389Y-130500611D01*
X142022237Y-130421664D01*
X141976710Y-130367188D01*
X141967862Y-130296745D01*
X141998503Y-130232701D01*
X142058905Y-130195390D01*
X142092240Y-130190900D01*
X142778732Y-130190900D01*
X142778738Y-130190900D01*
X142778745Y-130190899D01*
X142778749Y-130190899D01*
X142839296Y-130184390D01*
X142839299Y-130184389D01*
X142839301Y-130184389D01*
X142976304Y-130133289D01*
X142988446Y-130124200D01*
X143056764Y-130073057D01*
X143093361Y-130045661D01*
X143143701Y-129978413D01*
X143200536Y-129935868D01*
X143271351Y-129930802D01*
X143318630Y-129951987D01*
X143327062Y-129958113D01*
X143552650Y-130073056D01*
X143793442Y-130151294D01*
X143807417Y-130153507D01*
X143871566Y-130183914D01*
X143909096Y-130244181D01*
X143908086Y-130315170D01*
X143868856Y-130374344D01*
X143835927Y-130394363D01*
X143790922Y-130413005D01*
X143790921Y-130413005D01*
X143659815Y-130500608D01*
X143659808Y-130500613D01*
X143548313Y-130612108D01*
X143548308Y-130612115D01*
X143460706Y-130743220D01*
X143400365Y-130888897D01*
X143400363Y-130888902D01*
X143369600Y-131043555D01*
X143369600Y-131201244D01*
X143378962Y-131248308D01*
X143400363Y-131355897D01*
X143460706Y-131501579D01*
X143548311Y-131632689D01*
X143659811Y-131744189D01*
X143790921Y-131831794D01*
X143936603Y-131892137D01*
X144091258Y-131922900D01*
X144091259Y-131922900D01*
X144248941Y-131922900D01*
X144248942Y-131922900D01*
X144403597Y-131892137D01*
X144549279Y-131831794D01*
X144680389Y-131744189D01*
X144791889Y-131632689D01*
X144879494Y-131501579D01*
X144939837Y-131355897D01*
X144970600Y-131201242D01*
X144970600Y-131043558D01*
X144939837Y-130888903D01*
X144879494Y-130743221D01*
X144791889Y-130612111D01*
X144680389Y-130500611D01*
X144549279Y-130413006D01*
X144549280Y-130413006D01*
X144549278Y-130413005D01*
X144549274Y-130413003D01*
X144504273Y-130394363D01*
X144448992Y-130349815D01*
X144426572Y-130282451D01*
X144444131Y-130213660D01*
X144496093Y-130165282D01*
X144532778Y-130153508D01*
X144546758Y-130151294D01*
X144787550Y-130073056D01*
X145013138Y-129958113D01*
X145217968Y-129809295D01*
X145396995Y-129630268D01*
X145545813Y-129425438D01*
X145660756Y-129199850D01*
X145738994Y-128959058D01*
X145778600Y-128708992D01*
X145778600Y-128455808D01*
X145738994Y-128205742D01*
X145660756Y-127964950D01*
X145545813Y-127739362D01*
X145396995Y-127534532D01*
X145396992Y-127534529D01*
X145396990Y-127534526D01*
X145217973Y-127355509D01*
X145217970Y-127355507D01*
X145217968Y-127355505D01*
X145017322Y-127209727D01*
X145013141Y-127206689D01*
X145013140Y-127206688D01*
X145013138Y-127206687D01*
X144787550Y-127091744D01*
X144787547Y-127091743D01*
X144787545Y-127091742D01*
X144546763Y-127013507D01*
X144546759Y-127013506D01*
X144546758Y-127013506D01*
X144296692Y-126973900D01*
X144043508Y-126973900D01*
X143793442Y-127013506D01*
X143793436Y-127013507D01*
X143552654Y-127091742D01*
X143552648Y-127091745D01*
X143327059Y-127206688D01*
X143318625Y-127212816D01*
X143251756Y-127236671D01*
X143182605Y-127220587D01*
X143143701Y-127186385D01*
X143093361Y-127119138D01*
X142976307Y-127031512D01*
X142976302Y-127031510D01*
X142839304Y-126980411D01*
X142839296Y-126980409D01*
X142778749Y-126973900D01*
X142778738Y-126973900D01*
X140481462Y-126973900D01*
X140481450Y-126973900D01*
X140420903Y-126980409D01*
X140420895Y-126980411D01*
X140283897Y-127031510D01*
X140283892Y-127031512D01*
X140166838Y-127119138D01*
X140079212Y-127236192D01*
X140079210Y-127236197D01*
X140028111Y-127373195D01*
X140028109Y-127373203D01*
X140021600Y-127433750D01*
X132749993Y-127433750D01*
X132652918Y-127336675D01*
X132652915Y-127336673D01*
X132652913Y-127336671D01*
X132514616Y-127236192D01*
X132478190Y-127209727D01*
X132478189Y-127209726D01*
X132478187Y-127209725D01*
X132285754Y-127111675D01*
X132285753Y-127111674D01*
X132285752Y-127111674D01*
X132080353Y-127044935D01*
X131973694Y-127028042D01*
X131867037Y-127011150D01*
X131651063Y-127011150D01*
X131565737Y-127024664D01*
X131437746Y-127044935D01*
X131232347Y-127111674D01*
X131039909Y-127209727D01*
X130865184Y-127336673D01*
X130865181Y-127336675D01*
X130712475Y-127489381D01*
X130712473Y-127489384D01*
X130585527Y-127664109D01*
X130487474Y-127856547D01*
X130420735Y-128061946D01*
X130420735Y-128061949D01*
X130386950Y-128275263D01*
X118463847Y-128275263D01*
X118523906Y-128215204D01*
X118649594Y-128042209D01*
X118746672Y-127851683D01*
X118812749Y-127648316D01*
X118846200Y-127437116D01*
X118846200Y-127223284D01*
X118812749Y-127012084D01*
X118746672Y-126808717D01*
X118649594Y-126618191D01*
X118523906Y-126445196D01*
X118523903Y-126445193D01*
X118523901Y-126445190D01*
X118372709Y-126293998D01*
X118372706Y-126293996D01*
X118372704Y-126293994D01*
X118303506Y-126243718D01*
X118199706Y-126168303D01*
X118198127Y-126167336D01*
X118197652Y-126166811D01*
X118195704Y-126165396D01*
X118196001Y-126164986D01*
X118150497Y-126114688D01*
X118138891Y-126044646D01*
X118166996Y-125979449D01*
X118195544Y-125954716D01*
X118195442Y-125954576D01*
X118197082Y-125953384D01*
X118198148Y-125952461D01*
X118199454Y-125951660D01*
X118372379Y-125826022D01*
X118523522Y-125674879D01*
X118649163Y-125501950D01*
X118746206Y-125311492D01*
X118746209Y-125311486D01*
X118812259Y-125108204D01*
X118822398Y-125044200D01*
X117918403Y-125044200D01*
X117953625Y-124983193D01*
X117987700Y-124856026D01*
X117987700Y-124724374D01*
X117953625Y-124597207D01*
X117918403Y-124536200D01*
X118822397Y-124536200D01*
X118812259Y-124472195D01*
X118746209Y-124268913D01*
X118746206Y-124268907D01*
X118649163Y-124078449D01*
X118523522Y-123905520D01*
X118372379Y-123754377D01*
X118199449Y-123628735D01*
X118198133Y-123627929D01*
X118197737Y-123627491D01*
X118195442Y-123625824D01*
X118195792Y-123625341D01*
X118150500Y-123575284D01*
X118138890Y-123505243D01*
X118166991Y-123440044D01*
X118195776Y-123415103D01*
X118195704Y-123415004D01*
X118196858Y-123414165D01*
X118198141Y-123413054D01*
X118199692Y-123412102D01*
X118199709Y-123412094D01*
X118372704Y-123286406D01*
X118523906Y-123135204D01*
X118649594Y-122962209D01*
X118746672Y-122771683D01*
X118812749Y-122568316D01*
X118846200Y-122357116D01*
X118846200Y-122143284D01*
X118812749Y-121932084D01*
X118746672Y-121728717D01*
X118649594Y-121538191D01*
X118523906Y-121365196D01*
X118523903Y-121365193D01*
X118523901Y-121365190D01*
X118372709Y-121213998D01*
X118372706Y-121213996D01*
X118372704Y-121213994D01*
X118199709Y-121088306D01*
X118199707Y-121088305D01*
X118198620Y-121087639D01*
X118198291Y-121087275D01*
X118195704Y-121085396D01*
X118196098Y-121084852D01*
X118150983Y-121034996D01*
X118139370Y-120964956D01*
X118167466Y-120899755D01*
X118195830Y-120875178D01*
X118195704Y-120875004D01*
X118197730Y-120873531D01*
X118198620Y-120872761D01*
X118199697Y-120872099D01*
X118199709Y-120872094D01*
X118372704Y-120746406D01*
X118523906Y-120595204D01*
X118649594Y-120422209D01*
X118746672Y-120231683D01*
X118812749Y-120028316D01*
X118826634Y-119940649D01*
X132101950Y-119940649D01*
X132101950Y-120085850D01*
X132130276Y-120228254D01*
X132130278Y-120228259D01*
X132133873Y-120236937D01*
X132185840Y-120362398D01*
X132224748Y-120420627D01*
X132266506Y-120483123D01*
X132266511Y-120483129D01*
X132369170Y-120585788D01*
X132369176Y-120585793D01*
X132489902Y-120666460D01*
X132624046Y-120722024D01*
X132766452Y-120750350D01*
X132766453Y-120750350D01*
X132911647Y-120750350D01*
X132911648Y-120750350D01*
X133054054Y-120722024D01*
X133188198Y-120666460D01*
X133308924Y-120585793D01*
X133411593Y-120483124D01*
X133490507Y-120365020D01*
X133544983Y-120319494D01*
X133615426Y-120310646D01*
X133643479Y-120318612D01*
X133775190Y-120373168D01*
X133917596Y-120401494D01*
X133917597Y-120401494D01*
X134062791Y-120401494D01*
X134062792Y-120401494D01*
X134205198Y-120373168D01*
X134339342Y-120317604D01*
X134460068Y-120236937D01*
X134562737Y-120134268D01*
X134643404Y-120013542D01*
X134698968Y-119879398D01*
X134727294Y-119736992D01*
X134727294Y-119591796D01*
X134698968Y-119449390D01*
X134643404Y-119315246D01*
X134562737Y-119194520D01*
X134562732Y-119194514D01*
X134460073Y-119091855D01*
X134460067Y-119091850D01*
X134410914Y-119059007D01*
X134339342Y-119011184D01*
X134205198Y-118955620D01*
X134186496Y-118951900D01*
X134062794Y-118927294D01*
X134062792Y-118927294D01*
X133917596Y-118927294D01*
X133917593Y-118927294D01*
X133775189Y-118955620D01*
X133775184Y-118955622D01*
X133641046Y-119011184D01*
X133520320Y-119091850D01*
X133520314Y-119091855D01*
X133417653Y-119194516D01*
X133338737Y-119312622D01*
X133284259Y-119358149D01*
X133213816Y-119366996D01*
X133185756Y-119359028D01*
X133054054Y-119304476D01*
X132911650Y-119276150D01*
X132911648Y-119276150D01*
X132766452Y-119276150D01*
X132766449Y-119276150D01*
X132624045Y-119304476D01*
X132624040Y-119304478D01*
X132489902Y-119360040D01*
X132369176Y-119440706D01*
X132369170Y-119440711D01*
X132266511Y-119543370D01*
X132266506Y-119543376D01*
X132185840Y-119664102D01*
X132130278Y-119798240D01*
X132130276Y-119798245D01*
X132101950Y-119940649D01*
X118826634Y-119940649D01*
X118846200Y-119817116D01*
X118846200Y-119603284D01*
X118812749Y-119392084D01*
X118746672Y-119188717D01*
X118649594Y-118998191D01*
X118523906Y-118825196D01*
X118523903Y-118825193D01*
X118523901Y-118825190D01*
X118372709Y-118673998D01*
X118372706Y-118673996D01*
X118372704Y-118673994D01*
X118242481Y-118579382D01*
X118199712Y-118548308D01*
X118198620Y-118547639D01*
X118198291Y-118547275D01*
X118195704Y-118545396D01*
X118196098Y-118544852D01*
X118150983Y-118494996D01*
X118139370Y-118424956D01*
X118167466Y-118359755D01*
X118195830Y-118335178D01*
X118195704Y-118335004D01*
X118197730Y-118333531D01*
X118198620Y-118332761D01*
X118199697Y-118332099D01*
X118199709Y-118332094D01*
X118372704Y-118206406D01*
X118523906Y-118055204D01*
X118649594Y-117882209D01*
X118746672Y-117691683D01*
X118812749Y-117488316D01*
X118846200Y-117277116D01*
X118846200Y-117085808D01*
X152561600Y-117085808D01*
X152561600Y-117338992D01*
X152601206Y-117589058D01*
X152601207Y-117589063D01*
X152676851Y-117821870D01*
X152679444Y-117829850D01*
X152794387Y-118055438D01*
X152794390Y-118055443D01*
X152800513Y-118063871D01*
X152824371Y-118130739D01*
X152808289Y-118199890D01*
X152774086Y-118238798D01*
X152706837Y-118289140D01*
X152619212Y-118406192D01*
X152619210Y-118406197D01*
X152568111Y-118543195D01*
X152568109Y-118543203D01*
X152561600Y-118603750D01*
X152561600Y-120901049D01*
X152568109Y-120961596D01*
X152568111Y-120961604D01*
X152619210Y-121098602D01*
X152619212Y-121098607D01*
X152706838Y-121215661D01*
X152823892Y-121303287D01*
X152823894Y-121303288D01*
X152823896Y-121303289D01*
X152882975Y-121325324D01*
X152960895Y-121354388D01*
X152960903Y-121354390D01*
X153021450Y-121360899D01*
X153021455Y-121360899D01*
X153021462Y-121360900D01*
X153021468Y-121360900D01*
X155318732Y-121360900D01*
X155318738Y-121360900D01*
X155318745Y-121360899D01*
X155318749Y-121360899D01*
X155379296Y-121354390D01*
X155379299Y-121354389D01*
X155379301Y-121354389D01*
X155516304Y-121303289D01*
X155633361Y-121215661D01*
X155720989Y-121098604D01*
X155772089Y-120961601D01*
X155775980Y-120925413D01*
X155778599Y-120901049D01*
X155778600Y-120901032D01*
X155778600Y-120214539D01*
X155798602Y-120146418D01*
X155852258Y-120099925D01*
X155922532Y-120089821D01*
X155987112Y-120119315D01*
X156009365Y-120144538D01*
X156088304Y-120262680D01*
X156088309Y-120262686D01*
X156088311Y-120262689D01*
X156199811Y-120374189D01*
X156330921Y-120461794D01*
X156476603Y-120522137D01*
X156631258Y-120552900D01*
X156631259Y-120552900D01*
X156788941Y-120552900D01*
X156788942Y-120552900D01*
X156943597Y-120522137D01*
X157089279Y-120461794D01*
X157220389Y-120374189D01*
X157331889Y-120262689D01*
X157419494Y-120131579D01*
X157479837Y-119985897D01*
X157510600Y-119831242D01*
X157510600Y-119673558D01*
X157479837Y-119518903D01*
X157419494Y-119373221D01*
X157331889Y-119242111D01*
X157220389Y-119130611D01*
X157089279Y-119043006D01*
X156991387Y-119002458D01*
X156943602Y-118982665D01*
X156943597Y-118982663D01*
X156788944Y-118951900D01*
X156788942Y-118951900D01*
X156631258Y-118951900D01*
X156631255Y-118951900D01*
X156476602Y-118982663D01*
X156476597Y-118982665D01*
X156330920Y-119043006D01*
X156199815Y-119130608D01*
X156199808Y-119130613D01*
X156088313Y-119242108D01*
X156088311Y-119242111D01*
X156010190Y-119359028D01*
X156009365Y-119360262D01*
X155954888Y-119405790D01*
X155884445Y-119414638D01*
X155820401Y-119383997D01*
X155783090Y-119323595D01*
X155778600Y-119290260D01*
X155778600Y-118603767D01*
X155778599Y-118603750D01*
X155772090Y-118543203D01*
X155772088Y-118543195D01*
X155733672Y-118440200D01*
X155720989Y-118406196D01*
X155720988Y-118406194D01*
X155720987Y-118406192D01*
X155633361Y-118289138D01*
X155566114Y-118238798D01*
X155523567Y-118181962D01*
X155518503Y-118111147D01*
X155539690Y-118063865D01*
X155545809Y-118055443D01*
X155545813Y-118055438D01*
X155660756Y-117829850D01*
X155738994Y-117589058D01*
X155741207Y-117575082D01*
X155771614Y-117510933D01*
X155831880Y-117473403D01*
X155902869Y-117474413D01*
X155962043Y-117513642D01*
X155982063Y-117546573D01*
X156000703Y-117591574D01*
X156000705Y-117591578D01*
X156000706Y-117591579D01*
X156088311Y-117722689D01*
X156199811Y-117834189D01*
X156330921Y-117921794D01*
X156476603Y-117982137D01*
X156631258Y-118012900D01*
X156631259Y-118012900D01*
X156788941Y-118012900D01*
X156788942Y-118012900D01*
X156943597Y-117982137D01*
X157089279Y-117921794D01*
X157220389Y-117834189D01*
X157331889Y-117722689D01*
X157419494Y-117591579D01*
X157479837Y-117445897D01*
X157510600Y-117291242D01*
X157510600Y-117133558D01*
X157479837Y-116978903D01*
X157419494Y-116833221D01*
X157331889Y-116702111D01*
X157220389Y-116590611D01*
X157089279Y-116503006D01*
X156943597Y-116442663D01*
X156788944Y-116411900D01*
X156788942Y-116411900D01*
X156631258Y-116411900D01*
X156631255Y-116411900D01*
X156476602Y-116442663D01*
X156476597Y-116442665D01*
X156330920Y-116503006D01*
X156199815Y-116590608D01*
X156199808Y-116590613D01*
X156088313Y-116702108D01*
X156088308Y-116702115D01*
X156000705Y-116833221D01*
X156000705Y-116833222D01*
X155982063Y-116878227D01*
X155937514Y-116933507D01*
X155870150Y-116955927D01*
X155801359Y-116938368D01*
X155752982Y-116886405D01*
X155741208Y-116849721D01*
X155738994Y-116835742D01*
X155660756Y-116594950D01*
X155545813Y-116369362D01*
X155396995Y-116164532D01*
X155396992Y-116164529D01*
X155396990Y-116164526D01*
X155217973Y-115985509D01*
X155217970Y-115985507D01*
X155217968Y-115985505D01*
X155013138Y-115836687D01*
X154787550Y-115721744D01*
X154787547Y-115721743D01*
X154787545Y-115721742D01*
X154546763Y-115643507D01*
X154546759Y-115643506D01*
X154546758Y-115643506D01*
X154296692Y-115603900D01*
X154043508Y-115603900D01*
X153793442Y-115643506D01*
X153793436Y-115643507D01*
X153552654Y-115721742D01*
X153552648Y-115721745D01*
X153327058Y-115836689D01*
X153122229Y-115985507D01*
X153122226Y-115985509D01*
X152943209Y-116164526D01*
X152943207Y-116164529D01*
X152794389Y-116369358D01*
X152679445Y-116594948D01*
X152679442Y-116594954D01*
X152601207Y-116835736D01*
X152601206Y-116835741D01*
X152601206Y-116835742D01*
X152561600Y-117085808D01*
X118846200Y-117085808D01*
X118846200Y-117063284D01*
X118812749Y-116852084D01*
X118746672Y-116648717D01*
X118649594Y-116458191D01*
X118523906Y-116285196D01*
X118523903Y-116285193D01*
X118523901Y-116285190D01*
X118372709Y-116133998D01*
X118372706Y-116133996D01*
X118372704Y-116133994D01*
X118199709Y-116008306D01*
X118199707Y-116008305D01*
X118198620Y-116007639D01*
X118198291Y-116007275D01*
X118195704Y-116005396D01*
X118196098Y-116004852D01*
X118150983Y-115954996D01*
X118139370Y-115884956D01*
X118167466Y-115819755D01*
X118195830Y-115795178D01*
X118195704Y-115795004D01*
X118197730Y-115793531D01*
X118198620Y-115792761D01*
X118199697Y-115792099D01*
X118199709Y-115792094D01*
X118372704Y-115666406D01*
X118523906Y-115515204D01*
X118649594Y-115342209D01*
X118746672Y-115151683D01*
X118812749Y-114948316D01*
X118846200Y-114737116D01*
X118846200Y-114523284D01*
X118812749Y-114312084D01*
X118746672Y-114108717D01*
X118661037Y-113940649D01*
X151601950Y-113940649D01*
X151601950Y-114085850D01*
X151613250Y-114142658D01*
X151630276Y-114228254D01*
X151685840Y-114362398D01*
X151739739Y-114443064D01*
X151766506Y-114483123D01*
X151766511Y-114483129D01*
X151869170Y-114585788D01*
X151869176Y-114585793D01*
X151989902Y-114666460D01*
X152124046Y-114722024D01*
X152266452Y-114750350D01*
X152266453Y-114750350D01*
X152411647Y-114750350D01*
X152411648Y-114750350D01*
X152554054Y-114722024D01*
X152688198Y-114666460D01*
X152808924Y-114585793D01*
X152911593Y-114483124D01*
X152992260Y-114362398D01*
X153047824Y-114228254D01*
X153076150Y-114085848D01*
X153076150Y-113940652D01*
X153047824Y-113798246D01*
X152992260Y-113664102D01*
X152911593Y-113543376D01*
X152911588Y-113543370D01*
X152808929Y-113440711D01*
X152808923Y-113440706D01*
X152734383Y-113390900D01*
X152688198Y-113360040D01*
X152554054Y-113304476D01*
X152411650Y-113276150D01*
X152411648Y-113276150D01*
X152266452Y-113276150D01*
X152266449Y-113276150D01*
X152124045Y-113304476D01*
X152124040Y-113304478D01*
X151989902Y-113360040D01*
X151869176Y-113440706D01*
X151869170Y-113440711D01*
X151766511Y-113543370D01*
X151766506Y-113543376D01*
X151685840Y-113664102D01*
X151630278Y-113798240D01*
X151630276Y-113798245D01*
X151601950Y-113940649D01*
X118661037Y-113940649D01*
X118649594Y-113918191D01*
X118523906Y-113745196D01*
X118523903Y-113745193D01*
X118523901Y-113745190D01*
X118372709Y-113593998D01*
X118372706Y-113593996D01*
X118372704Y-113593994D01*
X118199709Y-113468306D01*
X118199707Y-113468305D01*
X118198620Y-113467639D01*
X118198291Y-113467275D01*
X118195704Y-113465396D01*
X118196098Y-113464852D01*
X118150983Y-113414996D01*
X118139370Y-113344956D01*
X118167466Y-113279755D01*
X118195830Y-113255178D01*
X118195704Y-113255004D01*
X118197730Y-113253531D01*
X118198620Y-113252761D01*
X118199697Y-113252099D01*
X118199709Y-113252094D01*
X118372704Y-113126406D01*
X118523906Y-112975204D01*
X118649594Y-112802209D01*
X118746672Y-112611683D01*
X118812749Y-112408316D01*
X118846200Y-112197116D01*
X118846200Y-111983284D01*
X118812749Y-111772084D01*
X118810018Y-111763678D01*
X126261600Y-111763678D01*
X126261600Y-112001122D01*
X126294793Y-112210694D01*
X126298745Y-112235646D01*
X126354519Y-112407300D01*
X126372118Y-112461463D01*
X126479915Y-112673027D01*
X126619480Y-112865122D01*
X126619482Y-112865124D01*
X126619484Y-112865127D01*
X126787372Y-113033015D01*
X126787375Y-113033017D01*
X126787378Y-113033020D01*
X126979473Y-113172585D01*
X127191037Y-113280382D01*
X127416859Y-113353756D01*
X127651378Y-113390900D01*
X127651381Y-113390900D01*
X127888819Y-113390900D01*
X127888822Y-113390900D01*
X128123341Y-113353756D01*
X128349163Y-113280382D01*
X128560727Y-113172585D01*
X128752822Y-113033020D01*
X128920720Y-112865122D01*
X129060285Y-112673027D01*
X129168082Y-112461463D01*
X129241456Y-112235641D01*
X129278600Y-112001122D01*
X129278600Y-111763678D01*
X129241456Y-111529159D01*
X129168082Y-111303337D01*
X129060285Y-111091773D01*
X128920720Y-110899678D01*
X128920717Y-110899675D01*
X128920715Y-110899672D01*
X128752827Y-110731784D01*
X128752824Y-110731782D01*
X128752822Y-110731780D01*
X128560727Y-110592215D01*
X128349163Y-110484418D01*
X128349160Y-110484417D01*
X128349158Y-110484416D01*
X128123346Y-110411045D01*
X128123342Y-110411044D01*
X128123341Y-110411044D01*
X127888822Y-110373900D01*
X127651378Y-110373900D01*
X127416859Y-110411044D01*
X127416853Y-110411045D01*
X127191041Y-110484416D01*
X127191035Y-110484419D01*
X126979469Y-110592217D01*
X126787375Y-110731782D01*
X126787372Y-110731784D01*
X126619484Y-110899672D01*
X126619482Y-110899675D01*
X126479917Y-111091769D01*
X126372119Y-111303335D01*
X126372116Y-111303341D01*
X126298745Y-111529153D01*
X126298744Y-111529158D01*
X126298744Y-111529159D01*
X126261600Y-111763678D01*
X118810018Y-111763678D01*
X118746672Y-111568717D01*
X118649594Y-111378191D01*
X118523906Y-111205196D01*
X118523903Y-111205193D01*
X118523901Y-111205190D01*
X118372709Y-111053998D01*
X118372706Y-111053996D01*
X118372704Y-111053994D01*
X118218398Y-110941884D01*
X118199712Y-110928308D01*
X118198620Y-110927639D01*
X118198291Y-110927275D01*
X118195704Y-110925396D01*
X118196098Y-110924852D01*
X118150983Y-110874996D01*
X118139370Y-110804956D01*
X118167466Y-110739755D01*
X118195830Y-110715178D01*
X118195704Y-110715004D01*
X118197730Y-110713531D01*
X118198620Y-110712761D01*
X118199697Y-110712099D01*
X118199709Y-110712094D01*
X118372704Y-110586406D01*
X118523906Y-110435204D01*
X118649594Y-110262209D01*
X118746672Y-110071683D01*
X118812749Y-109868316D01*
X118846200Y-109657116D01*
X118846200Y-109443284D01*
X118812749Y-109232084D01*
X118746672Y-109028717D01*
X118649594Y-108838191D01*
X118523906Y-108665196D01*
X118523904Y-108665193D01*
X118489929Y-108631218D01*
X123009750Y-108631218D01*
X123009750Y-108829881D01*
X123012175Y-108842070D01*
X123048506Y-109024719D01*
X123124529Y-109208254D01*
X123234897Y-109373431D01*
X123375369Y-109513903D01*
X123540546Y-109624271D01*
X123724081Y-109700294D01*
X123918921Y-109739050D01*
X123918922Y-109739050D01*
X124117578Y-109739050D01*
X124117579Y-109739050D01*
X124312419Y-109700294D01*
X124495954Y-109624271D01*
X124661131Y-109513903D01*
X124801603Y-109373431D01*
X124911971Y-109208254D01*
X124987994Y-109024719D01*
X125026750Y-108829879D01*
X125026750Y-108631221D01*
X124987994Y-108436381D01*
X124911971Y-108252846D01*
X124801603Y-108087669D01*
X124661131Y-107947197D01*
X124495954Y-107836829D01*
X124312419Y-107760806D01*
X124308885Y-107760103D01*
X124117581Y-107722050D01*
X124117579Y-107722050D01*
X123918921Y-107722050D01*
X123918918Y-107722050D01*
X123724080Y-107760806D01*
X123724075Y-107760808D01*
X123540546Y-107836829D01*
X123375373Y-107947194D01*
X123375366Y-107947199D01*
X123234899Y-108087666D01*
X123234894Y-108087673D01*
X123124529Y-108252846D01*
X123048508Y-108436375D01*
X123048506Y-108436380D01*
X123009750Y-108631218D01*
X118489929Y-108631218D01*
X118372709Y-108513998D01*
X118372706Y-108513996D01*
X118372704Y-108513994D01*
X118199709Y-108388306D01*
X118199707Y-108388305D01*
X118198620Y-108387639D01*
X118198291Y-108387275D01*
X118195704Y-108385396D01*
X118196098Y-108384852D01*
X118150983Y-108334996D01*
X118139370Y-108264956D01*
X118167466Y-108199755D01*
X118195830Y-108175178D01*
X118195704Y-108175004D01*
X118197730Y-108173531D01*
X118198620Y-108172761D01*
X118199697Y-108172099D01*
X118199709Y-108172094D01*
X118372704Y-108046406D01*
X118523906Y-107895204D01*
X118649594Y-107722209D01*
X118746672Y-107531683D01*
X118812749Y-107328316D01*
X118835754Y-107183068D01*
X127561600Y-107183068D01*
X127561600Y-107381731D01*
X127579675Y-107472598D01*
X127600356Y-107576569D01*
X127676379Y-107760104D01*
X127786747Y-107925281D01*
X127927219Y-108065753D01*
X128092396Y-108176121D01*
X128275931Y-108252144D01*
X128470771Y-108290900D01*
X128470772Y-108290900D01*
X128669428Y-108290900D01*
X128669429Y-108290900D01*
X128864269Y-108252144D01*
X129047804Y-108176121D01*
X129212981Y-108065753D01*
X129353453Y-107925281D01*
X129463821Y-107760104D01*
X129539844Y-107576569D01*
X129578600Y-107381729D01*
X129578600Y-107183071D01*
X129539844Y-106988231D01*
X129463821Y-106804696D01*
X129353453Y-106639519D01*
X129212981Y-106499047D01*
X129047804Y-106388679D01*
X128864269Y-106312656D01*
X128811683Y-106302196D01*
X128669431Y-106273900D01*
X128669429Y-106273900D01*
X128470771Y-106273900D01*
X128470768Y-106273900D01*
X128275930Y-106312656D01*
X128275925Y-106312658D01*
X128092396Y-106388679D01*
X127927223Y-106499044D01*
X127927216Y-106499049D01*
X127786749Y-106639516D01*
X127786744Y-106639523D01*
X127676379Y-106804696D01*
X127600358Y-106988225D01*
X127600356Y-106988230D01*
X127561600Y-107183068D01*
X118835754Y-107183068D01*
X118846200Y-107117116D01*
X118846200Y-106903284D01*
X118812749Y-106692084D01*
X118746672Y-106488717D01*
X118649594Y-106298191D01*
X118523906Y-106125196D01*
X118523903Y-106125193D01*
X118523901Y-106125190D01*
X118372709Y-105973998D01*
X118372706Y-105973996D01*
X118372704Y-105973994D01*
X118303506Y-105923718D01*
X118199706Y-105848303D01*
X118198127Y-105847336D01*
X118197652Y-105846811D01*
X118195704Y-105845396D01*
X118196001Y-105844986D01*
X118150497Y-105794688D01*
X118138891Y-105724646D01*
X118166996Y-105659449D01*
X118195544Y-105634716D01*
X118195442Y-105634576D01*
X118197082Y-105633384D01*
X118198148Y-105632461D01*
X118199454Y-105631660D01*
X118372379Y-105506022D01*
X118523522Y-105354879D01*
X118558093Y-105307296D01*
X134807600Y-105307296D01*
X134807600Y-105457503D01*
X134817328Y-105506406D01*
X134836903Y-105604813D01*
X134894382Y-105743579D01*
X134977828Y-105868465D01*
X135084035Y-105974672D01*
X135208921Y-106058118D01*
X135347687Y-106115597D01*
X135495000Y-106144900D01*
X135645200Y-106144900D01*
X135792513Y-106115597D01*
X135931279Y-106058118D01*
X136056165Y-105974672D01*
X136162372Y-105868465D01*
X136245818Y-105743579D01*
X136303297Y-105604813D01*
X136332600Y-105457500D01*
X136332600Y-105307300D01*
X136303297Y-105159987D01*
X136245818Y-105021221D01*
X136162372Y-104896335D01*
X136056165Y-104790128D01*
X135931279Y-104706682D01*
X135792514Y-104649203D01*
X135645203Y-104619900D01*
X135645200Y-104619900D01*
X135495000Y-104619900D01*
X135494996Y-104619900D01*
X135347685Y-104649203D01*
X135347684Y-104649204D01*
X135208919Y-104706683D01*
X135084039Y-104790125D01*
X135084032Y-104790130D01*
X134977830Y-104896332D01*
X134977825Y-104896339D01*
X134894383Y-105021219D01*
X134836904Y-105159984D01*
X134836903Y-105159985D01*
X134807600Y-105307296D01*
X118558093Y-105307296D01*
X118616397Y-105227049D01*
X118616397Y-105227048D01*
X118649163Y-105181951D01*
X118746206Y-104991492D01*
X118746209Y-104991486D01*
X118812259Y-104788204D01*
X118822398Y-104724200D01*
X117918403Y-104724200D01*
X117953625Y-104663193D01*
X117987700Y-104536026D01*
X117987700Y-104404374D01*
X117953625Y-104277207D01*
X117918403Y-104216200D01*
X118822397Y-104216200D01*
X118812259Y-104152195D01*
X118746209Y-103948913D01*
X118746206Y-103948907D01*
X118649163Y-103758449D01*
X118523522Y-103585520D01*
X118372379Y-103434377D01*
X118199449Y-103308735D01*
X118198133Y-103307929D01*
X118197737Y-103307491D01*
X118195442Y-103305824D01*
X118195792Y-103305341D01*
X118150500Y-103255284D01*
X118138890Y-103185243D01*
X118166991Y-103120044D01*
X118195776Y-103095103D01*
X118195704Y-103095004D01*
X118196858Y-103094165D01*
X118198141Y-103093054D01*
X118199692Y-103092102D01*
X118199709Y-103092094D01*
X118372704Y-102966406D01*
X118523906Y-102815204D01*
X118649594Y-102642209D01*
X118746672Y-102451683D01*
X118812749Y-102248316D01*
X118846200Y-102037116D01*
X118846200Y-101823284D01*
X118812749Y-101612084D01*
X118746672Y-101408717D01*
X118694995Y-101307296D01*
X135430400Y-101307296D01*
X135430400Y-101457503D01*
X135458907Y-101600812D01*
X135459703Y-101604813D01*
X135517182Y-101743579D01*
X135600628Y-101868465D01*
X135706835Y-101974672D01*
X135831721Y-102058118D01*
X135970487Y-102115597D01*
X136117800Y-102144900D01*
X136268000Y-102144900D01*
X136415313Y-102115597D01*
X136554079Y-102058118D01*
X136678965Y-101974672D01*
X136785172Y-101868465D01*
X136868618Y-101743579D01*
X136926097Y-101604813D01*
X136955400Y-101457500D01*
X136955400Y-101307300D01*
X136926097Y-101159987D01*
X136868618Y-101021221D01*
X136785172Y-100896335D01*
X136678965Y-100790128D01*
X136554079Y-100706682D01*
X136415314Y-100649203D01*
X136268003Y-100619900D01*
X136268000Y-100619900D01*
X136117800Y-100619900D01*
X136117796Y-100619900D01*
X135970485Y-100649203D01*
X135970484Y-100649204D01*
X135831719Y-100706683D01*
X135706839Y-100790125D01*
X135706832Y-100790130D01*
X135600630Y-100896332D01*
X135600625Y-100896339D01*
X135521581Y-101014638D01*
X135517182Y-101021221D01*
X135507251Y-101045196D01*
X135459704Y-101159984D01*
X135459703Y-101159985D01*
X135430400Y-101307296D01*
X118694995Y-101307296D01*
X118649594Y-101218191D01*
X118523906Y-101045196D01*
X118523903Y-101045193D01*
X118523901Y-101045190D01*
X118372709Y-100893998D01*
X118372706Y-100893996D01*
X118372704Y-100893994D01*
X118229747Y-100790130D01*
X118199712Y-100768308D01*
X118198620Y-100767639D01*
X118198291Y-100767275D01*
X118195704Y-100765396D01*
X118196098Y-100764852D01*
X118150983Y-100714996D01*
X118139370Y-100644956D01*
X118167466Y-100579755D01*
X118195830Y-100555178D01*
X118195704Y-100555004D01*
X118197730Y-100553531D01*
X118198620Y-100552761D01*
X118199697Y-100552099D01*
X118199709Y-100552094D01*
X118372704Y-100426406D01*
X118523906Y-100275204D01*
X118649594Y-100102209D01*
X118746672Y-99911683D01*
X118812749Y-99708316D01*
X118838822Y-99543696D01*
X134517900Y-99543696D01*
X134517900Y-99693903D01*
X134547203Y-99841213D01*
X134604682Y-99979979D01*
X134688128Y-100104865D01*
X134794335Y-100211072D01*
X134919221Y-100294518D01*
X135057987Y-100351997D01*
X135205300Y-100381300D01*
X135355500Y-100381300D01*
X135502813Y-100351997D01*
X135641579Y-100294518D01*
X135766465Y-100211072D01*
X135872672Y-100104865D01*
X135956118Y-99979979D01*
X136013597Y-99841213D01*
X136042900Y-99693900D01*
X136042900Y-99543700D01*
X136013597Y-99396387D01*
X135956118Y-99257621D01*
X135872672Y-99132735D01*
X135766465Y-99026528D01*
X135641579Y-98943082D01*
X135502814Y-98885603D01*
X135355503Y-98856300D01*
X135355500Y-98856300D01*
X135205300Y-98856300D01*
X135205296Y-98856300D01*
X135057985Y-98885603D01*
X135057984Y-98885604D01*
X134919219Y-98943083D01*
X134794339Y-99026525D01*
X134794332Y-99026530D01*
X134688130Y-99132732D01*
X134688125Y-99132739D01*
X134604683Y-99257619D01*
X134547204Y-99396384D01*
X134547203Y-99396385D01*
X134517900Y-99543696D01*
X118838822Y-99543696D01*
X118846200Y-99497116D01*
X118846200Y-99283284D01*
X118812749Y-99072084D01*
X118746672Y-98868717D01*
X118649594Y-98678191D01*
X118523906Y-98505196D01*
X118523903Y-98505193D01*
X118523901Y-98505190D01*
X118416857Y-98398146D01*
X125176550Y-98398146D01*
X125176550Y-98548353D01*
X125203893Y-98685811D01*
X125205853Y-98695663D01*
X125263332Y-98834429D01*
X125346778Y-98959315D01*
X125452985Y-99065522D01*
X125577871Y-99148968D01*
X125716637Y-99206447D01*
X125863950Y-99235750D01*
X126014150Y-99235750D01*
X126161463Y-99206447D01*
X126300229Y-99148968D01*
X126425115Y-99065522D01*
X126531322Y-98959315D01*
X126614768Y-98834429D01*
X126672247Y-98695663D01*
X126701550Y-98548350D01*
X126701550Y-98398150D01*
X126672247Y-98250837D01*
X126614768Y-98112071D01*
X126531322Y-97987185D01*
X126425115Y-97880978D01*
X126300229Y-97797532D01*
X126161464Y-97740053D01*
X126014153Y-97710750D01*
X126014150Y-97710750D01*
X125863950Y-97710750D01*
X125863946Y-97710750D01*
X125716635Y-97740053D01*
X125716634Y-97740054D01*
X125577869Y-97797533D01*
X125452989Y-97880975D01*
X125452982Y-97880980D01*
X125346780Y-97987182D01*
X125346775Y-97987189D01*
X125263333Y-98112069D01*
X125205854Y-98250834D01*
X125205853Y-98250835D01*
X125176550Y-98398146D01*
X118416857Y-98398146D01*
X118372709Y-98353998D01*
X118372706Y-98353996D01*
X118372704Y-98353994D01*
X118199709Y-98228306D01*
X118199707Y-98228305D01*
X118198620Y-98227639D01*
X118198291Y-98227275D01*
X118195704Y-98225396D01*
X118196098Y-98224852D01*
X118150983Y-98174996D01*
X118139370Y-98104956D01*
X118167466Y-98039755D01*
X118195830Y-98015178D01*
X118195704Y-98015004D01*
X118197730Y-98013531D01*
X118198620Y-98012761D01*
X118199697Y-98012099D01*
X118199709Y-98012094D01*
X118372704Y-97886406D01*
X118523906Y-97735204D01*
X118649594Y-97562209D01*
X118746672Y-97371683D01*
X118812749Y-97168316D01*
X118846200Y-96957116D01*
X118846200Y-96743284D01*
X118812749Y-96532084D01*
X118746672Y-96328717D01*
X118649594Y-96138191D01*
X118523906Y-95965196D01*
X118523903Y-95965193D01*
X118523901Y-95965190D01*
X118372709Y-95813998D01*
X118372706Y-95813996D01*
X118372704Y-95813994D01*
X118204481Y-95691773D01*
X118199712Y-95688308D01*
X118198620Y-95687639D01*
X118198291Y-95687275D01*
X118195704Y-95685396D01*
X118196098Y-95684852D01*
X118150983Y-95634996D01*
X118139370Y-95564956D01*
X118167466Y-95499755D01*
X118195830Y-95475178D01*
X118195704Y-95475004D01*
X118197730Y-95473531D01*
X118198620Y-95472761D01*
X118199697Y-95472099D01*
X118199709Y-95472094D01*
X118372704Y-95346406D01*
X118523906Y-95195204D01*
X118649594Y-95022209D01*
X118746672Y-94831683D01*
X118812749Y-94628316D01*
X118846200Y-94417116D01*
X118846200Y-94203284D01*
X118812749Y-93992084D01*
X118746672Y-93788717D01*
X118649594Y-93598191D01*
X118523906Y-93425196D01*
X118523903Y-93425193D01*
X118523901Y-93425190D01*
X118372709Y-93273998D01*
X118372706Y-93273996D01*
X118372704Y-93273994D01*
X118218398Y-93161884D01*
X118199712Y-93148308D01*
X118198620Y-93147639D01*
X118198291Y-93147275D01*
X118195704Y-93145396D01*
X118196098Y-93144852D01*
X118150983Y-93094996D01*
X118139370Y-93024956D01*
X118167466Y-92959755D01*
X118195830Y-92935178D01*
X118195704Y-92935004D01*
X118197730Y-92933531D01*
X118198620Y-92932761D01*
X118199697Y-92932099D01*
X118199709Y-92932094D01*
X118372704Y-92806406D01*
X118523906Y-92655204D01*
X118649594Y-92482209D01*
X118746672Y-92291683D01*
X118812749Y-92088316D01*
X118846200Y-91877116D01*
X118846200Y-91663284D01*
X118812749Y-91452084D01*
X118746672Y-91248717D01*
X118649594Y-91058191D01*
X118523906Y-90885196D01*
X118523903Y-90885193D01*
X118523901Y-90885190D01*
X118372709Y-90733998D01*
X118372706Y-90733996D01*
X118372704Y-90733994D01*
X118209743Y-90615596D01*
X118199712Y-90608308D01*
X118198620Y-90607639D01*
X118198291Y-90607275D01*
X118195704Y-90605396D01*
X118196098Y-90604852D01*
X118150983Y-90554996D01*
X118139370Y-90484956D01*
X118167466Y-90419755D01*
X118195830Y-90395178D01*
X118195704Y-90395004D01*
X118197730Y-90393531D01*
X118198620Y-90392761D01*
X118199697Y-90392099D01*
X118199709Y-90392094D01*
X118372704Y-90266406D01*
X118523906Y-90115204D01*
X118649594Y-89942209D01*
X118718336Y-89807296D01*
X131607600Y-89807296D01*
X131607600Y-89957503D01*
X131636903Y-90104813D01*
X131694382Y-90243579D01*
X131777828Y-90368465D01*
X131884035Y-90474672D01*
X132008921Y-90558118D01*
X132147687Y-90615597D01*
X132295000Y-90644900D01*
X132445200Y-90644900D01*
X132592513Y-90615597D01*
X132731279Y-90558118D01*
X132856165Y-90474672D01*
X132962372Y-90368465D01*
X133045818Y-90243579D01*
X133060847Y-90207296D01*
X134607600Y-90207296D01*
X134607600Y-90357503D01*
X134635985Y-90500200D01*
X134636903Y-90504813D01*
X134694382Y-90643579D01*
X134777828Y-90768465D01*
X134884035Y-90874672D01*
X135008921Y-90958118D01*
X135147687Y-91015597D01*
X135295000Y-91044900D01*
X135445200Y-91044900D01*
X135592513Y-91015597D01*
X135731279Y-90958118D01*
X135856165Y-90874672D01*
X135962372Y-90768465D01*
X136045818Y-90643579D01*
X136103297Y-90504813D01*
X136132600Y-90357500D01*
X136132600Y-90207300D01*
X136103297Y-90059987D01*
X136045818Y-89921221D01*
X135962372Y-89796335D01*
X135856165Y-89690128D01*
X135731279Y-89606682D01*
X135592514Y-89549203D01*
X135445203Y-89519900D01*
X135445200Y-89519900D01*
X135295000Y-89519900D01*
X135294996Y-89519900D01*
X135147685Y-89549203D01*
X135147684Y-89549204D01*
X135008919Y-89606683D01*
X134884039Y-89690125D01*
X134884032Y-89690130D01*
X134777830Y-89796332D01*
X134777825Y-89796339D01*
X134715061Y-89890273D01*
X134694382Y-89921221D01*
X134670575Y-89978695D01*
X134636904Y-90059984D01*
X134636903Y-90059985D01*
X134607600Y-90207296D01*
X133060847Y-90207296D01*
X133098991Y-90115209D01*
X133103293Y-90104824D01*
X133103296Y-90104815D01*
X133103297Y-90104813D01*
X133132600Y-89957500D01*
X133132600Y-89807300D01*
X133103297Y-89659987D01*
X133045818Y-89521221D01*
X132962372Y-89396335D01*
X132856165Y-89290128D01*
X132731279Y-89206682D01*
X132592514Y-89149203D01*
X132445203Y-89119900D01*
X132445200Y-89119900D01*
X132295000Y-89119900D01*
X132294996Y-89119900D01*
X132147685Y-89149203D01*
X132147684Y-89149204D01*
X132008919Y-89206683D01*
X131884039Y-89290125D01*
X131884032Y-89290130D01*
X131777830Y-89396332D01*
X131777825Y-89396339D01*
X131695265Y-89519900D01*
X131694382Y-89521221D01*
X131682791Y-89549204D01*
X131636904Y-89659984D01*
X131636903Y-89659985D01*
X131607600Y-89807296D01*
X118718336Y-89807296D01*
X118746672Y-89751683D01*
X118812749Y-89548316D01*
X118846200Y-89337116D01*
X118846200Y-89123284D01*
X118812749Y-88912084D01*
X118746672Y-88708717D01*
X118649594Y-88518191D01*
X118523906Y-88345196D01*
X118523903Y-88345193D01*
X118523901Y-88345190D01*
X118372709Y-88193998D01*
X118372706Y-88193996D01*
X118372704Y-88193994D01*
X118199709Y-88068306D01*
X118199401Y-88068149D01*
X134591350Y-88068149D01*
X134591350Y-88213350D01*
X134596205Y-88237756D01*
X134619676Y-88355754D01*
X134675240Y-88489898D01*
X134715684Y-88550426D01*
X134755906Y-88610623D01*
X134755911Y-88610629D01*
X134858570Y-88713288D01*
X134858576Y-88713293D01*
X134979302Y-88793960D01*
X135113446Y-88849524D01*
X135255852Y-88877850D01*
X135255853Y-88877850D01*
X135401047Y-88877850D01*
X135401048Y-88877850D01*
X135543454Y-88849524D01*
X135677598Y-88793960D01*
X135798324Y-88713293D01*
X135900993Y-88610624D01*
X135981660Y-88489898D01*
X136037224Y-88355754D01*
X136065550Y-88213348D01*
X136065550Y-88068152D01*
X136037224Y-87925746D01*
X135981660Y-87791602D01*
X135900993Y-87670876D01*
X135900988Y-87670870D01*
X135798329Y-87568211D01*
X135798323Y-87568206D01*
X135734440Y-87525521D01*
X135677598Y-87487540D01*
X135543454Y-87431976D01*
X135401050Y-87403650D01*
X135401048Y-87403650D01*
X135255852Y-87403650D01*
X135255849Y-87403650D01*
X135113445Y-87431976D01*
X135113440Y-87431978D01*
X134979302Y-87487540D01*
X134858576Y-87568206D01*
X134858570Y-87568211D01*
X134755911Y-87670870D01*
X134755906Y-87670876D01*
X134675240Y-87791602D01*
X134619678Y-87925740D01*
X134619676Y-87925745D01*
X134591350Y-88068149D01*
X118199401Y-88068149D01*
X118196815Y-88066831D01*
X118190215Y-88062067D01*
X118171249Y-88037626D01*
X118150497Y-88014688D01*
X118149695Y-88009851D01*
X118146690Y-88005978D01*
X118143948Y-87975170D01*
X118138891Y-87944646D01*
X118140832Y-87940142D01*
X118140398Y-87935261D01*
X118154748Y-87907861D01*
X118166996Y-87879449D01*
X118171814Y-87875274D01*
X118173337Y-87872368D01*
X118178672Y-87869333D01*
X118195544Y-87854716D01*
X118195442Y-87854576D01*
X118197082Y-87853384D01*
X118198148Y-87852461D01*
X118199454Y-87851660D01*
X118372379Y-87726022D01*
X118523522Y-87574879D01*
X118649163Y-87401950D01*
X118746206Y-87211492D01*
X118746209Y-87211486D01*
X118812259Y-87008204D01*
X118822398Y-86944200D01*
X117918403Y-86944200D01*
X117953625Y-86883193D01*
X117987700Y-86756026D01*
X117987700Y-86624374D01*
X117953625Y-86497207D01*
X117918403Y-86436200D01*
X118822397Y-86436200D01*
X118812259Y-86372195D01*
X118746209Y-86168913D01*
X118746206Y-86168907D01*
X118649163Y-85978449D01*
X118523522Y-85805520D01*
X118372379Y-85654377D01*
X118199450Y-85528736D01*
X118008992Y-85431693D01*
X118008986Y-85431690D01*
X117805704Y-85365640D01*
X117741700Y-85355502D01*
X117741700Y-86259497D01*
X117680693Y-86224275D01*
X117553526Y-86190200D01*
X117421874Y-86190200D01*
X117294707Y-86224275D01*
X117233700Y-86259497D01*
X117233700Y-85355502D01*
X117169695Y-85365640D01*
X116966413Y-85431690D01*
X116966407Y-85431693D01*
X116775949Y-85528736D01*
X116603020Y-85654377D01*
X116451877Y-85805520D01*
X116326232Y-85978455D01*
X116325424Y-85979774D01*
X116324986Y-85980169D01*
X116323324Y-85982458D01*
X116322843Y-85982108D01*
X116272775Y-86027403D01*
X116202733Y-86039007D01*
X116137536Y-86010902D01*
X116112601Y-85982124D01*
X116112504Y-85982196D01*
X116111675Y-85981055D01*
X116110559Y-85979767D01*
X116109599Y-85978201D01*
X116109594Y-85978191D01*
X115983906Y-85805196D01*
X115983903Y-85805193D01*
X115983901Y-85805190D01*
X115832709Y-85653998D01*
X115832706Y-85653996D01*
X115832704Y-85653994D01*
X115659709Y-85528306D01*
X115469183Y-85431228D01*
X115469180Y-85431227D01*
X115469178Y-85431226D01*
X115265820Y-85365152D01*
X115265823Y-85365152D01*
X115204895Y-85355502D01*
X115054616Y-85331700D01*
X114840784Y-85331700D01*
X114629584Y-85365151D01*
X114629578Y-85365152D01*
X114426221Y-85431226D01*
X114426215Y-85431229D01*
X114235687Y-85528308D01*
X114062693Y-85653996D01*
X114062690Y-85653998D01*
X113911498Y-85805190D01*
X113911496Y-85805193D01*
X113785808Y-85978187D01*
X113688729Y-86168715D01*
X113688726Y-86168721D01*
X113622652Y-86372078D01*
X113622651Y-86372083D01*
X113622651Y-86372084D01*
X113589200Y-86583284D01*
X113160537Y-86583284D01*
X113184313Y-81615124D01*
X113807200Y-81615124D01*
X113807200Y-81896875D01*
X113838745Y-82176855D01*
X113901441Y-82451542D01*
X113994489Y-82717456D01*
X113994500Y-82717483D01*
X114116743Y-82971324D01*
X114266642Y-83209885D01*
X114442304Y-83430160D01*
X114641539Y-83629395D01*
X114861814Y-83805057D01*
X115100375Y-83954956D01*
X115100378Y-83954957D01*
X115100379Y-83954958D01*
X115354226Y-84077204D01*
X115354242Y-84077209D01*
X115354243Y-84077210D01*
X115620157Y-84170258D01*
X115620160Y-84170258D01*
X115620164Y-84170260D01*
X115894844Y-84232954D01*
X115894845Y-84232954D01*
X115894848Y-84232955D01*
X116059971Y-84251559D01*
X116174824Y-84264500D01*
X116174826Y-84264500D01*
X116456576Y-84264500D01*
X116527677Y-84256488D01*
X116736552Y-84232955D01*
X117011236Y-84170260D01*
X117277174Y-84077204D01*
X117531021Y-83954958D01*
X117769584Y-83805058D01*
X117825496Y-83760470D01*
X117940578Y-83668696D01*
X119277900Y-83668696D01*
X119277900Y-83818903D01*
X119303221Y-83946196D01*
X119307203Y-83966213D01*
X119364682Y-84104979D01*
X119448128Y-84229865D01*
X119554335Y-84336072D01*
X119679221Y-84419518D01*
X119817987Y-84476997D01*
X119965300Y-84506300D01*
X120115500Y-84506300D01*
X120262813Y-84476997D01*
X120401579Y-84419518D01*
X120526465Y-84336072D01*
X120632672Y-84229865D01*
X120716118Y-84104979D01*
X120773597Y-83966213D01*
X120777579Y-83946196D01*
X133507600Y-83946196D01*
X133507600Y-84096403D01*
X133525728Y-84187533D01*
X133536903Y-84243713D01*
X133594382Y-84382479D01*
X133677828Y-84507365D01*
X133784035Y-84613572D01*
X133908921Y-84697018D01*
X134047687Y-84754497D01*
X134195000Y-84783800D01*
X134345200Y-84783800D01*
X134492513Y-84754497D01*
X134631279Y-84697018D01*
X134756165Y-84613572D01*
X134862372Y-84507365D01*
X134945818Y-84382479D01*
X135003297Y-84243713D01*
X135032600Y-84096400D01*
X135032600Y-83946200D01*
X135003297Y-83798887D01*
X134945818Y-83660121D01*
X134862372Y-83535235D01*
X134756165Y-83429028D01*
X134631279Y-83345582D01*
X134631278Y-83345581D01*
X134626132Y-83342143D01*
X134627525Y-83340057D01*
X134584739Y-83298003D01*
X134569049Y-83228762D01*
X134593285Y-83162030D01*
X134624800Y-83131900D01*
X134739969Y-83054947D01*
X134739971Y-83054944D01*
X134739974Y-83054943D01*
X134842643Y-82952274D01*
X134923310Y-82831548D01*
X134978874Y-82697404D01*
X135007200Y-82554998D01*
X135007200Y-82409802D01*
X134978874Y-82267396D01*
X134923310Y-82133252D01*
X134842643Y-82012526D01*
X134842638Y-82012520D01*
X134739979Y-81909861D01*
X134739973Y-81909856D01*
X134699914Y-81883089D01*
X134619248Y-81829190D01*
X134485104Y-81773626D01*
X134342700Y-81745300D01*
X134342698Y-81745300D01*
X134197502Y-81745300D01*
X134197499Y-81745300D01*
X134055095Y-81773626D01*
X134055090Y-81773628D01*
X133920952Y-81829190D01*
X133800226Y-81909856D01*
X133800220Y-81909861D01*
X133697561Y-82012520D01*
X133697556Y-82012526D01*
X133616890Y-82133252D01*
X133561328Y-82267390D01*
X133561326Y-82267395D01*
X133533000Y-82409799D01*
X133533000Y-82555000D01*
X133539429Y-82587321D01*
X133561326Y-82697404D01*
X133616890Y-82831548D01*
X133670789Y-82912214D01*
X133697556Y-82952273D01*
X133697561Y-82952279D01*
X133800220Y-83054938D01*
X133800226Y-83054943D01*
X133915400Y-83131900D01*
X133960928Y-83186377D01*
X133969776Y-83256820D01*
X133939134Y-83320864D01*
X133913360Y-83341083D01*
X133914068Y-83342143D01*
X133784039Y-83429025D01*
X133784032Y-83429030D01*
X133677830Y-83535232D01*
X133677828Y-83535235D01*
X133594382Y-83660121D01*
X133570575Y-83717595D01*
X133536904Y-83798884D01*
X133536903Y-83798885D01*
X133507600Y-83946196D01*
X120777579Y-83946196D01*
X120802900Y-83818900D01*
X120802900Y-83668700D01*
X120773597Y-83521387D01*
X120716118Y-83382621D01*
X120632672Y-83257735D01*
X120526465Y-83151528D01*
X120401579Y-83068082D01*
X120262814Y-83010603D01*
X120115503Y-82981300D01*
X120115500Y-82981300D01*
X119965300Y-82981300D01*
X119965296Y-82981300D01*
X119817985Y-83010603D01*
X119817984Y-83010604D01*
X119679219Y-83068083D01*
X119554339Y-83151525D01*
X119554332Y-83151530D01*
X119448130Y-83257732D01*
X119448125Y-83257739D01*
X119364683Y-83382619D01*
X119307204Y-83521384D01*
X119307203Y-83521385D01*
X119277900Y-83668696D01*
X117940578Y-83668696D01*
X117989860Y-83629395D01*
X117989867Y-83629388D01*
X118045841Y-83573415D01*
X118189088Y-83430167D01*
X118189095Y-83430160D01*
X118349703Y-83228762D01*
X118364758Y-83209884D01*
X118514658Y-82971321D01*
X118636904Y-82717474D01*
X118729960Y-82451536D01*
X118792655Y-82176852D01*
X118824200Y-81896874D01*
X118824200Y-81615126D01*
X118823059Y-81605003D01*
X118806024Y-81453804D01*
X118792655Y-81335148D01*
X118729960Y-81060464D01*
X118728517Y-81056341D01*
X118636910Y-80794543D01*
X118636909Y-80794542D01*
X118636904Y-80794526D01*
X118514658Y-80540679D01*
X118514657Y-80540678D01*
X118514656Y-80540675D01*
X118364757Y-80302114D01*
X118189095Y-80081839D01*
X117989860Y-79882604D01*
X117769585Y-79706942D01*
X117531024Y-79557043D01*
X117277183Y-79434800D01*
X117277178Y-79434798D01*
X117277174Y-79434796D01*
X117277168Y-79434793D01*
X117277156Y-79434789D01*
X117011246Y-79341743D01*
X117011241Y-79341741D01*
X117011236Y-79341740D01*
X116861944Y-79307664D01*
X116736554Y-79279045D01*
X116736557Y-79279045D01*
X116456576Y-79247500D01*
X116456574Y-79247500D01*
X116174826Y-79247500D01*
X116174824Y-79247500D01*
X115894844Y-79279045D01*
X115620157Y-79341741D01*
X115354243Y-79434789D01*
X115354216Y-79434800D01*
X115100375Y-79557043D01*
X114861814Y-79706942D01*
X114641539Y-79882604D01*
X114442304Y-80081839D01*
X114266642Y-80302114D01*
X114116743Y-80540675D01*
X113994500Y-80794516D01*
X113994489Y-80794543D01*
X113901441Y-81060457D01*
X113838745Y-81335144D01*
X113807200Y-81615124D01*
X113184313Y-81615124D01*
X113195746Y-79226199D01*
X123113300Y-79226199D01*
X123113300Y-79371400D01*
X123125911Y-79434800D01*
X123141626Y-79513804D01*
X123197190Y-79647948D01*
X123221139Y-79683790D01*
X123277856Y-79768673D01*
X123277861Y-79768679D01*
X123380520Y-79871338D01*
X123380526Y-79871343D01*
X123501252Y-79952010D01*
X123635396Y-80007574D01*
X123777802Y-80035900D01*
X123777803Y-80035900D01*
X123922997Y-80035900D01*
X123922998Y-80035900D01*
X124065404Y-80007574D01*
X124199548Y-79952010D01*
X124320274Y-79871343D01*
X124422943Y-79768674D01*
X124503610Y-79647948D01*
X124559174Y-79513804D01*
X124587500Y-79371398D01*
X124587500Y-79226202D01*
X124559174Y-79083796D01*
X124503610Y-78949652D01*
X124422943Y-78828926D01*
X124422938Y-78828920D01*
X124320279Y-78726261D01*
X124320273Y-78726256D01*
X124251749Y-78680470D01*
X124199548Y-78645590D01*
X124065404Y-78590026D01*
X124033978Y-78583775D01*
X123923000Y-78561700D01*
X123922998Y-78561700D01*
X123777802Y-78561700D01*
X123777799Y-78561700D01*
X123635395Y-78590026D01*
X123635390Y-78590028D01*
X123501252Y-78645590D01*
X123380526Y-78726256D01*
X123380520Y-78726261D01*
X123277861Y-78828920D01*
X123277856Y-78828926D01*
X123197190Y-78949652D01*
X123141628Y-79083790D01*
X123141626Y-79083795D01*
X123113300Y-79226199D01*
X113195746Y-79226199D01*
X113201988Y-77921884D01*
X137731900Y-77921884D01*
X137731900Y-78135716D01*
X137755907Y-78287288D01*
X137765352Y-78346921D01*
X137831426Y-78550278D01*
X137831428Y-78550283D01*
X137928506Y-78740809D01*
X138054194Y-78913804D01*
X138054196Y-78913806D01*
X138054198Y-78913809D01*
X138205390Y-79065001D01*
X138205393Y-79065003D01*
X138205396Y-79065006D01*
X138378391Y-79190694D01*
X138378396Y-79190696D01*
X138379488Y-79191366D01*
X138379818Y-79191731D01*
X138382396Y-79193604D01*
X138382002Y-79194145D01*
X138427121Y-79244013D01*
X138438728Y-79314055D01*
X138410626Y-79379253D01*
X138382270Y-79403823D01*
X138382396Y-79403996D01*
X138380382Y-79405458D01*
X138379488Y-79406234D01*
X138378387Y-79406908D01*
X138205393Y-79532596D01*
X138205390Y-79532598D01*
X138054198Y-79683790D01*
X138054196Y-79683793D01*
X137928508Y-79856787D01*
X137831429Y-80047315D01*
X137831426Y-80047321D01*
X137765352Y-80250678D01*
X137765351Y-80250683D01*
X137765351Y-80250684D01*
X137731900Y-80461884D01*
X137731900Y-80675716D01*
X137765351Y-80886916D01*
X137765352Y-80886921D01*
X137821737Y-81060457D01*
X137831428Y-81090283D01*
X137928506Y-81280809D01*
X138054194Y-81453804D01*
X138054196Y-81453806D01*
X138054198Y-81453809D01*
X138205390Y-81605001D01*
X138205393Y-81605003D01*
X138205396Y-81605006D01*
X138378391Y-81730694D01*
X138378396Y-81730696D01*
X138379488Y-81731366D01*
X138379818Y-81731731D01*
X138382396Y-81733604D01*
X138382002Y-81734145D01*
X138427121Y-81784013D01*
X138438728Y-81854055D01*
X138410626Y-81919253D01*
X138382270Y-81943823D01*
X138382396Y-81943996D01*
X138380382Y-81945458D01*
X138379488Y-81946234D01*
X138378387Y-81946908D01*
X138205393Y-82072596D01*
X138205390Y-82072598D01*
X138054198Y-82223790D01*
X138054196Y-82223793D01*
X137928508Y-82396787D01*
X137831429Y-82587315D01*
X137831426Y-82587321D01*
X137765352Y-82790678D01*
X137765351Y-82790683D01*
X137765351Y-82790684D01*
X137731900Y-83001884D01*
X137731900Y-83215716D01*
X137765351Y-83426916D01*
X137765352Y-83426921D01*
X137831137Y-83629388D01*
X137831428Y-83630283D01*
X137928506Y-83820809D01*
X138054194Y-83993804D01*
X138054196Y-83993806D01*
X138054198Y-83993809D01*
X138205390Y-84145001D01*
X138205393Y-84145003D01*
X138205396Y-84145006D01*
X138378391Y-84270694D01*
X138378396Y-84270696D01*
X138379488Y-84271366D01*
X138379818Y-84271731D01*
X138382396Y-84273604D01*
X138382002Y-84274145D01*
X138427121Y-84324013D01*
X138438728Y-84394055D01*
X138410626Y-84459253D01*
X138382270Y-84483823D01*
X138382396Y-84483996D01*
X138380382Y-84485458D01*
X138379488Y-84486234D01*
X138378387Y-84486908D01*
X138205393Y-84612596D01*
X138205390Y-84612598D01*
X138054198Y-84763790D01*
X138054196Y-84763793D01*
X137928508Y-84936787D01*
X137831429Y-85127315D01*
X137831426Y-85127321D01*
X137765352Y-85330678D01*
X137765351Y-85330683D01*
X137765351Y-85330684D01*
X137731900Y-85541884D01*
X137731900Y-85755716D01*
X137765351Y-85966916D01*
X137765352Y-85966921D01*
X137831426Y-86170278D01*
X137831428Y-86170283D01*
X137928506Y-86360809D01*
X138054194Y-86533804D01*
X138054196Y-86533806D01*
X138054198Y-86533809D01*
X138205390Y-86685001D01*
X138205393Y-86685003D01*
X138205396Y-86685006D01*
X138378391Y-86810694D01*
X138378396Y-86810696D01*
X138379488Y-86811366D01*
X138379818Y-86811731D01*
X138382396Y-86813604D01*
X138382002Y-86814145D01*
X138427121Y-86864013D01*
X138438728Y-86934055D01*
X138410626Y-86999253D01*
X138382270Y-87023823D01*
X138382396Y-87023996D01*
X138380382Y-87025458D01*
X138379488Y-87026234D01*
X138378387Y-87026908D01*
X138205393Y-87152596D01*
X138205390Y-87152598D01*
X138054198Y-87303790D01*
X138054196Y-87303793D01*
X137928508Y-87476787D01*
X137831429Y-87667315D01*
X137831426Y-87667321D01*
X137765352Y-87870678D01*
X137765351Y-87870683D01*
X137765351Y-87870684D01*
X137731900Y-88081884D01*
X137731900Y-88295716D01*
X137762656Y-88489898D01*
X137765352Y-88506921D01*
X137830919Y-88708717D01*
X137831428Y-88710283D01*
X137928506Y-88900809D01*
X138054194Y-89073804D01*
X138054196Y-89073806D01*
X138054198Y-89073809D01*
X138205390Y-89225001D01*
X138205393Y-89225003D01*
X138205396Y-89225006D01*
X138378391Y-89350694D01*
X138378401Y-89350699D01*
X138379967Y-89351659D01*
X138380442Y-89352184D01*
X138382396Y-89353604D01*
X138382097Y-89354014D01*
X138427600Y-89404305D01*
X138439208Y-89474346D01*
X138411107Y-89539545D01*
X138382557Y-89564285D01*
X138382658Y-89564424D01*
X138381044Y-89565596D01*
X138379974Y-89566524D01*
X138378655Y-89567332D01*
X138205720Y-89692977D01*
X138054577Y-89844120D01*
X137928936Y-90017049D01*
X137831893Y-90207507D01*
X137831890Y-90207513D01*
X137765840Y-90410795D01*
X137755702Y-90474800D01*
X138659697Y-90474800D01*
X138624475Y-90535807D01*
X138590400Y-90662974D01*
X138590400Y-90794626D01*
X138624475Y-90921793D01*
X138659697Y-90982800D01*
X137755702Y-90982800D01*
X137765840Y-91046804D01*
X137831890Y-91250086D01*
X137831893Y-91250092D01*
X137928936Y-91440550D01*
X138054577Y-91613479D01*
X138205720Y-91764622D01*
X138378644Y-91890260D01*
X138379960Y-91891066D01*
X138380355Y-91891503D01*
X138382658Y-91893176D01*
X138382306Y-91893659D01*
X138427596Y-91943710D01*
X138439209Y-92013750D01*
X138411112Y-92078950D01*
X138382325Y-92103898D01*
X138382396Y-92103996D01*
X138381262Y-92104819D01*
X138379980Y-92105931D01*
X138378398Y-92106900D01*
X138205393Y-92232596D01*
X138205390Y-92232598D01*
X138054198Y-92383790D01*
X138054196Y-92383793D01*
X137928508Y-92556787D01*
X137831429Y-92747315D01*
X137831426Y-92747321D01*
X137765352Y-92950678D01*
X137765351Y-92950683D01*
X137765351Y-92950684D01*
X137731900Y-93161884D01*
X137731900Y-93375716D01*
X137756203Y-93529159D01*
X137765352Y-93586921D01*
X137831426Y-93790278D01*
X137831428Y-93790283D01*
X137928506Y-93980809D01*
X138054194Y-94153804D01*
X138054196Y-94153806D01*
X138054198Y-94153809D01*
X138205390Y-94305001D01*
X138205393Y-94305003D01*
X138205396Y-94305006D01*
X138378391Y-94430694D01*
X138378396Y-94430696D01*
X138379488Y-94431366D01*
X138379818Y-94431731D01*
X138382396Y-94433604D01*
X138382002Y-94434145D01*
X138427121Y-94484013D01*
X138438728Y-94554055D01*
X138410626Y-94619253D01*
X138382270Y-94643823D01*
X138382396Y-94643996D01*
X138380382Y-94645458D01*
X138379488Y-94646234D01*
X138378387Y-94646908D01*
X138205393Y-94772596D01*
X138205390Y-94772598D01*
X138054198Y-94923790D01*
X138054196Y-94923793D01*
X137928508Y-95096787D01*
X137831429Y-95287315D01*
X137831426Y-95287321D01*
X137765352Y-95490678D01*
X137765351Y-95490683D01*
X137765351Y-95490684D01*
X137731900Y-95701884D01*
X137731900Y-95915716D01*
X137739737Y-95965196D01*
X137765352Y-96126921D01*
X137830919Y-96328717D01*
X137831428Y-96330283D01*
X137928506Y-96520809D01*
X138054194Y-96693804D01*
X138054196Y-96693806D01*
X138054198Y-96693809D01*
X138205390Y-96845001D01*
X138205393Y-96845003D01*
X138205396Y-96845006D01*
X138378391Y-96970694D01*
X138378396Y-96970696D01*
X138379488Y-96971366D01*
X138379818Y-96971731D01*
X138382396Y-96973604D01*
X138382002Y-96974145D01*
X138427121Y-97024013D01*
X138438728Y-97094055D01*
X138410626Y-97159253D01*
X138382270Y-97183823D01*
X138382396Y-97183996D01*
X138380382Y-97185458D01*
X138379488Y-97186234D01*
X138378387Y-97186908D01*
X138205393Y-97312596D01*
X138205390Y-97312598D01*
X138054198Y-97463790D01*
X138054196Y-97463793D01*
X137928508Y-97636787D01*
X137831429Y-97827315D01*
X137831426Y-97827321D01*
X137765352Y-98030678D01*
X137765351Y-98030683D01*
X137765351Y-98030684D01*
X137731900Y-98241884D01*
X137731900Y-98455716D01*
X137765351Y-98666916D01*
X137765352Y-98666921D01*
X137830919Y-98868717D01*
X137831428Y-98870283D01*
X137928506Y-99060809D01*
X137928508Y-99060812D01*
X137936693Y-99072078D01*
X138054194Y-99233804D01*
X138054196Y-99233806D01*
X138054198Y-99233809D01*
X138205390Y-99385001D01*
X138205393Y-99385003D01*
X138205396Y-99385006D01*
X138378391Y-99510694D01*
X138378396Y-99510696D01*
X138379488Y-99511366D01*
X138379818Y-99511731D01*
X138382396Y-99513604D01*
X138382002Y-99514145D01*
X138427121Y-99564013D01*
X138438728Y-99634055D01*
X138410626Y-99699253D01*
X138382270Y-99723823D01*
X138382396Y-99723996D01*
X138380382Y-99725458D01*
X138379488Y-99726234D01*
X138378387Y-99726908D01*
X138205393Y-99852596D01*
X138205390Y-99852598D01*
X138054198Y-100003790D01*
X138054196Y-100003793D01*
X137928508Y-100176787D01*
X137831429Y-100367315D01*
X137831426Y-100367321D01*
X137765352Y-100570678D01*
X137765351Y-100570683D01*
X137765351Y-100570684D01*
X137731900Y-100781884D01*
X137731900Y-100995716D01*
X137739737Y-101045196D01*
X137765352Y-101206921D01*
X137830919Y-101408717D01*
X137831428Y-101410283D01*
X137928506Y-101600809D01*
X137928508Y-101600812D01*
X137936693Y-101612078D01*
X138054194Y-101773804D01*
X138054196Y-101773806D01*
X138054198Y-101773809D01*
X138205390Y-101925001D01*
X138205393Y-101925003D01*
X138205396Y-101925006D01*
X138378391Y-102050694D01*
X138378396Y-102050696D01*
X138379488Y-102051366D01*
X138379818Y-102051731D01*
X138382396Y-102053604D01*
X138382002Y-102054145D01*
X138427121Y-102104013D01*
X138438728Y-102174055D01*
X138410626Y-102239253D01*
X138382270Y-102263823D01*
X138382396Y-102263996D01*
X138380382Y-102265458D01*
X138379488Y-102266234D01*
X138378387Y-102266908D01*
X138205393Y-102392596D01*
X138205390Y-102392598D01*
X138054198Y-102543790D01*
X138054196Y-102543793D01*
X137928508Y-102716787D01*
X137831429Y-102907315D01*
X137831426Y-102907321D01*
X137765352Y-103110678D01*
X137765351Y-103110683D01*
X137765351Y-103110684D01*
X137731900Y-103321884D01*
X137731900Y-103535716D01*
X137765351Y-103746916D01*
X137765352Y-103746921D01*
X137831426Y-103950278D01*
X137831428Y-103950283D01*
X137928506Y-104140809D01*
X138054194Y-104313804D01*
X138054196Y-104313806D01*
X138054198Y-104313809D01*
X138205390Y-104465001D01*
X138205393Y-104465003D01*
X138205396Y-104465006D01*
X138378391Y-104590694D01*
X138378396Y-104590696D01*
X138379488Y-104591366D01*
X138379818Y-104591731D01*
X138382396Y-104593604D01*
X138382002Y-104594145D01*
X138427121Y-104644013D01*
X138438728Y-104714055D01*
X138410626Y-104779253D01*
X138382270Y-104803823D01*
X138382396Y-104803996D01*
X138380382Y-104805458D01*
X138379488Y-104806234D01*
X138378387Y-104806908D01*
X138205393Y-104932596D01*
X138205390Y-104932598D01*
X138054198Y-105083790D01*
X138054196Y-105083793D01*
X137928508Y-105256787D01*
X137831429Y-105447315D01*
X137831426Y-105447321D01*
X137765352Y-105650678D01*
X137765351Y-105650683D01*
X137765351Y-105650684D01*
X137731900Y-105861884D01*
X137731900Y-106075716D01*
X137765351Y-106286916D01*
X137765352Y-106286921D01*
X137830919Y-106488717D01*
X137831428Y-106490283D01*
X137928506Y-106680809D01*
X138054194Y-106853804D01*
X138054196Y-106853806D01*
X138054198Y-106853809D01*
X138205390Y-107005001D01*
X138205393Y-107005003D01*
X138205396Y-107005006D01*
X138378391Y-107130694D01*
X138378396Y-107130696D01*
X138379488Y-107131366D01*
X138379818Y-107131731D01*
X138382396Y-107133604D01*
X138382002Y-107134145D01*
X138427121Y-107184013D01*
X138438728Y-107254055D01*
X138410626Y-107319253D01*
X138382270Y-107343823D01*
X138382396Y-107343996D01*
X138380382Y-107345458D01*
X138379488Y-107346234D01*
X138378387Y-107346908D01*
X138205393Y-107472596D01*
X138205390Y-107472598D01*
X138054198Y-107623790D01*
X138054196Y-107623793D01*
X137928508Y-107796787D01*
X137831429Y-107987315D01*
X137831426Y-107987321D01*
X137765352Y-108190678D01*
X137765351Y-108190683D01*
X137765351Y-108190684D01*
X137731900Y-108401884D01*
X137731900Y-108615716D01*
X137739737Y-108665196D01*
X137765352Y-108826921D01*
X137830919Y-109028717D01*
X137831428Y-109030283D01*
X137928506Y-109220809D01*
X138054194Y-109393804D01*
X138054196Y-109393806D01*
X138054198Y-109393809D01*
X138205390Y-109545001D01*
X138205393Y-109545003D01*
X138205396Y-109545006D01*
X138378391Y-109670694D01*
X138378396Y-109670696D01*
X138379488Y-109671366D01*
X138379818Y-109671731D01*
X138382396Y-109673604D01*
X138382002Y-109674145D01*
X138427121Y-109724013D01*
X138438728Y-109794055D01*
X138410626Y-109859253D01*
X138382270Y-109883823D01*
X138382396Y-109883996D01*
X138380382Y-109885458D01*
X138379488Y-109886234D01*
X138378387Y-109886908D01*
X138205393Y-110012596D01*
X138205390Y-110012598D01*
X138054198Y-110163790D01*
X138054196Y-110163793D01*
X137928508Y-110336787D01*
X137831429Y-110527315D01*
X137831426Y-110527321D01*
X137765352Y-110730678D01*
X137765351Y-110730683D01*
X137765351Y-110730684D01*
X137731900Y-110941884D01*
X137731900Y-111155716D01*
X137765351Y-111366916D01*
X137765352Y-111366921D01*
X137831426Y-111570278D01*
X137831428Y-111570283D01*
X137928506Y-111760809D01*
X137928508Y-111760812D01*
X137936694Y-111772079D01*
X138054194Y-111933804D01*
X138054196Y-111933806D01*
X138054198Y-111933809D01*
X138205390Y-112085001D01*
X138205393Y-112085003D01*
X138205396Y-112085006D01*
X138378391Y-112210694D01*
X138568917Y-112307772D01*
X138772278Y-112373847D01*
X138772279Y-112373847D01*
X138772284Y-112373849D01*
X138983484Y-112407300D01*
X138983487Y-112407300D01*
X139197313Y-112407300D01*
X139197316Y-112407300D01*
X139408516Y-112373849D01*
X139611883Y-112307772D01*
X139802409Y-112210694D01*
X139975404Y-112085006D01*
X140078771Y-111981638D01*
X140141081Y-111947615D01*
X140211897Y-111952679D01*
X140268733Y-111995226D01*
X140285921Y-112026703D01*
X140329955Y-112144765D01*
X140417495Y-112261704D01*
X140534434Y-112349244D01*
X140671306Y-112400294D01*
X140731802Y-112406799D01*
X140731815Y-112406800D01*
X141376400Y-112406800D01*
X141376400Y-111479502D01*
X141437407Y-111514725D01*
X141564574Y-111548800D01*
X141696226Y-111548800D01*
X141823393Y-111514725D01*
X141884400Y-111479502D01*
X141884400Y-112406800D01*
X142528985Y-112406800D01*
X142528997Y-112406799D01*
X142589493Y-112400294D01*
X142726364Y-112349244D01*
X142726365Y-112349244D01*
X142843304Y-112261704D01*
X142930844Y-112144765D01*
X142930844Y-112144764D01*
X142981894Y-112007893D01*
X142988399Y-111947397D01*
X142988400Y-111947385D01*
X142988400Y-111302800D01*
X142061103Y-111302800D01*
X142096325Y-111241793D01*
X142130400Y-111114626D01*
X142130400Y-110982974D01*
X142111349Y-110911877D01*
X153539850Y-110911877D01*
X153539850Y-111114622D01*
X153579402Y-111313463D01*
X153656982Y-111500754D01*
X153656984Y-111500758D01*
X153702520Y-111568907D01*
X153769618Y-111669327D01*
X153912973Y-111812682D01*
X154058408Y-111909858D01*
X154081541Y-111925315D01*
X154081545Y-111925317D01*
X154268836Y-112002897D01*
X154268840Y-112002897D01*
X154268843Y-112002899D01*
X154419659Y-112032897D01*
X154467677Y-112042449D01*
X154467680Y-112042449D01*
X154467683Y-112042450D01*
X154467684Y-112042450D01*
X154670416Y-112042450D01*
X154670417Y-112042450D01*
X154869257Y-112002899D01*
X154869260Y-112002897D01*
X154869263Y-112002897D01*
X155056554Y-111925317D01*
X155056553Y-111925317D01*
X155056559Y-111925315D01*
X155134049Y-111873537D01*
X155201801Y-111852323D01*
X155270268Y-111871106D01*
X155274025Y-111873520D01*
X155328408Y-111909858D01*
X155351541Y-111925315D01*
X155351545Y-111925317D01*
X155538836Y-112002897D01*
X155538840Y-112002897D01*
X155538843Y-112002899D01*
X155689659Y-112032897D01*
X155737677Y-112042449D01*
X155737680Y-112042449D01*
X155737683Y-112042450D01*
X155737684Y-112042450D01*
X155940416Y-112042450D01*
X155940417Y-112042450D01*
X156139257Y-112002899D01*
X156139260Y-112002897D01*
X156139263Y-112002897D01*
X156326554Y-111925317D01*
X156326553Y-111925317D01*
X156326559Y-111925315D01*
X156404499Y-111873236D01*
X156472249Y-111852022D01*
X156540716Y-111870804D01*
X156544501Y-111873237D01*
X156621778Y-111924871D01*
X156808985Y-112002415D01*
X156808988Y-112002416D01*
X157007728Y-112041949D01*
X157007732Y-112041950D01*
X157210368Y-112041950D01*
X157210371Y-112041949D01*
X157409111Y-112002416D01*
X157409114Y-112002415D01*
X157596321Y-111924872D01*
X157635370Y-111898780D01*
X157018540Y-111281951D01*
X157006178Y-111259313D01*
X157056000Y-111279950D01*
X157162100Y-111279950D01*
X157260123Y-111239347D01*
X157335147Y-111164323D01*
X157375750Y-111066300D01*
X157375750Y-111013249D01*
X157468260Y-111013249D01*
X157468260Y-111013251D01*
X157994579Y-111539570D01*
X158020672Y-111500521D01*
X158098215Y-111313314D01*
X158098216Y-111313311D01*
X158137749Y-111114571D01*
X158137750Y-111114568D01*
X158137750Y-110911931D01*
X158137749Y-110911928D01*
X158098216Y-110713188D01*
X158098215Y-110713185D01*
X158020673Y-110525980D01*
X157994579Y-110486929D01*
X157468260Y-111013249D01*
X157375750Y-111013249D01*
X157375750Y-110960200D01*
X157335147Y-110862177D01*
X157260123Y-110787153D01*
X157162100Y-110746550D01*
X157056000Y-110746550D01*
X157003197Y-110768421D01*
X157018539Y-110744550D01*
X157635369Y-110127718D01*
X157635370Y-110127718D01*
X157596322Y-110101628D01*
X157409114Y-110024084D01*
X157409111Y-110024083D01*
X157210371Y-109984550D01*
X157007728Y-109984550D01*
X156808988Y-110024083D01*
X156808985Y-110024084D01*
X156621778Y-110101627D01*
X156544501Y-110153262D01*
X156476748Y-110174476D01*
X156408281Y-110155692D01*
X156404499Y-110153262D01*
X156326556Y-110101183D01*
X156326554Y-110101182D01*
X156139263Y-110023602D01*
X155940422Y-109984050D01*
X155940417Y-109984050D01*
X155737683Y-109984050D01*
X155737677Y-109984050D01*
X155538836Y-110023602D01*
X155351545Y-110101182D01*
X155351538Y-110101186D01*
X155274050Y-110152961D01*
X155206297Y-110174175D01*
X155137831Y-110155391D01*
X155134050Y-110152961D01*
X155056561Y-110101186D01*
X155056554Y-110101182D01*
X154869263Y-110023602D01*
X154670422Y-109984050D01*
X154670417Y-109984050D01*
X154467683Y-109984050D01*
X154467677Y-109984050D01*
X154268836Y-110023602D01*
X154081545Y-110101182D01*
X154081541Y-110101184D01*
X153912974Y-110213817D01*
X153912968Y-110213822D01*
X153769622Y-110357168D01*
X153769617Y-110357174D01*
X153656984Y-110525741D01*
X153656982Y-110525745D01*
X153579402Y-110713036D01*
X153539850Y-110911877D01*
X142111349Y-110911877D01*
X142096325Y-110855807D01*
X142061103Y-110794800D01*
X142988400Y-110794800D01*
X142988400Y-110150214D01*
X142988399Y-110150202D01*
X142981894Y-110089706D01*
X142930844Y-109952835D01*
X142930844Y-109952834D01*
X142843304Y-109835895D01*
X142726365Y-109748355D01*
X142608303Y-109704321D01*
X142551467Y-109661774D01*
X142526656Y-109595254D01*
X142541747Y-109525880D01*
X142563237Y-109497172D01*
X142666606Y-109393804D01*
X142792294Y-109220809D01*
X142889372Y-109030283D01*
X142955449Y-108826916D01*
X142988900Y-108615716D01*
X142988900Y-108401884D01*
X142955449Y-108190684D01*
X142889372Y-107987317D01*
X142792294Y-107796791D01*
X142666606Y-107623796D01*
X142666603Y-107623793D01*
X142666601Y-107623790D01*
X142515409Y-107472598D01*
X142515406Y-107472596D01*
X142515404Y-107472594D01*
X142342409Y-107346906D01*
X142342407Y-107346905D01*
X142341320Y-107346239D01*
X142340991Y-107345875D01*
X142338404Y-107343996D01*
X142338798Y-107343452D01*
X142293683Y-107293596D01*
X142282070Y-107223556D01*
X142310166Y-107158355D01*
X142338530Y-107133778D01*
X142338404Y-107133604D01*
X142340430Y-107132131D01*
X142341320Y-107131361D01*
X142342397Y-107130699D01*
X142342409Y-107130694D01*
X142515404Y-107005006D01*
X142666606Y-106853804D01*
X142792294Y-106680809D01*
X142889372Y-106490283D01*
X142955449Y-106286916D01*
X142988900Y-106075716D01*
X142988900Y-105861884D01*
X142955449Y-105650684D01*
X142889372Y-105447317D01*
X142792294Y-105256791D01*
X142666606Y-105083796D01*
X142666603Y-105083793D01*
X142666601Y-105083790D01*
X142515409Y-104932598D01*
X142515406Y-104932596D01*
X142515404Y-104932594D01*
X142342409Y-104806906D01*
X142342407Y-104806905D01*
X142341320Y-104806239D01*
X142340991Y-104805875D01*
X142338404Y-104803996D01*
X142338798Y-104803452D01*
X142293683Y-104753596D01*
X142282070Y-104683556D01*
X142310166Y-104618355D01*
X142338530Y-104593778D01*
X142338404Y-104593604D01*
X142340430Y-104592131D01*
X142341320Y-104591361D01*
X142342397Y-104590699D01*
X142342409Y-104590694D01*
X142515404Y-104465006D01*
X142666606Y-104313804D01*
X142792294Y-104140809D01*
X142889372Y-103950283D01*
X142955449Y-103746916D01*
X142988900Y-103535716D01*
X142988900Y-103321884D01*
X142955449Y-103110684D01*
X142889372Y-102907317D01*
X142792294Y-102716791D01*
X142666606Y-102543796D01*
X142666603Y-102543793D01*
X142666601Y-102543790D01*
X142515409Y-102392598D01*
X142515406Y-102392596D01*
X142515404Y-102392594D01*
X142342409Y-102266906D01*
X142342407Y-102266905D01*
X142341320Y-102266239D01*
X142340991Y-102265875D01*
X142338404Y-102263996D01*
X142338798Y-102263452D01*
X142293683Y-102213596D01*
X142282070Y-102143556D01*
X142310166Y-102078355D01*
X142338530Y-102053778D01*
X142338404Y-102053604D01*
X142340430Y-102052131D01*
X142341320Y-102051361D01*
X142342397Y-102050699D01*
X142342409Y-102050694D01*
X142515404Y-101925006D01*
X142666606Y-101773804D01*
X142746617Y-101663678D01*
X144761600Y-101663678D01*
X144761600Y-101901122D01*
X144796605Y-102122134D01*
X144798745Y-102135646D01*
X144841395Y-102266908D01*
X144872118Y-102361463D01*
X144979915Y-102573027D01*
X145119480Y-102765122D01*
X145119482Y-102765124D01*
X145119484Y-102765127D01*
X145287372Y-102933015D01*
X145287375Y-102933017D01*
X145287378Y-102933020D01*
X145479473Y-103072585D01*
X145691037Y-103180382D01*
X145916859Y-103253756D01*
X146151378Y-103290900D01*
X146151381Y-103290900D01*
X146388819Y-103290900D01*
X146388822Y-103290900D01*
X146623341Y-103253756D01*
X146849163Y-103180382D01*
X147060727Y-103072585D01*
X147252822Y-102933020D01*
X147420720Y-102765122D01*
X147560285Y-102573027D01*
X147668082Y-102361463D01*
X147741456Y-102135641D01*
X147778600Y-101901122D01*
X147778600Y-101663678D01*
X147741456Y-101429159D01*
X147668082Y-101203337D01*
X147560285Y-100991773D01*
X147420720Y-100799678D01*
X147420717Y-100799675D01*
X147420715Y-100799672D01*
X147252827Y-100631784D01*
X147252824Y-100631782D01*
X147252822Y-100631780D01*
X147060727Y-100492215D01*
X146849163Y-100384418D01*
X146849160Y-100384417D01*
X146849158Y-100384416D01*
X146623346Y-100311045D01*
X146623342Y-100311044D01*
X146623341Y-100311044D01*
X146388822Y-100273900D01*
X146151378Y-100273900D01*
X145916859Y-100311044D01*
X145916853Y-100311045D01*
X145691041Y-100384416D01*
X145691035Y-100384419D01*
X145479469Y-100492217D01*
X145287375Y-100631782D01*
X145287372Y-100631784D01*
X145119484Y-100799672D01*
X145119482Y-100799675D01*
X144979917Y-100991769D01*
X144872119Y-101203335D01*
X144872116Y-101203341D01*
X144798745Y-101429153D01*
X144798744Y-101429158D01*
X144798744Y-101429159D01*
X144761600Y-101663678D01*
X142746617Y-101663678D01*
X142792294Y-101600809D01*
X142889372Y-101410283D01*
X142955449Y-101206916D01*
X142988900Y-100995716D01*
X142988900Y-100781884D01*
X142955449Y-100570684D01*
X142889372Y-100367317D01*
X142792294Y-100176791D01*
X142666606Y-100003796D01*
X142666603Y-100003793D01*
X142666601Y-100003790D01*
X142515409Y-99852598D01*
X142515406Y-99852596D01*
X142515404Y-99852594D01*
X142342409Y-99726906D01*
X142342407Y-99726905D01*
X142341320Y-99726239D01*
X142340991Y-99725875D01*
X142338404Y-99723996D01*
X142338798Y-99723452D01*
X142293683Y-99673596D01*
X142282070Y-99603556D01*
X142310166Y-99538355D01*
X142338530Y-99513778D01*
X142338404Y-99513604D01*
X142340430Y-99512131D01*
X142341320Y-99511361D01*
X142342397Y-99510699D01*
X142342409Y-99510694D01*
X142515404Y-99385006D01*
X142666606Y-99233804D01*
X142792294Y-99060809D01*
X142889372Y-98870283D01*
X142949311Y-98685808D01*
X152561600Y-98685808D01*
X152561600Y-98938992D01*
X152601206Y-99189058D01*
X152601207Y-99189063D01*
X152668571Y-99396387D01*
X152679444Y-99429850D01*
X152772713Y-99612900D01*
X152794390Y-99655443D01*
X152800513Y-99663871D01*
X152824371Y-99730739D01*
X152808289Y-99799890D01*
X152774086Y-99838798D01*
X152706837Y-99889140D01*
X152619212Y-100006192D01*
X152619210Y-100006197D01*
X152568111Y-100143195D01*
X152568109Y-100143203D01*
X152561600Y-100203750D01*
X152561600Y-102501049D01*
X152568109Y-102561596D01*
X152568111Y-102561604D01*
X152619210Y-102698602D01*
X152619212Y-102698607D01*
X152706838Y-102815661D01*
X152823892Y-102903287D01*
X152823894Y-102903288D01*
X152823896Y-102903289D01*
X152882975Y-102925324D01*
X152960895Y-102954388D01*
X152960903Y-102954390D01*
X153021450Y-102960899D01*
X153021455Y-102960899D01*
X153021462Y-102960900D01*
X153021468Y-102960900D01*
X155318732Y-102960900D01*
X155318738Y-102960900D01*
X155318745Y-102960899D01*
X155318749Y-102960899D01*
X155379296Y-102954390D01*
X155379299Y-102954389D01*
X155379301Y-102954389D01*
X155516304Y-102903289D01*
X155633361Y-102815661D01*
X155662207Y-102777128D01*
X155720987Y-102698607D01*
X155720987Y-102698606D01*
X155720989Y-102698604D01*
X155772089Y-102561601D01*
X155774004Y-102543796D01*
X155778599Y-102501049D01*
X155778600Y-102501032D01*
X155778600Y-101814539D01*
X155798602Y-101746418D01*
X155852258Y-101699925D01*
X155922532Y-101689821D01*
X155987112Y-101719315D01*
X156009365Y-101744538D01*
X156088304Y-101862680D01*
X156088309Y-101862686D01*
X156088311Y-101862689D01*
X156199811Y-101974189D01*
X156330921Y-102061794D01*
X156476603Y-102122137D01*
X156631258Y-102152900D01*
X156631259Y-102152900D01*
X156788941Y-102152900D01*
X156788942Y-102152900D01*
X156943597Y-102122137D01*
X157089279Y-102061794D01*
X157220389Y-101974189D01*
X157331889Y-101862689D01*
X157419494Y-101731579D01*
X157479837Y-101585897D01*
X157510600Y-101431242D01*
X157510600Y-101273558D01*
X157479837Y-101118903D01*
X157419494Y-100973221D01*
X157331889Y-100842111D01*
X157220389Y-100730611D01*
X157089279Y-100643006D01*
X156943602Y-100582665D01*
X156943597Y-100582663D01*
X156788944Y-100551900D01*
X156788942Y-100551900D01*
X156631258Y-100551900D01*
X156631255Y-100551900D01*
X156476602Y-100582663D01*
X156476597Y-100582665D01*
X156330920Y-100643006D01*
X156199815Y-100730608D01*
X156199808Y-100730613D01*
X156088313Y-100842108D01*
X156088308Y-100842115D01*
X156009365Y-100960262D01*
X155954888Y-101005790D01*
X155884445Y-101014638D01*
X155820401Y-100983997D01*
X155783090Y-100923595D01*
X155778600Y-100890260D01*
X155778600Y-100203767D01*
X155778599Y-100203750D01*
X155772090Y-100143203D01*
X155772088Y-100143195D01*
X155720989Y-100006197D01*
X155720987Y-100006192D01*
X155633361Y-99889138D01*
X155566114Y-99838798D01*
X155523567Y-99781962D01*
X155518503Y-99711147D01*
X155539690Y-99663865D01*
X155545809Y-99655443D01*
X155545813Y-99655438D01*
X155660756Y-99429850D01*
X155738994Y-99189058D01*
X155741207Y-99175082D01*
X155771614Y-99110933D01*
X155831880Y-99073403D01*
X155902869Y-99074413D01*
X155962043Y-99113642D01*
X155982063Y-99146573D01*
X156000703Y-99191574D01*
X156000705Y-99191578D01*
X156000706Y-99191579D01*
X156088311Y-99322689D01*
X156199811Y-99434189D01*
X156330921Y-99521794D01*
X156476603Y-99582137D01*
X156631258Y-99612900D01*
X156631259Y-99612900D01*
X156788941Y-99612900D01*
X156788942Y-99612900D01*
X156943597Y-99582137D01*
X157089279Y-99521794D01*
X157220389Y-99434189D01*
X157331889Y-99322689D01*
X157419494Y-99191579D01*
X157479837Y-99045897D01*
X157510600Y-98891242D01*
X157510600Y-98733558D01*
X157479837Y-98578903D01*
X157419494Y-98433221D01*
X157331889Y-98302111D01*
X157220389Y-98190611D01*
X157089279Y-98103006D01*
X156943597Y-98042663D01*
X156928978Y-98039755D01*
X156788944Y-98011900D01*
X156788942Y-98011900D01*
X156631258Y-98011900D01*
X156631255Y-98011900D01*
X156476602Y-98042663D01*
X156476597Y-98042665D01*
X156330920Y-98103006D01*
X156199815Y-98190608D01*
X156199808Y-98190613D01*
X156088313Y-98302108D01*
X156088308Y-98302115D01*
X156000705Y-98433221D01*
X156000705Y-98433222D01*
X155982063Y-98478227D01*
X155937514Y-98533507D01*
X155870150Y-98555927D01*
X155801359Y-98538368D01*
X155752982Y-98486405D01*
X155741208Y-98449721D01*
X155738994Y-98435742D01*
X155660756Y-98194950D01*
X155545813Y-97969362D01*
X155396995Y-97764532D01*
X155396992Y-97764529D01*
X155396990Y-97764526D01*
X155217973Y-97585509D01*
X155217970Y-97585507D01*
X155217968Y-97585505D01*
X155013138Y-97436687D01*
X154787550Y-97321744D01*
X154787547Y-97321743D01*
X154787545Y-97321742D01*
X154546763Y-97243507D01*
X154546759Y-97243506D01*
X154546758Y-97243506D01*
X154296692Y-97203900D01*
X154043508Y-97203900D01*
X153793442Y-97243506D01*
X153793436Y-97243507D01*
X153552654Y-97321742D01*
X153552648Y-97321745D01*
X153327058Y-97436689D01*
X153122229Y-97585507D01*
X153122226Y-97585509D01*
X152943209Y-97764526D01*
X152943207Y-97764529D01*
X152794389Y-97969358D01*
X152679445Y-98194948D01*
X152679442Y-98194954D01*
X152601207Y-98435736D01*
X152601206Y-98435741D01*
X152601206Y-98435742D01*
X152561600Y-98685808D01*
X142949311Y-98685808D01*
X142955449Y-98666916D01*
X142988900Y-98455716D01*
X142988900Y-98241884D01*
X142955449Y-98030684D01*
X142889372Y-97827317D01*
X142792294Y-97636791D01*
X142666606Y-97463796D01*
X142666603Y-97463793D01*
X142666601Y-97463790D01*
X142515409Y-97312598D01*
X142515406Y-97312596D01*
X142515404Y-97312594D01*
X142342409Y-97186906D01*
X142342407Y-97186905D01*
X142341320Y-97186239D01*
X142340991Y-97185875D01*
X142338404Y-97183996D01*
X142338798Y-97183452D01*
X142293683Y-97133596D01*
X142282070Y-97063556D01*
X142310166Y-96998355D01*
X142338530Y-96973778D01*
X142338404Y-96973604D01*
X142340430Y-96972131D01*
X142341320Y-96971361D01*
X142342397Y-96970699D01*
X142342409Y-96970694D01*
X142515404Y-96845006D01*
X142666606Y-96693804D01*
X142792294Y-96520809D01*
X142872356Y-96363678D01*
X144661600Y-96363678D01*
X144661600Y-96601122D01*
X144684117Y-96743287D01*
X144698745Y-96835646D01*
X144772116Y-97061458D01*
X144772118Y-97061463D01*
X144864874Y-97243507D01*
X144879917Y-97273030D01*
X144908665Y-97312598D01*
X145019480Y-97465122D01*
X145019482Y-97465124D01*
X145019484Y-97465127D01*
X145187372Y-97633015D01*
X145187375Y-97633017D01*
X145187378Y-97633020D01*
X145379473Y-97772585D01*
X145591037Y-97880382D01*
X145816859Y-97953756D01*
X146051378Y-97990900D01*
X146051381Y-97990900D01*
X146288819Y-97990900D01*
X146288822Y-97990900D01*
X146523341Y-97953756D01*
X146749163Y-97880382D01*
X146960727Y-97772585D01*
X147152822Y-97633020D01*
X147320720Y-97465122D01*
X147460285Y-97273027D01*
X147568082Y-97061463D01*
X147641456Y-96835641D01*
X147678600Y-96601122D01*
X147678600Y-96363678D01*
X147641456Y-96129159D01*
X147568082Y-95903337D01*
X147460285Y-95691773D01*
X147320720Y-95499678D01*
X147320717Y-95499675D01*
X147320715Y-95499672D01*
X147152827Y-95331784D01*
X147152824Y-95331782D01*
X147152822Y-95331780D01*
X146960727Y-95192215D01*
X146749163Y-95084418D01*
X146749160Y-95084417D01*
X146749158Y-95084416D01*
X146523346Y-95011045D01*
X146523342Y-95011044D01*
X146523341Y-95011044D01*
X146420711Y-94994789D01*
X148246600Y-94994789D01*
X148246600Y-95170010D01*
X148268554Y-95280380D01*
X148280783Y-95341858D01*
X148347835Y-95503736D01*
X148445180Y-95649423D01*
X148569077Y-95773320D01*
X148714764Y-95870665D01*
X148876642Y-95937717D01*
X149048492Y-95971900D01*
X149048493Y-95971900D01*
X149223707Y-95971900D01*
X149223708Y-95971900D01*
X149395558Y-95937717D01*
X149557436Y-95870665D01*
X149703123Y-95773320D01*
X149827020Y-95649423D01*
X149924365Y-95503736D01*
X149991417Y-95341858D01*
X150025600Y-95170008D01*
X150025600Y-94994792D01*
X149991417Y-94822942D01*
X149924365Y-94661064D01*
X149827020Y-94515377D01*
X149703123Y-94391480D01*
X149557436Y-94294135D01*
X149395558Y-94227083D01*
X149223710Y-94192900D01*
X149223708Y-94192900D01*
X149048492Y-94192900D01*
X149048489Y-94192900D01*
X148876641Y-94227083D01*
X148876636Y-94227085D01*
X148714764Y-94294135D01*
X148569081Y-94391477D01*
X148569074Y-94391482D01*
X148445182Y-94515374D01*
X148445177Y-94515381D01*
X148347835Y-94661064D01*
X148280785Y-94822936D01*
X148280783Y-94822941D01*
X148246600Y-94994789D01*
X146420711Y-94994789D01*
X146288822Y-94973900D01*
X146051378Y-94973900D01*
X145816859Y-95011044D01*
X145816853Y-95011045D01*
X145591041Y-95084416D01*
X145591035Y-95084419D01*
X145379469Y-95192217D01*
X145187375Y-95331782D01*
X145187372Y-95331784D01*
X145019484Y-95499672D01*
X145019482Y-95499675D01*
X144879917Y-95691769D01*
X144772119Y-95903335D01*
X144772116Y-95903341D01*
X144698745Y-96129153D01*
X144698744Y-96129158D01*
X144698744Y-96129159D01*
X144661600Y-96363678D01*
X142872356Y-96363678D01*
X142889372Y-96330283D01*
X142955449Y-96126916D01*
X142988900Y-95915716D01*
X142988900Y-95701884D01*
X142955449Y-95490684D01*
X142889372Y-95287317D01*
X142792294Y-95096791D01*
X142666606Y-94923796D01*
X142666603Y-94923793D01*
X142666601Y-94923790D01*
X142515409Y-94772598D01*
X142515406Y-94772596D01*
X142515404Y-94772594D01*
X142342409Y-94646906D01*
X142342407Y-94646905D01*
X142341320Y-94646239D01*
X142340991Y-94645875D01*
X142338404Y-94643996D01*
X142338798Y-94643452D01*
X142293683Y-94593596D01*
X142282070Y-94523556D01*
X142310166Y-94458355D01*
X142338530Y-94433778D01*
X142338404Y-94433604D01*
X142340430Y-94432131D01*
X142341320Y-94431361D01*
X142342397Y-94430699D01*
X142342409Y-94430694D01*
X142515404Y-94305006D01*
X142666606Y-94153804D01*
X142792294Y-93980809D01*
X142889372Y-93790283D01*
X142898016Y-93763678D01*
X154661600Y-93763678D01*
X154661600Y-94001122D01*
X154685783Y-94153806D01*
X154698745Y-94235646D01*
X154764559Y-94438200D01*
X154772118Y-94461463D01*
X154879915Y-94673027D01*
X155019480Y-94865122D01*
X155019482Y-94865124D01*
X155019484Y-94865127D01*
X155187372Y-95033015D01*
X155187375Y-95033017D01*
X155187378Y-95033020D01*
X155379473Y-95172585D01*
X155591037Y-95280382D01*
X155816859Y-95353756D01*
X156051378Y-95390900D01*
X156051381Y-95390900D01*
X156288819Y-95390900D01*
X156288822Y-95390900D01*
X156523341Y-95353756D01*
X156749163Y-95280382D01*
X156960727Y-95172585D01*
X157152822Y-95033020D01*
X157320720Y-94865122D01*
X157460285Y-94673027D01*
X157568082Y-94461463D01*
X157641456Y-94235641D01*
X157678600Y-94001122D01*
X157678600Y-93763678D01*
X157641456Y-93529159D01*
X157568082Y-93303337D01*
X157460285Y-93091773D01*
X157320720Y-92899678D01*
X157320717Y-92899675D01*
X157320715Y-92899672D01*
X157152827Y-92731784D01*
X157152824Y-92731782D01*
X157152822Y-92731780D01*
X156960727Y-92592215D01*
X156749163Y-92484418D01*
X156749160Y-92484417D01*
X156749158Y-92484416D01*
X156523346Y-92411045D01*
X156523342Y-92411044D01*
X156523341Y-92411044D01*
X156288822Y-92373900D01*
X156051378Y-92373900D01*
X155816859Y-92411044D01*
X155816853Y-92411045D01*
X155591041Y-92484416D01*
X155591035Y-92484419D01*
X155379469Y-92592217D01*
X155187375Y-92731782D01*
X155187372Y-92731784D01*
X155019484Y-92899672D01*
X155019482Y-92899675D01*
X154879917Y-93091769D01*
X154772119Y-93303335D01*
X154772116Y-93303341D01*
X154698745Y-93529153D01*
X154698744Y-93529158D01*
X154698744Y-93529159D01*
X154661600Y-93763678D01*
X142898016Y-93763678D01*
X142955449Y-93586916D01*
X142988900Y-93375716D01*
X142988900Y-93161884D01*
X142955449Y-92950684D01*
X142889372Y-92747317D01*
X142792294Y-92556791D01*
X142666606Y-92383796D01*
X142666603Y-92383793D01*
X142666601Y-92383790D01*
X142515409Y-92232598D01*
X142515406Y-92232596D01*
X142515404Y-92232594D01*
X142342409Y-92106906D01*
X142342407Y-92106905D01*
X142341320Y-92106239D01*
X142340991Y-92105875D01*
X142338404Y-92103996D01*
X142338798Y-92103452D01*
X142293683Y-92053596D01*
X142282070Y-91983556D01*
X142310166Y-91918355D01*
X142338530Y-91893778D01*
X142338404Y-91893604D01*
X142340430Y-91892131D01*
X142341320Y-91891361D01*
X142342397Y-91890699D01*
X142342409Y-91890694D01*
X142515404Y-91765006D01*
X142616732Y-91663678D01*
X144661600Y-91663678D01*
X144661600Y-91901122D01*
X144694193Y-92106906D01*
X144698745Y-92135646D01*
X144749443Y-92291678D01*
X144772118Y-92361463D01*
X144879915Y-92573027D01*
X145019480Y-92765122D01*
X145019482Y-92765124D01*
X145019484Y-92765127D01*
X145187372Y-92933015D01*
X145187375Y-92933017D01*
X145187378Y-92933020D01*
X145379473Y-93072585D01*
X145591037Y-93180382D01*
X145816859Y-93253756D01*
X146051378Y-93290900D01*
X146051381Y-93290900D01*
X146288819Y-93290900D01*
X146288822Y-93290900D01*
X146523341Y-93253756D01*
X146749163Y-93180382D01*
X146960727Y-93072585D01*
X147152822Y-92933020D01*
X147320720Y-92765122D01*
X147460285Y-92573027D01*
X147568082Y-92361463D01*
X147641456Y-92135641D01*
X147678600Y-91901122D01*
X147678600Y-91663678D01*
X147641456Y-91429159D01*
X147568082Y-91203337D01*
X147460285Y-90991773D01*
X147439873Y-90963678D01*
X159861600Y-90963678D01*
X159861600Y-91201122D01*
X159898744Y-91435641D01*
X159898745Y-91435646D01*
X159956633Y-91613806D01*
X159972118Y-91661463D01*
X160024876Y-91765006D01*
X160079917Y-91873030D01*
X160093504Y-91891731D01*
X160219480Y-92065122D01*
X160219482Y-92065124D01*
X160219484Y-92065127D01*
X160387372Y-92233015D01*
X160387375Y-92233017D01*
X160387378Y-92233020D01*
X160579473Y-92372585D01*
X160791037Y-92480382D01*
X161016859Y-92553756D01*
X161251378Y-92590900D01*
X161251381Y-92590900D01*
X161488819Y-92590900D01*
X161488822Y-92590900D01*
X161723341Y-92553756D01*
X161949163Y-92480382D01*
X162160727Y-92372585D01*
X162352822Y-92233020D01*
X162520720Y-92065122D01*
X162660285Y-91873027D01*
X162768082Y-91661463D01*
X162841456Y-91435641D01*
X162878600Y-91201122D01*
X162878600Y-90963678D01*
X162841456Y-90729159D01*
X162768082Y-90503337D01*
X162660285Y-90291773D01*
X162520720Y-90099678D01*
X162520717Y-90099675D01*
X162520715Y-90099672D01*
X162352827Y-89931784D01*
X162352824Y-89931782D01*
X162352822Y-89931780D01*
X162181490Y-89807300D01*
X162160730Y-89792217D01*
X162160729Y-89792216D01*
X162160727Y-89792215D01*
X161949163Y-89684418D01*
X161949160Y-89684417D01*
X161949158Y-89684416D01*
X161723346Y-89611045D01*
X161723342Y-89611044D01*
X161723341Y-89611044D01*
X161488822Y-89573900D01*
X161251378Y-89573900D01*
X161016859Y-89611044D01*
X161016853Y-89611045D01*
X160791041Y-89684416D01*
X160791035Y-89684419D01*
X160579469Y-89792217D01*
X160387375Y-89931782D01*
X160387372Y-89931784D01*
X160219484Y-90099672D01*
X160219482Y-90099675D01*
X160079917Y-90291769D01*
X159972119Y-90503335D01*
X159972116Y-90503341D01*
X159898745Y-90729153D01*
X159898744Y-90729158D01*
X159898744Y-90729159D01*
X159861600Y-90963678D01*
X147439873Y-90963678D01*
X147320720Y-90799678D01*
X147320717Y-90799675D01*
X147320715Y-90799672D01*
X147152827Y-90631784D01*
X147152824Y-90631782D01*
X147152822Y-90631780D01*
X146986896Y-90511228D01*
X146960730Y-90492217D01*
X146960729Y-90492216D01*
X146960727Y-90492215D01*
X146749163Y-90384418D01*
X146749160Y-90384417D01*
X146749158Y-90384416D01*
X146523346Y-90311045D01*
X146523342Y-90311044D01*
X146523341Y-90311044D01*
X146288822Y-90273900D01*
X146051378Y-90273900D01*
X145816859Y-90311044D01*
X145816853Y-90311045D01*
X145591041Y-90384416D01*
X145591035Y-90384419D01*
X145379469Y-90492217D01*
X145187375Y-90631782D01*
X145187372Y-90631784D01*
X145019484Y-90799672D01*
X145019482Y-90799675D01*
X144879917Y-90991769D01*
X144772119Y-91203335D01*
X144772116Y-91203341D01*
X144698745Y-91429153D01*
X144698744Y-91429158D01*
X144698744Y-91429159D01*
X144661600Y-91663678D01*
X142616732Y-91663678D01*
X142666606Y-91613804D01*
X142792294Y-91440809D01*
X142889372Y-91250283D01*
X142955449Y-91046916D01*
X142988900Y-90835716D01*
X142988900Y-90621884D01*
X142955449Y-90410684D01*
X142889372Y-90207317D01*
X142792294Y-90016791D01*
X142666606Y-89843796D01*
X142666603Y-89843793D01*
X142666601Y-89843790D01*
X142515409Y-89692598D01*
X142515406Y-89692596D01*
X142515404Y-89692594D01*
X142364159Y-89582708D01*
X142342412Y-89566908D01*
X142341320Y-89566239D01*
X142340991Y-89565875D01*
X142338404Y-89563996D01*
X142338798Y-89563452D01*
X142293683Y-89513596D01*
X142282070Y-89443556D01*
X142310166Y-89378355D01*
X142338530Y-89353778D01*
X142338404Y-89353604D01*
X142340430Y-89352131D01*
X142341320Y-89351361D01*
X142342397Y-89350699D01*
X142342409Y-89350694D01*
X142500769Y-89235639D01*
X153159550Y-89235639D01*
X153159550Y-89410860D01*
X153190675Y-89567335D01*
X153193733Y-89582708D01*
X153260785Y-89744586D01*
X153358130Y-89890273D01*
X153482027Y-90014170D01*
X153627714Y-90111515D01*
X153789592Y-90178567D01*
X153961442Y-90212750D01*
X153961443Y-90212750D01*
X154136657Y-90212750D01*
X154136658Y-90212750D01*
X154308508Y-90178567D01*
X154470386Y-90111515D01*
X154616073Y-90014170D01*
X154739970Y-89890273D01*
X154837315Y-89744586D01*
X154904367Y-89582708D01*
X154938550Y-89410858D01*
X154938550Y-89235642D01*
X154904367Y-89063792D01*
X154837315Y-88901914D01*
X154739970Y-88756227D01*
X154616073Y-88632330D01*
X154470386Y-88534985D01*
X154308508Y-88467933D01*
X154136660Y-88433750D01*
X154136658Y-88433750D01*
X153961442Y-88433750D01*
X153961439Y-88433750D01*
X153789591Y-88467933D01*
X153789586Y-88467935D01*
X153627714Y-88534985D01*
X153482031Y-88632327D01*
X153482024Y-88632332D01*
X153358132Y-88756224D01*
X153358127Y-88756231D01*
X153260785Y-88901914D01*
X153193735Y-89063786D01*
X153193733Y-89063791D01*
X153159550Y-89235639D01*
X142500769Y-89235639D01*
X142515404Y-89225006D01*
X142533728Y-89206682D01*
X142600054Y-89140357D01*
X142666601Y-89073809D01*
X142666606Y-89073804D01*
X142792294Y-88900809D01*
X142889372Y-88710283D01*
X142955449Y-88506916D01*
X142988900Y-88295716D01*
X142988900Y-88081884D01*
X142955449Y-87870684D01*
X142889372Y-87667317D01*
X142792294Y-87476791D01*
X142666606Y-87303796D01*
X142666603Y-87303793D01*
X142666601Y-87303790D01*
X142515409Y-87152598D01*
X142515406Y-87152596D01*
X142515404Y-87152594D01*
X142342409Y-87026906D01*
X142342407Y-87026905D01*
X142341320Y-87026239D01*
X142340991Y-87025875D01*
X142338404Y-87023996D01*
X142338798Y-87023452D01*
X142293683Y-86973596D01*
X142282070Y-86903556D01*
X142310166Y-86838355D01*
X142338530Y-86813778D01*
X142338404Y-86813604D01*
X142340430Y-86812131D01*
X142341320Y-86811361D01*
X142342397Y-86810699D01*
X142342409Y-86810694D01*
X142515404Y-86685006D01*
X142552732Y-86647678D01*
X144661600Y-86647678D01*
X144661600Y-86885122D01*
X144684057Y-87026908D01*
X144698745Y-87119646D01*
X144770794Y-87341389D01*
X144772118Y-87345463D01*
X144879915Y-87557027D01*
X145019480Y-87749122D01*
X145019482Y-87749124D01*
X145019484Y-87749127D01*
X145187372Y-87917015D01*
X145187375Y-87917017D01*
X145187378Y-87917020D01*
X145379473Y-88056585D01*
X145591037Y-88164382D01*
X145816859Y-88237756D01*
X146051378Y-88274900D01*
X146051381Y-88274900D01*
X146288819Y-88274900D01*
X146288822Y-88274900D01*
X146523341Y-88237756D01*
X146749163Y-88164382D01*
X146960727Y-88056585D01*
X147152822Y-87917020D01*
X147320720Y-87749122D01*
X147460285Y-87557027D01*
X147568082Y-87345463D01*
X147641456Y-87119641D01*
X147678600Y-86885122D01*
X147678600Y-86647678D01*
X147641456Y-86413159D01*
X147568082Y-86187337D01*
X147460285Y-85975773D01*
X147320720Y-85783678D01*
X147320717Y-85783675D01*
X147320715Y-85783672D01*
X147152827Y-85615784D01*
X147152824Y-85615782D01*
X147152822Y-85615780D01*
X146960727Y-85476215D01*
X146749163Y-85368418D01*
X146749160Y-85368417D01*
X146749158Y-85368416D01*
X146523346Y-85295045D01*
X146523342Y-85295044D01*
X146523341Y-85295044D01*
X146288822Y-85257900D01*
X146051378Y-85257900D01*
X145816859Y-85295044D01*
X145816853Y-85295045D01*
X145591041Y-85368416D01*
X145591035Y-85368419D01*
X145379469Y-85476217D01*
X145187375Y-85615782D01*
X145187372Y-85615784D01*
X145019484Y-85783672D01*
X145019482Y-85783675D01*
X144879917Y-85975769D01*
X144772119Y-86187335D01*
X144772116Y-86187341D01*
X144698745Y-86413153D01*
X144698744Y-86413158D01*
X144698744Y-86413159D01*
X144661600Y-86647678D01*
X142552732Y-86647678D01*
X142576036Y-86624374D01*
X142646779Y-86553632D01*
X142666601Y-86533809D01*
X142666606Y-86533804D01*
X142792294Y-86360809D01*
X142889372Y-86170283D01*
X142955449Y-85966916D01*
X142988900Y-85755716D01*
X142988900Y-85541884D01*
X142955449Y-85330684D01*
X142889372Y-85127317D01*
X142792294Y-84936791D01*
X142684297Y-84788146D01*
X147496550Y-84788146D01*
X147496550Y-84938353D01*
X147525853Y-85085663D01*
X147583332Y-85224429D01*
X147666778Y-85349315D01*
X147772985Y-85455522D01*
X147897871Y-85538968D01*
X148036637Y-85596447D01*
X148183950Y-85625750D01*
X148334150Y-85625750D01*
X148481463Y-85596447D01*
X148620229Y-85538968D01*
X148745115Y-85455522D01*
X148851322Y-85349315D01*
X148934768Y-85224429D01*
X148992247Y-85085663D01*
X149021550Y-84938350D01*
X149021550Y-84788150D01*
X148992247Y-84640837D01*
X148934768Y-84502071D01*
X148851322Y-84377185D01*
X148745115Y-84270978D01*
X148620229Y-84187532D01*
X148481464Y-84130053D01*
X148334153Y-84100750D01*
X148334150Y-84100750D01*
X148183950Y-84100750D01*
X148183946Y-84100750D01*
X148036635Y-84130053D01*
X148036634Y-84130054D01*
X147897869Y-84187533D01*
X147772989Y-84270975D01*
X147772982Y-84270980D01*
X147666780Y-84377182D01*
X147666775Y-84377189D01*
X147583333Y-84502069D01*
X147525854Y-84640834D01*
X147525853Y-84640835D01*
X147496550Y-84788146D01*
X142684297Y-84788146D01*
X142666606Y-84763796D01*
X142666603Y-84763793D01*
X142666601Y-84763790D01*
X142515409Y-84612598D01*
X142515406Y-84612596D01*
X142515404Y-84612594D01*
X142370571Y-84507367D01*
X142342412Y-84486908D01*
X142341320Y-84486239D01*
X142340991Y-84485875D01*
X142338404Y-84483996D01*
X142338798Y-84483452D01*
X142293683Y-84433596D01*
X142282070Y-84363556D01*
X142310166Y-84298355D01*
X142338530Y-84273778D01*
X142338404Y-84273604D01*
X142340430Y-84272131D01*
X142341320Y-84271361D01*
X142342397Y-84270699D01*
X142342409Y-84270694D01*
X142515404Y-84145006D01*
X142666606Y-83993804D01*
X142792294Y-83820809D01*
X142889372Y-83630283D01*
X142955449Y-83426916D01*
X142988900Y-83215716D01*
X142988900Y-83001884D01*
X142955449Y-82790684D01*
X142889372Y-82587317D01*
X142792294Y-82396791D01*
X142666606Y-82223796D01*
X142666603Y-82223793D01*
X142666601Y-82223790D01*
X142515409Y-82072598D01*
X142515406Y-82072596D01*
X142515404Y-82072594D01*
X142342409Y-81946906D01*
X142342407Y-81946905D01*
X142341320Y-81946239D01*
X142340991Y-81945875D01*
X142338404Y-81943996D01*
X142338798Y-81943452D01*
X142293683Y-81893596D01*
X142282070Y-81823556D01*
X142310166Y-81758355D01*
X142338530Y-81733778D01*
X142338404Y-81733604D01*
X142340430Y-81732131D01*
X142341320Y-81731361D01*
X142342397Y-81730699D01*
X142342409Y-81730694D01*
X142501478Y-81615124D01*
X162807200Y-81615124D01*
X162807200Y-81896875D01*
X162838745Y-82176855D01*
X162901441Y-82451542D01*
X162994489Y-82717456D01*
X162994500Y-82717483D01*
X163116743Y-82971324D01*
X163266642Y-83209885D01*
X163442304Y-83430160D01*
X163641539Y-83629395D01*
X163861814Y-83805057D01*
X164100375Y-83954956D01*
X164100378Y-83954957D01*
X164100379Y-83954958D01*
X164354226Y-84077204D01*
X164354242Y-84077209D01*
X164354243Y-84077210D01*
X164620157Y-84170258D01*
X164620160Y-84170258D01*
X164620164Y-84170260D01*
X164894844Y-84232954D01*
X164894845Y-84232954D01*
X164894848Y-84232955D01*
X165059971Y-84251559D01*
X165174824Y-84264500D01*
X165174826Y-84264500D01*
X165456576Y-84264500D01*
X165527677Y-84256488D01*
X165736552Y-84232955D01*
X166011236Y-84170260D01*
X166277174Y-84077204D01*
X166531021Y-83954958D01*
X166769584Y-83805058D01*
X166825496Y-83760470D01*
X166989860Y-83629395D01*
X167189095Y-83430160D01*
X167349703Y-83228762D01*
X167364758Y-83209884D01*
X167514658Y-82971321D01*
X167636904Y-82717474D01*
X167729960Y-82451536D01*
X167792655Y-82176852D01*
X167824200Y-81896874D01*
X167824200Y-81615126D01*
X167823059Y-81605003D01*
X167806024Y-81453804D01*
X167792655Y-81335148D01*
X167729960Y-81060464D01*
X167728517Y-81056341D01*
X167636910Y-80794543D01*
X167636909Y-80794542D01*
X167636904Y-80794526D01*
X167514658Y-80540679D01*
X167514657Y-80540678D01*
X167514656Y-80540675D01*
X167364757Y-80302114D01*
X167189095Y-80081839D01*
X166989860Y-79882604D01*
X166769585Y-79706942D01*
X166531024Y-79557043D01*
X166277183Y-79434800D01*
X166277178Y-79434798D01*
X166277174Y-79434796D01*
X166277168Y-79434793D01*
X166277156Y-79434789D01*
X166011242Y-79341741D01*
X165736554Y-79279045D01*
X165736557Y-79279045D01*
X165456576Y-79247500D01*
X165456574Y-79247500D01*
X165174826Y-79247500D01*
X165174824Y-79247500D01*
X164894844Y-79279045D01*
X164620157Y-79341741D01*
X164354243Y-79434789D01*
X164354216Y-79434800D01*
X164100375Y-79557043D01*
X163861814Y-79706942D01*
X163641539Y-79882604D01*
X163442304Y-80081839D01*
X163266642Y-80302114D01*
X163116743Y-80540675D01*
X162994500Y-80794516D01*
X162994489Y-80794543D01*
X162901441Y-81060457D01*
X162838745Y-81335144D01*
X162807200Y-81615124D01*
X142501478Y-81615124D01*
X142515404Y-81605006D01*
X142515409Y-81605001D01*
X142597915Y-81522496D01*
X142666601Y-81453809D01*
X142666606Y-81453804D01*
X142792294Y-81280809D01*
X142889372Y-81090283D01*
X142955449Y-80886916D01*
X142988900Y-80675716D01*
X142988900Y-80461884D01*
X142955449Y-80250684D01*
X142889372Y-80047317D01*
X142792294Y-79856791D01*
X142666606Y-79683796D01*
X142666603Y-79683793D01*
X142666601Y-79683790D01*
X142515409Y-79532598D01*
X142515406Y-79532596D01*
X142515404Y-79532594D01*
X142342409Y-79406906D01*
X142342407Y-79406905D01*
X142341320Y-79406239D01*
X142340991Y-79405875D01*
X142338404Y-79403996D01*
X142338798Y-79403452D01*
X142318850Y-79381407D01*
X142295565Y-79357333D01*
X142295139Y-79355205D01*
X142293683Y-79353596D01*
X142288206Y-79320563D01*
X142281632Y-79287716D01*
X142282424Y-79285694D01*
X142282070Y-79283556D01*
X142295318Y-79252810D01*
X142307549Y-79221619D01*
X142309520Y-79219852D01*
X142310166Y-79218355D01*
X142333328Y-79196686D01*
X142339725Y-79192061D01*
X142342409Y-79190694D01*
X142515404Y-79065006D01*
X142666606Y-78913804D01*
X142792294Y-78740809D01*
X142889372Y-78550283D01*
X142955449Y-78346916D01*
X142988900Y-78135716D01*
X142988900Y-77921884D01*
X142955449Y-77710684D01*
X142940249Y-77663904D01*
X142940246Y-77663894D01*
X145962100Y-77663894D01*
X145962100Y-77900905D01*
X145993034Y-78135872D01*
X146054377Y-78364808D01*
X146145076Y-78583775D01*
X146145081Y-78583785D01*
X146263577Y-78789026D01*
X146324659Y-78868630D01*
X147167401Y-78025888D01*
X147194078Y-78090290D01*
X147265212Y-78196751D01*
X147355749Y-78287288D01*
X147462210Y-78358422D01*
X147526610Y-78385098D01*
X146683868Y-79227839D01*
X146683869Y-79227840D01*
X146763473Y-79288922D01*
X146968714Y-79407418D01*
X146968724Y-79407423D01*
X147187691Y-79498122D01*
X147416627Y-79559465D01*
X147651594Y-79590399D01*
X147651604Y-79590400D01*
X147888596Y-79590400D01*
X147888605Y-79590399D01*
X148123572Y-79559465D01*
X148352508Y-79498122D01*
X148571475Y-79407423D01*
X148571485Y-79407418D01*
X148776721Y-79288924D01*
X148856330Y-79227839D01*
X148013589Y-78385098D01*
X148077990Y-78358422D01*
X148184451Y-78287288D01*
X148274988Y-78196751D01*
X148346122Y-78090290D01*
X148372798Y-78025889D01*
X149215539Y-78868630D01*
X149276624Y-78789021D01*
X149395118Y-78583785D01*
X149395123Y-78583775D01*
X149485822Y-78364808D01*
X149547165Y-78135872D01*
X149578099Y-77900905D01*
X149578100Y-77900896D01*
X149578100Y-77663904D01*
X149578099Y-77663894D01*
X153582100Y-77663894D01*
X153582100Y-77900905D01*
X153613034Y-78135872D01*
X153674377Y-78364808D01*
X153765076Y-78583775D01*
X153765081Y-78583785D01*
X153883577Y-78789026D01*
X153944659Y-78868630D01*
X154787401Y-78025888D01*
X154814078Y-78090290D01*
X154885212Y-78196751D01*
X154975749Y-78287288D01*
X155082210Y-78358422D01*
X155146610Y-78385098D01*
X154303868Y-79227839D01*
X154303869Y-79227840D01*
X154383473Y-79288922D01*
X154588714Y-79407418D01*
X154588724Y-79407423D01*
X154807691Y-79498122D01*
X155036627Y-79559465D01*
X155271594Y-79590399D01*
X155271604Y-79590400D01*
X155508596Y-79590400D01*
X155508605Y-79590399D01*
X155743572Y-79559465D01*
X155972508Y-79498122D01*
X156191475Y-79407423D01*
X156191485Y-79407418D01*
X156396721Y-79288924D01*
X156476330Y-79227839D01*
X155633589Y-78385098D01*
X155697990Y-78358422D01*
X155804451Y-78287288D01*
X155894988Y-78196751D01*
X155966122Y-78090290D01*
X155992798Y-78025889D01*
X156835539Y-78868630D01*
X156896624Y-78789021D01*
X157015118Y-78583785D01*
X157015123Y-78583775D01*
X157105822Y-78364808D01*
X157167165Y-78135872D01*
X157198099Y-77900905D01*
X157198100Y-77900896D01*
X157198100Y-77663904D01*
X157198099Y-77663894D01*
X157167165Y-77428927D01*
X157105822Y-77199991D01*
X157015123Y-76981024D01*
X157015118Y-76981014D01*
X156896622Y-76775773D01*
X156835540Y-76696169D01*
X156835539Y-76696168D01*
X155992797Y-77538909D01*
X155966122Y-77474510D01*
X155894988Y-77368049D01*
X155804451Y-77277512D01*
X155697990Y-77206378D01*
X155633588Y-77179701D01*
X156476330Y-76336959D01*
X156396726Y-76275877D01*
X156191485Y-76157381D01*
X156191475Y-76157376D01*
X155972508Y-76066677D01*
X155743572Y-76005334D01*
X155508605Y-75974400D01*
X155271594Y-75974400D01*
X155036627Y-76005334D01*
X154807691Y-76066677D01*
X154588724Y-76157376D01*
X154588714Y-76157381D01*
X154383486Y-76275870D01*
X154383471Y-76275880D01*
X154303868Y-76336959D01*
X155146610Y-77179701D01*
X155082210Y-77206378D01*
X154975749Y-77277512D01*
X154885212Y-77368049D01*
X154814078Y-77474510D01*
X154787401Y-77538910D01*
X153944659Y-76696168D01*
X153883580Y-76775771D01*
X153883570Y-76775786D01*
X153765081Y-76981014D01*
X153765076Y-76981024D01*
X153674377Y-77199991D01*
X153613034Y-77428927D01*
X153582100Y-77663894D01*
X149578099Y-77663894D01*
X149547165Y-77428927D01*
X149485822Y-77199991D01*
X149395123Y-76981024D01*
X149395118Y-76981014D01*
X149276622Y-76775773D01*
X149215540Y-76696169D01*
X149215539Y-76696168D01*
X148372797Y-77538909D01*
X148346122Y-77474510D01*
X148274988Y-77368049D01*
X148184451Y-77277512D01*
X148077990Y-77206378D01*
X148013588Y-77179701D01*
X148856330Y-76336959D01*
X148776726Y-76275877D01*
X148571485Y-76157381D01*
X148571475Y-76157376D01*
X148352508Y-76066677D01*
X148123572Y-76005334D01*
X147888605Y-75974400D01*
X147651594Y-75974400D01*
X147416627Y-76005334D01*
X147187691Y-76066677D01*
X146968724Y-76157376D01*
X146968714Y-76157381D01*
X146763486Y-76275870D01*
X146763471Y-76275880D01*
X146683868Y-76336959D01*
X147526610Y-77179701D01*
X147462210Y-77206378D01*
X147355749Y-77277512D01*
X147265212Y-77368049D01*
X147194078Y-77474510D01*
X147167401Y-77538910D01*
X146324659Y-76696168D01*
X146263580Y-76775771D01*
X146263570Y-76775786D01*
X146145081Y-76981014D01*
X146145076Y-76981024D01*
X146054377Y-77199991D01*
X145993034Y-77428927D01*
X145962100Y-77663894D01*
X142940246Y-77663894D01*
X142889373Y-77507321D01*
X142889372Y-77507317D01*
X142792294Y-77316791D01*
X142666606Y-77143796D01*
X142666603Y-77143793D01*
X142666601Y-77143790D01*
X142515409Y-76992598D01*
X142515406Y-76992596D01*
X142515404Y-76992594D01*
X142342409Y-76866906D01*
X142151883Y-76769828D01*
X142151880Y-76769827D01*
X142151878Y-76769826D01*
X141948520Y-76703752D01*
X141948523Y-76703752D01*
X141900639Y-76696168D01*
X141737316Y-76670300D01*
X141523484Y-76670300D01*
X141360155Y-76696169D01*
X141312278Y-76703752D01*
X141108921Y-76769826D01*
X141108915Y-76769829D01*
X140918387Y-76866908D01*
X140745393Y-76992596D01*
X140745390Y-76992598D01*
X140594198Y-77143790D01*
X140594196Y-77143793D01*
X140468508Y-77316787D01*
X140467834Y-77317888D01*
X140467468Y-77318218D01*
X140465596Y-77320796D01*
X140465054Y-77320402D01*
X140415187Y-77365521D01*
X140345145Y-77377128D01*
X140279947Y-77349026D01*
X140255376Y-77320670D01*
X140255204Y-77320796D01*
X140253741Y-77318782D01*
X140252966Y-77317888D01*
X140252296Y-77316796D01*
X140252294Y-77316791D01*
X140126606Y-77143796D01*
X140126603Y-77143793D01*
X140126601Y-77143790D01*
X139975409Y-76992598D01*
X139975406Y-76992596D01*
X139975404Y-76992594D01*
X139802409Y-76866906D01*
X139611883Y-76769828D01*
X139611880Y-76769827D01*
X139611878Y-76769826D01*
X139408520Y-76703752D01*
X139408523Y-76703752D01*
X139360639Y-76696168D01*
X139197316Y-76670300D01*
X138983484Y-76670300D01*
X138820155Y-76696169D01*
X138772278Y-76703752D01*
X138568921Y-76769826D01*
X138568915Y-76769829D01*
X138378387Y-76866908D01*
X138205393Y-76992596D01*
X138205390Y-76992598D01*
X138054198Y-77143790D01*
X138054196Y-77143793D01*
X137928508Y-77316787D01*
X137831429Y-77507315D01*
X137831426Y-77507321D01*
X137765352Y-77710678D01*
X137765351Y-77710683D01*
X137765351Y-77710684D01*
X137731900Y-77921884D01*
X113201988Y-77921884D01*
X113219900Y-74178939D01*
X113240228Y-74110918D01*
X113294106Y-74064682D01*
X113345740Y-74053545D01*
X168545493Y-73985555D01*
X168613637Y-74005473D01*
G37*
G04 #@! TD.AperFunction*
M02*
